<svg width="1920" height="566" viewBox="0 0 1920 566" fill="none" xmlns="http://www.w3.org/2000/svg">
<rect x="-0.97496" width="1920" height="566" fill="#A3B7B4"/>
<g opacity="0.1">
<path d="M983.539 3.69849H1115.39C1115.39 3.69849 1115.39 3.69849 1123.15 7.39783C1123.15 11.0972 1130.91 14.7965 1130.91 14.7965C1138.66 25.8946 1146.42 33.2933 1154.17 44.3913C1154.17 51.79 1154.17 55.4893 1154.17 62.888C1154.17 66.5874 1161.93 70.2867 1161.93 73.9861C1169.69 85.0841 1177.44 96.1821 1192.95 103.581C1200.71 107.28 1200.71 107.28 1208.47 110.98C1216.22 114.679 1223.98 118.378 1231.74 122.078C1255 133.176 1262.76 147.973 1270.52 166.47V170.169C1270.52 181.267 1270.52 188.666 1278.27 199.764C1286.03 221.96 1293.78 244.156 1293.78 270.051C1293.78 277.45 1293.78 284.849 1301.54 292.247C1309.3 303.345 1324.81 310.744 1348.08 310.744C1355.83 310.744 1355.83 310.744 1363.59 310.744C1379.1 310.744 1394.61 307.045 1410.13 303.346C1433.39 295.947 1448.91 284.849 1456.66 270.051C1464.42 262.653 1464.42 247.855 1464.42 236.757C1464.42 229.359 1464.42 218.261 1472.18 210.862C1479.93 192.365 1495.44 173.868 1526.47 162.77C1541.98 155.372 1549.74 151.672 1565.25 147.973L1573 144.274C1627.3 125.777 1619.54 96.1821 1611.79 85.0841C1611.79 81.3848 1604.03 77.6854 1604.03 77.6854C1596.27 70.2867 1580.76 70.2867 1565.25 66.5874C1557.49 66.5874 1541.98 66.5874 1534.22 66.5874C1526.47 66.5874 1526.47 66.5874 1518.71 66.5874C1510.96 66.5874 1510.96 66.5874 1503.2 66.5874H1495.44C1479.93 66.5874 1472.17 66.5874 1464.42 62.888C1425.64 59.1887 1386.86 48.0906 1355.83 29.5939C1348.08 22.1952 1340.32 18.4959 1332.56 7.39783V3.69849H1394.61C1394.61 3.69849 1394.61 3.69849 1402.37 7.39783C1410.13 18.4959 1425.64 22.1952 1433.39 29.5939C1456.66 40.6919 1487.69 44.3913 1526.47 44.3913C1534.22 44.3913 1541.98 44.3913 1549.74 44.3913C1565.25 44.3913 1588.52 44.3913 1611.79 40.6919C1627.3 40.6919 1635.05 40.6919 1650.57 36.9926C1658.32 36.9926 1666.08 33.2933 1673.83 25.8946C1673.83 22.1952 1681.59 14.7965 1681.59 7.39783V3.69849H1743.64C1743.64 3.69849 1743.64 7.39783 1751.4 7.39783C1759.15 14.7965 1766.91 18.4959 1782.42 18.4959C1790.18 22.1952 1805.69 22.1952 1813.44 22.1952H1821.2C1836.71 22.1952 1852.22 25.8946 1859.98 29.5939C1883.25 33.2933 1891.01 40.6919 1898.76 44.3913C1914.27 55.4893 1914.27 70.2867 1914.27 85.0841C1906.52 107.28 1891.01 122.078 1852.22 129.476C1828.96 140.574 1797.93 147.973 1774.66 151.672C1766.91 151.672 1766.91 151.672 1759.15 151.672C1743.64 155.372 1728.13 155.372 1712.61 159.071C1689.35 166.47 1666.08 173.868 1666.08 188.666C1666.08 196.064 1666.08 203.463 1666.08 210.862V214.561C1666.08 221.96 1666.08 229.359 1673.83 236.757C1681.59 258.953 1712.61 273.751 1751.4 288.548C1774.66 295.947 1797.93 299.646 1821.2 307.045C1828.96 307.045 1828.96 310.744 1836.71 310.744C1859.98 314.444 1883.25 321.842 1898.76 329.241C1906.52 329.241 1922.03 332.94 1929.79 336.64V406.927C1914.27 399.528 1898.76 392.13 1883.25 388.43C1859.98 377.332 1836.71 366.234 1813.44 351.437C1790.18 336.64 1774.66 329.241 1759.15 321.842C1751.4 318.143 1751.4 318.143 1743.64 314.444C1728.13 307.045 1712.61 299.646 1697.1 292.247C1681.59 284.849 1666.08 273.751 1658.32 262.653C1642.81 247.855 1635.05 233.058 1627.3 218.261V214.561C1627.3 207.162 1619.54 199.764 1619.54 192.365C1611.79 184.966 1604.03 181.267 1588.52 181.267H1580.76C1573 181.267 1565.25 181.267 1557.49 184.966C1534.22 192.365 1526.47 199.764 1518.71 207.163C1510.96 218.261 1510.96 229.359 1510.96 240.457V244.156C1510.96 262.653 1495.44 281.149 1472.18 299.646C1456.66 310.744 1441.15 321.842 1417.88 329.241C1394.61 336.64 1371.35 336.64 1340.32 336.64C1332.56 336.64 1317.05 336.64 1309.3 336.64C1286.03 336.64 1270.52 329.241 1262.76 318.143C1262.76 310.744 1255 307.045 1255 299.646C1255 295.947 1255 288.548 1255 284.849C1255 277.45 1255 273.751 1255 266.352C1255 251.555 1247.25 240.457 1239.49 225.659C1231.74 214.561 1216.22 199.764 1200.71 184.966C1185.2 170.169 1161.93 159.071 1138.66 155.372C1123.15 151.672 1115.39 151.672 1107.64 151.672C1092.13 151.672 1084.37 155.372 1068.86 162.77C1053.34 177.568 1030.08 188.666 1014.56 199.764C999.052 210.862 975.783 218.261 944.759 229.359C921.49 240.457 898.222 247.855 890.466 258.953C890.466 262.653 882.71 266.352 882.71 270.051C874.954 273.751 874.954 281.149 867.198 284.849C843.929 303.345 820.661 310.744 789.636 318.143C781.88 318.143 766.368 321.842 758.612 321.842C743.1 321.842 727.588 325.542 712.075 325.542C665.539 336.64 642.27 347.738 626.758 369.934C619.002 381.032 611.246 392.13 619.002 403.228C619.002 414.326 634.514 421.725 642.27 429.123C673.295 447.62 696.563 462.417 719.831 477.215C727.587 484.613 735.344 488.313 743.1 492.012C758.612 499.411 774.124 503.11 789.636 503.11C812.905 503.11 836.173 495.711 867.198 484.613C882.71 477.215 898.222 466.117 905.978 455.019C921.49 440.221 944.759 425.424 968.027 414.326C991.296 403.228 1014.56 392.13 1045.59 381.032C1061.1 373.633 1076.61 369.934 1084.37 362.535C1115.39 351.437 1138.66 344.038 1169.69 344.038H1177.44C1200.71 344.038 1216.22 347.738 1223.98 355.136C1231.74 358.836 1239.49 366.234 1247.25 369.934C1247.25 373.633 1255 377.332 1255 381.032C1262.76 392.13 1278.27 403.228 1293.78 414.326C1309.3 425.424 1324.81 432.823 1340.32 436.522C1355.83 440.221 1371.35 443.921 1386.86 443.921C1394.61 443.921 1410.13 443.921 1417.88 440.221C1425.64 436.522 1433.39 436.522 1441.15 432.823C1448.91 432.823 1448.91 429.123 1456.66 429.123C1472.17 425.424 1479.93 421.725 1495.44 418.025C1518.71 414.326 1534.22 410.627 1557.49 410.627C1565.25 410.627 1573 410.627 1580.76 410.627C1619.54 414.326 1650.57 429.123 1658.32 447.62C1658.32 455.019 1658.32 462.417 1658.32 473.515C1650.57 492.012 1635.05 503.11 1596.27 506.81C1580.76 510.509 1557.49 510.509 1541.98 510.509C1534.22 510.509 1526.47 510.509 1518.71 510.509C1510.96 510.509 1510.96 510.509 1503.2 510.509C1495.44 510.509 1487.69 510.509 1479.93 510.509C1448.91 514.208 1417.88 521.607 1402.37 532.705C1394.61 536.404 1394.61 540.104 1386.86 547.502C1386.86 547.502 1386.86 551.202 1379.1 551.202H1309.3V547.502V543.803C1309.3 532.705 1309.3 517.908 1317.05 506.81C1317.05 499.411 1317.05 492.012 1309.3 484.613C1301.54 477.215 1293.78 469.816 1286.03 458.718C1286.03 455.019 1278.27 451.319 1278.27 447.62C1270.52 436.522 1262.76 425.424 1247.25 414.326C1239.49 403.228 1223.98 395.829 1216.22 392.13C1200.71 384.731 1185.2 381.032 1169.69 381.032C1154.17 381.032 1138.66 384.731 1123.15 388.43C1099.88 395.829 1084.37 403.228 1061.1 410.627L1045.59 414.326C1022.32 421.725 1006.81 429.123 991.296 440.221C975.783 451.319 960.271 462.417 952.515 477.215C937.003 495.711 913.734 514.208 882.71 529.006C867.198 536.404 859.442 543.803 851.685 554.901V558.6H735.344C735.344 558.6 735.344 558.6 727.588 554.901C719.831 547.502 704.319 536.404 688.807 532.705V529.006C673.295 521.607 657.782 517.908 642.27 510.509C619.002 499.411 603.49 488.313 580.221 473.515C564.709 462.417 541.441 451.319 518.172 443.921C510.416 440.221 494.904 436.522 487.148 429.123C471.636 418.025 448.367 410.627 432.855 399.528C425.099 395.829 425.099 392.13 417.343 388.43C401.83 381.032 386.318 369.934 378.562 362.535C363.05 340.339 355.294 318.143 355.294 299.646C355.294 288.548 355.294 273.751 363.05 255.254C370.806 247.855 378.562 236.757 370.806 225.659C370.806 207.163 363.05 192.365 339.781 177.568C324.269 162.77 301.001 155.372 262.22 155.372C262.22 155.372 262.22 155.372 254.464 155.372C231.196 155.372 207.927 159.071 184.659 166.47C176.903 170.169 153.635 173.868 138.122 181.267C99.3418 196.064 52.8051 203.463 6.26836 210.862C6.26836 210.862 6.26836 210.862 -1.48776 210.862V173.868C6.26836 173.868 6.26836 173.868 14.0245 173.868H21.7806C37.2928 173.868 52.8051 173.868 68.3173 170.169C91.5857 166.47 107.098 162.77 122.61 159.071C130.366 155.372 130.366 151.672 138.122 151.672C176.903 144.274 215.684 136.875 254.464 136.875C262.22 136.875 277.733 136.875 285.489 136.875C316.513 140.574 347.538 147.973 363.05 162.77C378.562 173.868 386.318 188.666 394.074 210.862C401.83 221.96 401.83 233.058 394.074 244.156C394.074 251.555 386.318 258.953 386.318 266.352C386.318 270.051 386.318 270.051 386.318 273.751C386.318 288.548 386.318 303.345 386.318 318.143C394.074 347.738 425.099 369.934 471.635 384.731C487.148 388.43 494.904 392.13 510.416 392.13C525.928 392.13 541.441 388.43 556.953 377.332C564.709 369.934 572.465 366.234 580.221 358.836C580.221 355.136 587.977 355.136 587.977 351.437C611.246 336.64 642.27 321.842 673.295 314.444C688.807 310.744 704.319 307.045 719.831 303.346C735.344 303.346 743.1 299.646 750.856 299.646C789.636 292.247 820.661 277.45 820.661 255.254C820.661 244.156 828.417 236.757 828.417 225.659C828.417 221.96 828.417 218.261 828.417 214.561C828.417 207.162 843.929 203.463 859.442 203.463C867.198 203.463 874.954 203.463 874.954 203.463C898.222 203.463 921.49 199.764 944.759 188.666C960.271 177.568 975.783 162.77 968.027 147.973C960.271 129.476 952.515 114.679 937.003 99.8815C937.003 96.1821 929.247 96.1821 929.247 92.4828C921.491 85.0841 913.734 73.9861 905.978 66.5874C898.222 51.79 898.222 40.6919 913.734 33.2933C921.49 25.8946 929.247 22.1952 944.759 18.4959L952.515 14.7965C968.027 7.39783 975.783 7.39783 983.539 3.69849ZM983.539 3.69849C975.783 3.69849 968.027 11.0972 952.515 14.7965C944.759 18.4959 929.247 22.1952 921.49 29.5939C905.978 40.6919 905.978 51.79 913.734 62.888C921.49 73.9861 929.247 85.0841 944.759 96.1821C960.271 110.98 968.027 125.777 975.783 140.574C983.539 166.47 944.759 192.365 890.466 192.365H882.71C874.954 192.365 867.198 192.365 859.442 192.365C843.929 192.365 836.173 199.764 828.417 207.163C828.417 210.862 828.417 214.561 828.417 218.261C828.417 229.359 828.417 240.457 820.661 247.855C812.905 270.051 789.636 284.849 750.856 292.247C727.588 303.345 704.319 307.045 681.051 310.744C642.27 318.143 611.246 332.94 595.733 347.738C580.221 358.836 572.465 366.234 556.953 373.633C541.441 381.032 525.928 384.731 510.416 384.731C502.66 384.731 487.148 381.032 479.392 381.032C432.855 366.234 401.83 344.038 394.074 314.444C386.318 299.646 394.074 284.849 401.83 270.051C401.83 262.653 409.587 255.254 409.587 244.156C409.587 233.058 409.587 221.96 409.587 210.862C401.83 196.064 386.318 177.568 370.806 162.77C355.294 147.973 324.269 136.875 293.245 136.875C285.489 136.875 269.976 136.875 262.22 136.875C223.44 136.875 184.659 140.574 145.879 151.672C114.854 155.372 91.5857 162.77 68.3173 162.77C52.8051 166.47 37.2928 166.47 14.0245 166.47C6.26836 166.47 -1.48776 166.47 -9.24388 166.47H-17C-17 181.267 -17 192.365 -17 207.163C-17 207.163 -17 207.163 -9.24388 207.163H-1.48776C45.049 203.463 91.5857 192.365 138.122 177.568C153.635 170.169 169.147 166.47 192.415 159.071C215.684 155.372 238.952 151.672 262.22 151.672C262.22 151.672 262.22 151.672 269.976 151.672C301.001 151.672 332.025 159.071 347.538 170.169C363.05 192.365 370.806 207.163 370.806 225.659C370.806 236.757 363.05 247.855 363.05 258.953C355.294 270.051 347.538 284.849 347.538 299.646C347.538 321.842 355.294 344.038 378.562 362.535C386.318 373.633 401.83 381.032 417.343 388.43C440.611 403.228 463.879 414.326 487.148 429.123C494.904 432.823 510.416 440.221 518.172 443.921C541.441 451.319 556.953 462.417 572.465 473.515C587.977 488.313 611.246 499.411 634.514 510.509C650.026 517.908 673.295 525.306 688.807 532.705C704.319 540.104 719.831 547.502 727.588 554.901C727.588 554.901 727.588 558.6 735.344 558.6C766.368 558.6 797.393 558.6 828.417 558.6L836.173 554.901C843.929 543.803 851.685 536.404 867.198 529.006C898.222 514.208 921.49 495.711 937.003 473.515C944.759 462.417 960.271 447.62 975.783 436.522C991.296 429.123 1006.81 418.025 1030.08 410.627C1053.34 403.228 1076.61 392.13 1107.64 384.731C1123.15 381.032 1138.66 377.332 1154.17 377.332C1169.69 377.332 1185.2 381.032 1200.71 388.43C1216.22 395.829 1223.98 403.228 1231.74 410.627C1247.25 425.424 1255 440.221 1270.52 455.019C1278.27 466.117 1286.03 473.515 1293.78 480.914C1301.54 488.313 1309.3 495.711 1301.54 503.11C1293.78 514.208 1293.78 529.006 1293.78 540.104C1293.78 543.803 1293.78 547.502 1293.78 551.202V554.901C1324.81 554.901 1348.08 554.901 1379.1 554.901L1386.86 551.202C1394.61 547.502 1394.61 540.104 1402.37 536.404C1417.88 521.607 1448.91 517.908 1479.93 514.208C1495.44 514.208 1503.2 514.208 1518.71 514.208C1541.98 514.208 1573 514.208 1596.27 510.509C1627.3 506.81 1650.57 495.711 1658.32 477.215C1658.32 469.816 1658.32 458.718 1658.32 451.319C1650.57 429.123 1619.54 414.326 1580.76 410.627C1573 410.627 1565.25 410.627 1549.74 410.627C1526.47 410.627 1510.96 414.326 1487.69 418.025C1472.17 421.725 1448.91 429.123 1433.39 432.823C1425.64 436.522 1417.88 436.522 1410.13 440.221C1402.37 443.921 1394.61 443.921 1379.1 443.921C1363.59 443.921 1348.08 440.221 1332.56 436.522C1309.3 429.123 1301.54 421.725 1286.03 414.326C1270.52 403.228 1255 388.43 1239.49 373.633C1231.74 366.234 1223.98 362.535 1216.22 358.836C1200.71 351.437 1185.2 347.738 1169.69 347.738H1161.93C1130.91 347.738 1099.88 355.136 1068.86 366.234C1030.08 384.731 991.296 399.528 952.515 418.025C929.247 429.123 905.978 443.921 890.466 458.718C874.954 469.816 867.198 480.914 843.929 492.012C820.661 503.11 797.393 506.81 774.124 510.509C758.612 510.509 743.1 506.81 727.588 499.411C719.831 495.711 712.075 488.313 704.319 484.613C681.051 466.117 657.782 451.319 626.758 432.823C611.246 425.424 603.49 418.025 603.49 406.927C595.733 395.829 603.49 384.731 611.246 373.633C642.27 347.738 673.295 336.64 712.075 329.241C735.344 325.542 758.612 321.842 781.88 318.143C820.661 310.744 843.929 299.646 859.442 284.849C867.198 277.45 874.954 270.051 882.71 258.953C898.222 247.855 913.734 236.757 937.003 229.359C960.271 218.261 983.539 210.862 1006.81 196.064C1030.08 184.966 1045.59 173.868 1061.1 159.071C1076.61 151.672 1084.37 147.973 1092.13 147.973C1099.88 147.973 1107.64 151.672 1123.15 151.672C1146.42 159.071 1169.69 170.169 1185.2 181.267C1200.71 196.064 1216.22 207.163 1223.98 221.96C1231.74 233.058 1239.49 247.855 1239.49 258.953C1239.49 270.051 1239.49 281.149 1239.49 295.947C1239.49 303.345 1239.49 307.045 1247.25 314.444C1270.52 329.241 1286.03 336.64 1309.3 336.64C1317.05 336.64 1332.56 336.64 1340.32 336.64C1363.59 336.64 1386.86 332.94 1410.13 329.241C1433.39 321.842 1456.66 310.744 1472.18 299.646C1495.44 281.149 1503.2 262.653 1510.96 244.156C1510.96 233.058 1510.96 218.261 1526.47 207.163C1534.22 196.064 1541.98 188.666 1565.25 184.966C1573 184.966 1580.76 181.267 1580.76 181.267H1588.52C1596.27 181.267 1611.79 184.966 1611.79 188.666C1619.54 196.064 1619.54 203.463 1627.3 210.862C1635.05 225.659 1642.81 240.457 1658.32 255.254C1666.08 266.352 1681.59 277.45 1697.1 284.849C1720.37 295.947 1735.88 303.345 1759.15 314.444C1782.42 325.542 1797.93 332.94 1813.44 344.038C1836.71 358.836 1859.98 369.934 1883.25 381.032C1898.76 388.43 1914.27 392.13 1929.79 399.528L1937.54 403.228C1937.54 381.032 1937.54 355.136 1937.54 332.94C1929.79 325.542 1922.03 321.842 1906.52 318.143C1883.25 310.744 1859.98 303.345 1836.71 299.646C1805.69 299.646 1774.66 292.247 1751.4 281.149C1712.61 270.051 1689.35 255.254 1673.83 233.058C1673.83 225.659 1666.08 218.261 1666.08 214.561C1666.08 207.162 1666.08 199.764 1666.08 192.365C1673.83 177.568 1689.35 170.169 1712.61 162.77C1735.88 155.372 1751.4 155.372 1774.66 151.672C1805.69 147.973 1828.96 144.274 1859.98 136.875C1898.76 125.777 1914.27 110.98 1922.03 92.4828C1929.79 77.6854 1922.03 66.5874 1906.52 51.79C1898.76 44.3913 1883.25 36.9926 1867.74 33.2933C1852.22 29.5939 1828.96 25.8946 1813.44 25.8946C1805.69 25.8946 1790.18 22.1952 1782.42 22.1952C1766.91 18.4959 1759.15 14.7965 1751.4 11.0972L1743.64 7.39783C1720.37 7.39783 1704.86 7.39783 1681.59 7.39783C1673.83 7.39783 1673.83 11.0972 1673.83 14.7965C1673.83 22.1952 1666.08 25.8946 1666.08 33.2933C1666.08 36.9926 1658.32 40.6919 1642.81 44.3913C1635.05 40.6919 1619.54 40.6919 1604.03 40.6919C1580.76 40.6919 1565.25 40.6919 1541.98 44.3913C1534.22 44.3913 1526.47 44.3913 1518.71 44.3913C1487.69 44.3913 1456.66 40.6919 1425.64 29.5939C1410.13 22.1952 1402.37 14.7965 1394.61 7.39783C1394.61 7.39783 1394.61 3.69849 1386.86 3.69849C1363.59 3.69849 1340.32 3.69849 1324.81 3.69849V7.39783C1332.56 14.7965 1340.32 22.1952 1348.08 29.5939C1386.86 48.0906 1425.64 59.1887 1464.42 66.5874C1472.17 66.5874 1487.69 70.2867 1495.44 70.2867H1503.2C1510.96 70.2867 1518.71 70.2867 1526.47 70.2867C1534.22 70.2867 1549.74 70.2867 1557.49 70.2867C1573 70.2867 1588.52 73.9861 1596.27 77.6854C1596.27 81.3848 1604.03 81.3848 1604.03 85.0841C1611.79 103.581 1604.03 129.476 1565.25 144.274C1557.49 147.973 1541.98 151.672 1526.47 159.071C1495.44 170.169 1472.17 188.666 1464.42 207.163C1464.42 218.261 1464.42 225.659 1464.42 236.757C1464.42 247.855 1464.42 262.653 1456.66 273.751C1448.91 288.548 1433.39 299.646 1410.13 307.045C1394.61 310.744 1379.1 314.444 1363.59 314.444C1355.83 314.444 1355.83 314.444 1348.08 314.444C1324.81 310.744 1317.05 307.045 1309.3 295.947C1301.54 288.548 1301.54 281.149 1301.54 273.751C1301.54 251.555 1293.78 225.659 1286.03 203.463C1278.27 192.365 1278.27 181.267 1278.27 170.169C1278.27 151.672 1262.76 136.875 1239.49 122.078C1231.74 114.679 1216.22 110.98 1200.71 103.581C1185.2 96.1821 1169.69 85.0841 1169.69 73.9861C1161.93 62.888 1161.93 55.4893 1154.17 44.3913C1146.42 29.5939 1138.66 18.4959 1123.15 7.39783C1123.15 7.39783 1123.15 3.69849 1115.39 3.69849C1068.86 3.69849 1022.32 3.69849 983.539 3.69849Z" fill="#557571"/>
<path d="M-1.48776 340.339C21.7806 340.339 29.5367 344.038 45.049 344.038C99.3418 347.737 145.879 362.535 176.903 381.032C184.659 384.731 192.415 392.13 200.171 399.528C223.44 418.025 223.44 436.522 231.196 455.018C231.196 466.117 238.952 477.215 238.952 492.012C246.708 506.809 262.22 514.208 277.733 521.607C285.489 521.607 301.001 525.306 316.513 532.705C324.269 532.705 324.269 536.404 332.025 536.404C347.538 540.103 363.05 547.502 370.806 554.901V558.6H301.001C293.245 558.6 293.245 558.6 285.489 558.6H277.733C269.976 558.6 269.976 558.6 262.22 558.6C254.464 558.6 238.952 558.6 231.196 562.3C153.635 562.3 76.0734 562.3 -9.24388 562.3C-9.24388 558.6 -9.24388 551.201 -9.24388 547.502V540.103C-9.24388 540.103 -9.24388 540.103 -1.48776 540.103C6.26836 540.103 14.0245 540.103 14.0245 540.103H21.7806H29.5367C45.049 540.103 60.5612 540.103 76.0734 540.103C91.5857 540.103 114.854 536.404 138.122 532.705C153.635 529.005 169.147 521.607 169.147 514.208C176.903 503.11 176.903 492.012 176.903 480.914C176.903 469.816 176.903 458.718 176.903 447.62C176.903 429.123 169.147 418.025 153.635 403.228C145.878 384.731 122.61 373.633 83.8296 366.234C68.3173 362.535 45.049 362.535 37.2928 362.535C29.5367 362.535 21.7806 362.535 14.0245 362.535H6.26836C6.26836 362.535 6.26836 362.535 -1.48776 362.535V340.339ZM-1.48776 336.639C-1.48776 336.639 -9.24388 336.639 -1.48776 336.639C-9.24388 347.737 -9.24388 355.136 -9.24388 362.535H-1.48776H6.26836C14.0245 362.535 29.5367 362.535 37.2928 362.535C52.8051 362.535 68.3173 362.535 91.5857 366.234C130.366 373.633 153.635 384.731 169.147 399.528C184.659 414.326 192.415 425.424 192.415 443.92C192.415 455.018 192.415 466.117 192.415 477.215C192.415 488.313 192.415 499.411 184.659 510.509C176.903 517.907 169.147 521.607 145.879 525.306C122.61 529.005 107.098 529.005 83.8296 529.005C68.3173 529.005 52.8051 529.005 37.2928 529.005C29.5367 529.005 21.7806 529.005 14.0245 529.005C6.26836 529.005 -1.48776 529.005 -1.48776 529.005C-1.48776 529.005 -1.48776 529.005 -9.24388 529.005H-17C-17 536.404 -17 543.803 -17 551.202C-9.24388 558.6 -9.24388 558.6 -1.48776 558.6C76.0734 558.6 153.635 558.6 238.952 558.6C246.708 554.901 254.464 554.901 269.976 554.901C277.733 554.901 277.733 554.901 285.489 554.901C285.489 558.6 293.245 558.6 301.001 558.6C324.269 558.6 347.538 558.6 378.562 558.6C378.562 554.901 378.562 554.901 378.562 554.901C363.05 547.502 355.294 540.103 339.781 536.404C324.269 529.005 301.001 525.306 285.489 517.907C269.976 510.509 254.464 499.411 246.708 488.313C238.952 477.215 238.952 466.117 238.952 451.319C238.952 432.822 231.196 414.326 207.927 395.829C200.171 388.43 192.415 384.731 184.659 377.332C153.635 355.136 107.098 344.038 52.8051 340.339C29.5367 340.339 14.0245 340.339 -1.48776 336.639Z" fill="#557571"/>
<path d="M409.588 3.69849H440.613C440.613 3.69849 440.613 7.39783 448.369 7.39783C456.125 18.4959 463.881 29.5939 479.393 40.692C487.15 48.0906 494.906 51.79 502.662 59.1887C494.906 70.2867 510.418 77.6854 518.174 88.7835C533.686 99.8815 541.442 110.98 564.711 122.078C587.979 133.176 611.247 136.875 642.272 136.875H650.028C673.296 136.875 688.809 129.476 704.321 122.078C719.833 110.98 727.589 96.1822 735.345 85.0841C735.345 73.9861 743.101 66.5874 743.101 55.4893V51.79C743.101 36.9926 750.858 22.1952 750.858 11.0972V7.39783V3.69849H820.663C820.663 11.0972 812.907 18.4959 805.15 25.8946C789.638 40.692 774.126 59.1887 766.37 77.6854V81.3848C758.614 92.4828 758.614 107.28 750.858 118.378C743.102 129.476 735.345 136.875 727.589 140.574C712.077 151.672 688.809 155.372 657.784 155.372C650.028 155.372 642.272 155.372 634.516 155.372C595.735 151.672 556.955 136.875 525.93 118.378C510.418 107.28 494.906 96.1822 479.393 85.0841C479.393 81.3848 471.637 77.6854 463.881 73.9861C448.369 62.888 432.857 48.0906 425.101 36.9926C417.344 22.1952 409.588 14.7965 409.588 3.69849ZM401.832 3.69849C401.832 14.7965 409.588 25.8946 417.344 36.9926C432.857 51.79 456.125 70.2867 479.393 85.0841C494.906 96.1822 502.662 107.28 518.174 118.378C549.199 136.875 587.979 151.672 642.272 155.372C650.028 155.372 657.784 155.372 665.54 155.372C688.809 155.372 712.077 151.672 727.589 140.574C735.345 133.176 743.102 125.777 750.858 118.378C758.614 107.28 766.37 92.4828 766.37 81.3848C774.126 62.888 781.882 44.3913 805.15 29.5939C812.907 22.1952 820.663 14.7965 820.663 7.39783C797.394 7.39783 774.126 7.39783 750.858 7.39783L743.101 11.0972C743.101 22.1952 735.345 36.9926 735.345 51.79C735.345 62.888 735.345 73.9861 727.589 85.0841C719.833 99.8815 719.833 110.98 696.565 122.078C688.809 129.476 665.54 133.176 642.272 133.176H634.516C611.247 133.176 587.979 129.476 564.711 118.378C549.199 110.98 533.686 99.8815 518.174 88.7835C502.662 73.9861 487.15 59.1887 471.637 40.692C456.125 33.2933 448.369 22.1952 440.613 7.39783C440.613 3.69849 440.613 3.69849 432.857 3.69849C425.101 3.69849 409.588 3.69849 401.832 3.69849Z" fill="#557571"/>
<path d="M114.852 3.69849H207.926C207.926 7.39783 200.17 14.7965 200.17 18.4959C184.657 36.9926 161.389 48.0907 122.608 59.1887C99.34 70.2867 76.0716 70.2867 60.5594 70.2867C52.8033 70.2867 45.0472 70.2867 37.291 70.2867L6.26655 66.5874H-9.24568V18.4959H-1.48956H6.26655C6.26655 18.4959 6.26655 18.4959 14.0227 18.4959H21.7788C29.5349 18.4959 37.291 18.4959 45.0471 18.4959C52.8033 18.4959 52.8033 18.4959 60.5594 18.4959C83.8277 18.4959 99.34 14.7965 114.852 3.69849C107.096 7.39783 114.852 7.39783 114.852 3.69849ZM114.852 3.69849C114.852 3.69849 107.096 3.69849 107.096 7.39783C91.5839 14.7965 76.0716 14.7965 60.5594 14.7965C52.8033 14.7965 52.8033 14.7965 45.0471 14.7965C37.291 14.7965 21.7788 14.7965 14.0227 14.7965H6.26655C6.26655 14.7965 -1.48956 14.7965 -1.48956 18.4959C-1.48956 36.9926 -1.48956 51.79 -1.48956 70.2867C14.0227 70.2867 29.5349 73.9861 45.0471 73.9861C52.8033 73.9861 60.5594 73.9861 68.3155 73.9861C91.5839 73.9861 114.852 70.2867 138.121 62.888C169.145 51.79 192.413 36.9926 215.682 18.4959C200.17 14.7965 207.926 11.0972 207.926 3.69849C176.901 3.69849 145.877 3.69849 114.852 3.69849Z" fill="#557571"/>
<path d="M1929.78 462.419V510.51V514.21C1922.03 517.909 1906.52 521.609 1898.76 525.308C1883.25 529.007 1859.98 532.707 1844.47 536.406C1836.71 536.406 1836.71 540.105 1828.95 540.105C1813.44 543.805 1797.93 543.805 1790.17 551.203C1782.42 554.903 1782.42 554.903 1774.66 554.903H1697.1C1697.1 540.105 1712.61 529.007 1743.64 525.308C1751.39 525.308 1766.91 521.609 1774.66 521.609C1782.42 521.609 1797.93 517.909 1805.69 517.909C1828.95 514.21 1852.22 506.811 1867.74 499.412C1875.49 495.713 1891 488.314 1898.76 480.916L1906.52 477.216L1914.27 473.517C1922.03 469.818 1922.03 466.118 1929.78 462.419ZM1929.78 458.72C1922.03 462.419 1914.27 469.818 1906.52 473.517C1898.76 480.916 1883.25 488.314 1875.49 495.713C1859.98 503.112 1836.71 510.511 1813.44 514.21C1790.17 517.909 1774.66 521.609 1751.39 525.308C1712.61 529.007 1697.1 543.805 1697.1 558.602C1720.37 558.602 1743.64 558.602 1766.91 558.602C1774.66 558.602 1774.66 554.903 1782.42 554.903C1790.17 551.203 1805.69 547.504 1821.2 543.805C1844.47 540.105 1867.74 536.406 1891 529.007C1906.52 525.308 1914.27 521.609 1929.78 517.909L1937.54 514.21C1929.78 495.713 1929.78 477.216 1929.78 458.72Z" fill="#557571"/>
<path d="M207.926 3.69935H269.975V7.39869C262.218 22.1961 246.706 33.2941 231.194 44.3921C223.438 51.7908 215.682 51.7908 215.682 55.4902C200.17 62.8889 192.413 70.2876 184.657 77.6862C176.901 81.3856 169.145 88.7843 169.145 96.183C169.145 103.582 169.145 107.281 176.901 110.98C184.657 114.68 192.413 114.68 200.17 114.68C215.682 118.379 238.95 118.379 254.462 118.379H262.218H269.975C285.487 118.379 300.999 118.379 316.511 122.078C355.292 125.778 386.316 136.876 401.829 155.372C417.341 173.869 432.853 196.065 440.609 221.961C448.365 240.457 448.365 255.255 440.609 270.052C432.853 277.451 425.097 288.549 425.097 295.948C425.097 314.444 432.853 329.242 448.365 344.039C463.878 351.438 479.39 355.137 494.902 355.137C510.414 355.137 518.17 351.438 533.683 347.738C541.439 344.039 549.195 340.34 564.707 332.941C587.976 325.542 595.732 318.144 611.244 310.745C634.512 303.346 650.025 299.647 673.293 295.948H681.049H688.805C704.317 292.248 719.83 288.549 735.342 281.15C758.61 273.752 766.366 262.654 766.366 247.856C766.366 236.758 758.61 225.66 750.854 210.863C727.586 196.065 712.073 184.967 681.049 181.268C665.537 181.268 650.024 177.569 626.756 173.869C572.463 162.771 518.17 144.274 479.39 122.078C440.609 99.8823 409.585 70.2876 378.56 33.2941C370.804 25.8954 363.048 18.4967 355.292 11.098V7.39869H401.829V11.098C409.585 25.8954 417.341 40.6928 432.853 55.4902C456.121 66.5882 471.634 81.3856 487.146 92.4836L494.902 99.8823C510.414 114.68 525.927 125.778 549.195 133.176C587.976 147.974 619 155.372 657.781 155.372C657.781 155.372 657.781 155.372 665.537 155.372C712.073 155.372 735.342 144.274 750.854 125.778C758.61 114.68 758.61 99.8823 766.366 85.0849C774.122 70.2876 781.878 51.7908 797.391 33.2941C805.147 25.8954 812.903 14.7974 820.659 7.39869H968.025C960.269 11.098 960.269 11.098 952.513 14.7974L944.757 18.4967C937.001 22.1961 929.245 25.8954 921.489 29.5948C913.733 36.9935 905.976 44.3921 905.976 51.7908C905.976 59.1895 913.733 66.5882 921.489 77.6862C929.245 85.0849 929.245 88.7843 937.001 96.183C944.757 103.582 952.513 110.98 952.513 118.379C960.269 129.477 968.025 144.274 968.025 159.072C968.025 177.569 937.001 196.065 905.976 199.765C898.22 199.765 890.464 199.765 874.952 199.765C867.196 199.765 867.196 199.765 859.44 199.765C836.171 199.765 820.659 203.464 820.659 218.261C820.659 221.961 820.659 229.359 820.659 233.059C820.659 236.758 820.659 240.457 820.659 244.157C820.659 251.555 812.903 262.654 805.147 270.052C797.391 281.15 774.122 292.248 743.098 299.647C743.098 299.647 735.342 299.647 719.83 303.346C704.317 307.046 681.049 310.745 657.781 318.144C634.512 321.843 619 332.941 603.488 340.34C595.732 347.738 587.976 351.438 580.219 358.837C572.463 366.235 564.707 369.935 556.951 377.333C541.439 384.732 533.683 388.431 518.17 388.431C510.414 388.431 502.658 388.431 494.902 384.732C471.634 381.033 448.365 373.634 432.853 362.536C401.829 344.039 386.316 318.144 394.073 288.549C394.073 281.15 401.829 273.752 401.829 266.353C401.829 262.654 401.829 262.654 409.585 258.954C409.585 244.157 409.585 233.059 409.585 225.66C401.829 199.765 394.073 181.268 370.804 162.771C355.292 151.673 339.78 144.274 308.755 140.575C293.243 136.876 277.731 136.876 262.218 136.876C254.462 136.876 246.706 136.876 238.95 136.876C200.17 140.575 161.389 144.274 122.608 155.372C83.8278 162.771 37.291 170.17 -1.48956 170.17V70.2876C6.26656 70.2876 6.26656 70.2876 14.0227 70.2876C21.7788 70.2876 21.7788 70.2876 29.5349 70.2876C37.291 70.2876 52.8033 70.2876 60.5594 70.2876C76.0716 70.2876 91.5839 70.2876 99.34 66.5882C122.608 62.8889 145.877 55.4902 161.389 44.3921C184.657 33.2941 200.17 22.1961 207.926 3.69935C207.926 7.39869 207.926 7.39869 207.926 3.69935ZM207.926 3.69935C207.926 3.69935 207.926 7.39869 207.926 3.69935C192.413 22.1961 184.657 33.2941 161.389 44.3921C145.877 55.4902 122.608 62.8889 99.34 66.5882C83.8277 70.2876 68.3155 70.2876 60.5594 70.2876C52.8033 70.2876 45.0472 70.2876 29.5349 70.2876C21.7788 70.2876 6.26656 66.5882 -1.48956 66.5882H-9.24568C-9.24568 99.8823 -9.24568 133.176 -9.24568 170.17C-9.24568 170.17 -9.24568 170.17 -1.48956 170.17C45.0472 170.17 83.8277 166.471 130.364 155.372C169.145 147.974 200.17 140.575 246.706 136.876C254.462 136.876 262.218 136.876 269.975 136.876C285.487 136.876 300.999 136.876 324.267 140.575C339.78 144.274 355.292 151.673 370.804 162.771C394.073 181.268 401.829 199.765 409.585 221.961C409.585 233.059 409.585 244.157 401.829 255.255C394.073 266.353 394.073 277.451 386.316 288.549C378.56 318.144 386.316 344.039 425.097 362.536C440.609 373.634 463.878 381.033 487.146 384.732C494.902 384.732 502.658 388.431 510.414 388.431C525.927 388.431 541.439 384.732 549.195 377.333C564.707 366.235 580.219 355.137 595.732 344.039C611.244 332.941 626.756 325.542 650.024 318.144C688.805 310.745 719.83 303.346 750.854 299.647C781.879 292.248 805.147 284.85 812.903 270.052C820.659 262.654 820.659 251.555 828.415 244.157C828.415 233.059 828.415 225.66 828.415 214.562C836.171 199.765 843.927 199.765 867.196 196.065C882.708 196.065 898.22 196.065 905.976 196.065C944.757 192.366 975.781 173.869 975.781 151.673C975.781 136.876 968.025 125.778 960.269 110.98C952.513 96.183 937.001 85.0849 929.245 70.2876C921.489 62.8889 921.489 55.4902 913.733 44.3921C913.733 36.9935 921.489 29.5948 929.245 22.1961C937.001 14.7974 952.513 11.098 960.269 7.39869C968.025 3.69935 975.781 3.69935 975.781 0C921.489 0 867.196 0 820.659 0C820.659 0 812.903 0 812.903 3.69935C805.147 14.7974 797.391 22.1961 789.635 33.2941C774.122 48.0915 766.366 66.5882 758.61 85.0849C758.61 99.8823 750.854 114.68 743.098 125.778C727.586 144.274 704.317 151.673 657.781 155.372C657.781 155.372 657.781 155.372 650.024 155.372C611.244 155.372 580.219 147.974 549.195 133.176C525.927 122.078 510.414 110.98 494.902 96.183C479.39 81.3856 456.122 66.5882 440.609 51.7908C425.097 36.9935 417.341 25.8954 409.585 7.39869C409.585 3.69935 409.585 3.69935 401.829 3.69935C386.316 3.69935 370.804 3.69935 355.292 3.69935C355.292 7.39869 355.292 7.39869 355.292 11.098C363.048 18.4967 363.048 25.8954 370.804 33.2941C401.829 66.5882 432.853 96.183 479.39 122.078C518.17 147.974 564.707 162.771 626.756 173.869C642.268 177.569 665.537 181.268 681.049 181.268C712.073 188.667 727.586 196.065 735.342 210.863C743.098 221.961 750.854 233.059 750.854 247.856C750.854 258.954 743.098 270.052 719.83 277.451C712.073 281.15 688.805 288.549 673.293 292.248C650.025 295.948 634.512 303.346 611.244 310.745C595.732 318.144 580.219 325.542 564.707 332.941C556.951 336.64 549.195 344.039 533.683 347.738C525.927 351.438 510.414 355.137 502.658 355.137C487.146 355.137 463.878 347.738 456.122 340.34C432.853 329.242 425.097 314.444 432.853 295.948C432.853 288.549 440.609 277.451 440.609 270.052C448.365 255.255 448.365 236.758 440.609 221.961C432.853 199.765 417.341 177.569 401.829 155.372C386.316 136.876 355.292 125.778 316.511 122.078C300.999 118.379 277.731 118.379 262.218 118.379C238.95 118.379 223.438 118.379 200.17 114.68C192.413 114.68 184.657 110.98 176.901 110.98C169.145 107.281 169.145 99.8823 169.145 96.183C169.145 88.7843 176.901 85.0849 184.657 77.6862C200.17 66.5882 215.682 59.1895 231.194 48.0915C246.706 36.9935 262.218 25.8954 269.975 11.098C269.975 7.39869 269.975 7.39869 269.975 3.69935C254.462 3.69935 231.194 3.69935 207.926 3.69935Z" fill="#557571"/>
<path d="M1123.15 3.69849H1185.2L1192.95 7.39783C1200.71 14.7965 1208.46 22.1952 1223.98 29.5939C1231.73 33.2932 1231.73 33.2932 1239.49 33.2932C1239.49 33.2932 1239.49 33.2932 1247.25 33.2932C1255 33.2932 1255 29.5939 1255 25.8946C1255 22.1952 1255 18.4959 1255 14.7965C1255 11.0972 1255 11.0972 1255 7.39783V3.69849H1332.56C1332.56 11.0972 1340.32 14.7965 1355.83 22.1952C1371.34 33.2932 1386.86 40.6919 1417.88 51.79C1441.15 59.1887 1472.17 62.888 1495.44 66.5874C1503.2 66.5874 1518.71 66.5874 1526.47 66.5874C1534.22 66.5874 1534.22 66.5874 1541.98 66.5874C1549.73 66.5874 1549.73 66.5874 1557.49 66.5874H1565.25C1580.76 66.5874 1588.51 66.5873 1596.27 70.2867C1611.78 73.986 1627.3 77.6854 1627.3 88.7834C1627.3 96.1821 1627.3 99.8815 1627.3 107.28C1627.3 122.078 1611.78 133.176 1588.51 140.574C1580.76 144.274 1573 147.973 1565.25 151.672C1549.73 151.672 1541.98 151.672 1534.22 155.372C1495.44 166.47 1472.17 184.966 1464.42 207.162C1464.42 214.561 1464.42 225.659 1464.42 236.757C1464.42 240.457 1464.42 244.156 1464.42 247.855C1464.42 262.653 1456.66 277.45 1441.15 288.548C1425.64 307.045 1402.37 314.443 1371.34 318.143H1363.59C1340.32 318.143 1317.05 310.744 1309.29 299.646C1301.54 288.548 1301.54 277.45 1301.54 270.051V262.653C1301.54 255.254 1301.54 244.156 1293.78 233.058C1286.03 214.561 1278.27 188.666 1278.27 166.47C1278.27 147.973 1262.76 133.176 1231.73 122.078C1223.98 114.679 1216.22 114.679 1216.22 110.979C1208.46 107.28 1200.71 103.581 1192.95 99.8815C1185.2 96.1821 1177.44 88.7834 1169.68 81.3847C1161.93 77.6854 1161.93 66.5874 1154.17 59.1887C1146.42 44.3913 1138.66 29.5939 1123.15 14.7965C1123.15 11.0972 1123.15 7.39783 1123.15 3.69849ZM1115.39 3.69849C1130.9 22.1952 1146.42 40.6919 1154.17 59.1887C1154.17 66.5874 1161.93 77.6854 1169.68 85.0841C1177.44 92.4828 1185.2 96.1821 1192.95 103.581C1200.71 110.979 1216.22 114.679 1223.98 118.378C1247.25 129.476 1262.76 144.274 1262.76 162.77C1270.51 184.966 1270.51 207.162 1278.27 229.359C1286.03 240.457 1286.03 251.555 1286.03 262.653C1286.03 273.751 1286.03 281.149 1293.78 292.247C1301.54 303.345 1324.81 314.443 1355.83 314.443H1363.59C1402.37 310.744 1417.88 299.646 1433.39 284.849C1456.66 273.751 1464.42 258.953 1464.42 247.855C1464.42 233.058 1464.42 221.96 1472.17 207.162C1479.93 184.966 1503.2 170.169 1541.98 155.372C1557.49 151.672 1573 144.274 1580.76 140.574C1604.03 133.176 1619.54 122.078 1619.54 107.28C1619.54 99.8815 1619.54 92.4828 1619.54 88.7834C1619.54 77.6854 1604.03 73.986 1588.51 70.2867C1580.76 70.2867 1565.25 66.5874 1549.73 66.5874H1541.98C1534.22 66.5874 1526.47 66.5874 1518.71 66.5874C1510.95 66.5874 1503.2 66.5874 1495.44 66.5874C1464.42 66.5874 1441.15 59.1887 1417.88 51.79C1394.61 44.3913 1371.34 36.9926 1355.83 25.8946C1348.08 18.4959 1340.32 14.7965 1332.56 7.39783C1309.29 7.39783 1278.27 7.39783 1255 7.39783V11.0972C1255 18.4959 1255 22.1952 1255 29.5939C1255 33.2932 1255 36.9926 1247.25 36.9926C1239.49 36.9926 1239.49 36.9926 1231.73 33.2932C1216.22 25.8946 1208.46 22.1952 1200.71 11.0972C1200.71 7.39783 1200.71 7.39783 1192.95 3.69849C1161.93 3.69849 1138.66 3.69849 1115.39 3.69849Z" fill="#557571"/>
<path d="M1154.17 381.032C1169.69 381.032 1177.44 381.032 1192.95 388.43C1200.71 392.13 1208.47 395.829 1223.98 403.228C1239.49 414.326 1255 429.123 1262.76 443.921V447.62C1270.52 458.718 1286.03 473.515 1301.54 484.613C1309.3 492.012 1309.3 499.411 1309.3 506.809C1301.54 517.907 1301.54 532.705 1301.54 543.803V547.502V551.202H1208.47L1200.71 547.502C1200.71 547.502 1200.71 547.502 1200.71 543.803C1192.95 536.404 1185.2 529.005 1177.44 521.607C1161.93 499.411 1154.17 477.215 1161.93 451.319V447.62C1161.93 440.221 1161.93 432.823 1161.93 425.424C1161.93 414.326 1138.66 406.927 1123.15 406.927H1115.39C1092.13 406.927 1068.86 414.326 1045.59 421.725C1030.08 425.424 1022.32 429.123 1006.81 436.522C991.296 447.62 975.783 458.718 968.027 473.515C952.515 499.411 937.003 521.607 929.247 543.803C929.247 547.502 929.247 547.502 929.247 547.502H836.173C836.173 540.103 843.929 532.705 851.685 529.005C859.442 521.607 867.198 517.907 874.954 514.208C890.466 503.11 905.978 495.711 913.734 484.613C921.49 477.215 929.247 469.816 937.003 462.417C944.759 458.718 944.759 451.319 952.515 447.62C968.027 436.522 983.539 425.424 1006.81 414.326C1037.83 403.228 1068.86 392.13 1099.88 381.032C1115.39 377.332 1123.15 373.633 1138.66 373.633C1146.42 381.032 1146.42 381.032 1154.17 381.032ZM1154.17 381.032C1146.42 381.032 1138.66 381.032 1138.66 381.032C1123.15 381.032 1115.39 384.731 1099.88 388.43C1068.86 399.528 1037.83 410.626 1006.81 421.725C983.539 432.823 968.027 440.221 952.515 455.019C937.003 466.117 929.247 480.914 913.734 492.012C905.978 503.11 890.466 510.509 874.954 521.607C867.198 525.306 859.442 532.705 851.685 536.404C843.929 543.803 836.173 551.202 836.173 558.6C867.198 558.6 905.978 558.6 937.003 558.6C944.759 558.6 944.759 554.901 944.759 551.202C952.515 529.005 968.027 503.11 983.539 480.914C991.296 469.816 1006.81 455.019 1022.32 447.62C1030.08 440.221 1045.59 436.522 1061.1 432.823C1084.37 425.424 1107.64 421.725 1130.91 421.725C1130.91 421.725 1130.91 421.725 1138.66 421.725C1154.17 421.725 1169.69 429.123 1177.44 436.522C1177.44 443.921 1177.44 451.319 1177.44 462.417C1169.69 484.613 1177.44 510.509 1192.95 532.705C1200.71 540.104 1208.47 547.502 1216.22 554.901C1216.22 558.6 1223.98 562.3 1231.74 562.3C1262.76 562.3 1293.78 562.3 1324.81 562.3C1324.81 558.6 1324.81 554.901 1324.81 551.202C1324.81 540.104 1324.81 525.306 1332.56 514.208C1332.56 506.809 1332.56 499.411 1324.81 492.012C1309.3 480.914 1301.54 466.117 1286.03 451.319C1270.52 436.522 1262.76 418.025 1239.49 406.927C1231.74 399.528 1223.98 395.829 1208.47 392.13C1177.44 381.032 1169.69 381.032 1154.17 381.032Z" fill="#557571"/>
<path d="M1922.03 3.69849C1929.79 3.69849 1929.79 3.69849 1922.03 3.69849C1929.79 3.69849 1929.79 7.39783 1922.03 3.69849C1922.03 48.0906 1922.03 88.7834 1922.03 129.476V173.868C1914.28 173.868 1914.28 173.868 1906.52 170.169C1898.76 170.169 1891.01 166.47 1891.01 166.47C1875.49 162.77 1852.23 162.77 1836.71 162.77C1805.69 162.77 1782.42 166.47 1751.4 170.169C1712.62 177.568 1697.1 192.365 1697.1 210.862C1697.1 225.659 1712.62 240.457 1735.88 251.555C1759.15 262.653 1790.18 266.352 1828.96 266.352C1836.71 266.352 1844.47 266.352 1852.23 266.352C1867.74 266.352 1883.25 262.653 1898.76 262.653C1906.52 262.653 1906.52 262.653 1914.28 262.653V332.94L1906.52 329.241L1898.76 325.542C1883.25 318.143 1867.74 314.444 1844.47 307.045C1828.96 303.346 1821.2 299.646 1805.69 295.947C1790.18 292.247 1766.91 288.548 1751.4 281.149C1720.37 273.751 1697.1 262.653 1681.59 251.555C1658.32 233.058 1650.57 210.862 1658.32 184.966C1666.08 170.169 1681.59 159.071 1712.62 155.372C1728.13 151.672 1743.64 151.672 1759.15 147.973C1766.91 147.973 1766.91 147.973 1774.67 147.973C1813.45 144.274 1836.71 136.875 1859.98 133.176C1875.49 129.476 1883.25 125.777 1891.01 118.378C1914.28 99.8815 1922.03 81.3848 1914.28 62.888C1906.52 48.0906 1891.01 36.9926 1867.74 33.2933C1852.23 29.5939 1844.47 29.5939 1836.71 25.8946C1828.96 25.8946 1828.96 25.8946 1821.2 25.8946C1805.69 25.8946 1790.18 22.1952 1774.67 18.4959C1759.15 14.7965 1751.4 11.0972 1743.64 3.69849H1782.42H1828.96C1859.98 3.69849 1891.01 3.69849 1922.03 3.69849ZM1922.03 3.69849C1891.01 3.69849 1859.98 3.69849 1828.96 3.69849C1797.93 3.69849 1766.91 3.69849 1735.88 3.69849C1743.64 11.0972 1751.4 18.4959 1766.91 22.1952C1782.42 25.8946 1805.69 29.5939 1828.96 29.5939C1836.71 29.5939 1852.23 33.2933 1859.98 36.9926C1883.25 40.6919 1898.76 51.79 1906.52 66.5874C1914.28 85.0841 1906.52 103.581 1883.25 122.078C1875.49 129.476 1859.98 133.176 1852.23 136.875C1828.96 144.274 1797.93 147.973 1766.91 151.672C1743.64 155.372 1728.13 155.372 1704.86 159.071C1673.84 166.47 1658.32 173.868 1650.57 192.365C1642.81 218.261 1650.57 240.457 1673.84 258.953C1689.35 273.751 1720.37 281.149 1751.4 288.548C1782.42 295.947 1813.45 303.346 1844.47 310.744C1859.98 314.444 1883.25 321.842 1898.76 325.542C1914.28 332.94 1922.03 336.64 1929.79 336.64C1929.79 310.744 1929.79 288.548 1929.79 262.653C1929.79 262.653 1929.79 262.653 1922.03 262.653C1922.03 262.653 1922.03 262.653 1914.28 262.653C1891.01 266.352 1875.49 266.352 1852.23 270.051C1844.47 270.051 1836.71 270.051 1828.96 270.051C1797.93 270.051 1766.91 266.352 1735.88 255.254C1712.62 244.156 1697.1 233.058 1697.1 214.561C1697.1 196.064 1712.62 181.267 1751.4 173.868C1774.67 170.169 1805.69 166.47 1836.71 166.47C1852.23 166.47 1867.74 166.47 1891.01 170.169C1898.76 170.169 1914.28 173.868 1922.03 173.868C1922.03 173.868 1922.03 173.868 1929.79 173.868C1929.79 173.868 1929.79 173.868 1937.54 173.868C1929.79 118.378 1929.79 62.888 1922.03 3.69849C1929.79 3.69849 1929.79 3.69849 1922.03 3.69849Z" fill="#557571"/>
<path d="M29.5349 362.538C37.291 362.538 37.291 362.538 45.0472 362.538C68.3155 366.237 91.5839 366.237 107.096 373.636C153.633 388.433 184.657 410.629 192.413 443.923C192.413 455.021 192.413 462.42 192.413 473.518C192.413 477.217 192.413 480.917 192.413 484.616C192.413 492.015 192.413 499.414 192.413 506.812C192.413 514.211 184.657 521.61 176.901 525.309C169.145 529.008 161.389 532.708 145.877 532.708C122.608 536.407 91.5839 536.407 60.5594 536.407H45.0472H29.5349C21.7788 536.407 6.26656 536.407 -9.24568 536.407V514.211C-9.24568 514.211 -9.24568 514.211 -1.48956 514.211C6.26656 514.211 21.7788 514.211 29.5349 514.211H37.291C60.5594 514.211 76.0716 510.512 91.5839 510.512C114.852 506.812 130.364 499.414 145.877 484.616C153.633 473.518 161.389 462.42 161.389 443.923C161.389 432.825 153.633 421.727 145.877 414.329C122.608 395.832 99.34 388.433 60.5594 388.433C45.0472 388.433 37.291 388.433 21.7788 392.132C14.0227 392.132 14.0227 392.132 6.26656 392.132V366.237C6.26656 366.237 14.0227 362.538 29.5349 362.538ZM29.5349 362.538C14.0227 362.538 6.26656 362.538 -9.24568 362.538C-9.24568 369.936 -9.24568 377.335 -9.24568 384.734H-1.48956C14.0227 384.734 29.5349 381.034 52.8033 381.034C91.5839 381.034 114.852 388.433 138.121 406.93C145.877 414.329 153.633 425.427 153.633 436.525C153.633 451.322 153.633 462.42 138.121 473.518C130.364 484.616 114.852 492.015 91.5839 495.714C76.0716 499.414 60.5594 499.414 37.291 499.414C29.5349 499.414 14.0227 499.414 6.26656 499.414H-1.48956C-1.48956 506.812 -1.48956 517.91 -1.48956 525.309C14.0227 525.309 21.7788 525.309 37.291 525.309C45.0472 525.309 52.8033 525.309 60.5594 525.309C91.5839 525.309 114.852 525.309 145.877 521.61C153.633 521.61 169.145 517.91 176.901 514.211C192.413 506.812 192.413 499.414 192.413 492.015C192.413 480.917 192.413 469.819 200.17 462.42C200.17 451.322 200.17 443.923 200.17 432.825C184.657 410.629 161.389 384.734 107.096 369.936C91.5839 366.237 68.3155 362.538 45.0472 362.538C45.0472 362.538 37.291 362.538 29.5349 362.538Z" fill="#557571"/>
<path d="M1929.79 514.211V521.61C1929.79 532.708 1929.79 543.806 1929.79 554.904H1774.67C1782.42 551.204 1782.42 551.204 1790.18 547.505C1797.93 543.806 1813.45 543.806 1821.2 540.106H1828.96C1836.71 540.106 1836.71 540.106 1844.47 536.407C1852.23 532.708 1867.74 532.708 1875.49 529.008C1891.01 529.008 1906.52 521.61 1929.79 514.211ZM1929.79 510.511C1914.28 517.91 1891.01 525.309 1867.74 529.008C1852.23 532.708 1836.71 536.407 1821.2 536.407C1805.69 540.106 1797.93 540.106 1782.42 543.806C1774.67 547.505 1766.91 551.204 1759.15 554.904C1813.45 554.904 1867.74 554.904 1922.03 554.904C1929.79 554.904 1929.79 554.904 1929.79 551.204C1929.79 540.106 1929.79 525.309 1929.79 510.511Z" fill="#557571"/>
<path d="M262.221 551.203C269.977 551.203 277.733 554.903 285.49 554.903H238.953C238.953 554.903 246.709 554.903 246.709 551.203C254.465 554.903 254.465 554.903 262.221 551.203ZM262.221 551.203C254.465 551.203 254.465 551.203 246.709 551.203C238.953 551.203 238.953 554.903 231.197 554.903C254.465 554.903 277.733 554.903 301.002 554.903C285.49 554.903 277.733 551.203 262.221 551.203Z" fill="#557571"/>
<path d="M1565.25 432.822C1588.51 432.822 1604.03 436.521 1611.78 447.619C1627.3 455.018 1627.3 477.214 1596.27 488.312C1580.76 495.711 1565.25 495.711 1541.98 495.711C1518.71 495.711 1495.44 492.011 1479.93 488.312C1472.17 484.613 1464.42 480.913 1464.42 477.214C1464.42 473.515 1464.42 466.116 1472.17 462.417C1479.93 458.717 1479.93 455.018 1487.69 451.319C1510.95 440.22 1526.47 432.822 1557.49 432.822C1557.49 432.822 1557.49 432.822 1565.25 432.822ZM1565.25 432.822H1557.49C1526.47 432.822 1503.2 443.92 1487.69 451.319C1479.93 455.018 1479.93 458.717 1472.17 462.417C1464.42 466.116 1464.42 473.515 1464.42 477.214C1464.42 480.913 1472.17 484.613 1479.93 488.312C1495.44 492.011 1518.71 495.711 1541.98 495.711C1557.49 495.711 1580.76 495.711 1596.27 488.312C1627.3 477.214 1627.3 455.018 1611.78 447.619C1596.27 436.521 1580.76 432.822 1565.25 432.822Z" fill="#557571"/>
<path d="M1107.64 147.974H1115.39C1146.42 151.673 1161.93 159.072 1177.44 170.17C1192.96 177.569 1200.71 188.667 1208.47 199.765L1216.22 203.464C1239.49 225.66 1247.25 251.556 1247.25 277.451C1247.25 288.549 1247.25 299.647 1255 310.745C1262.76 325.543 1278.27 332.941 1309.3 336.641C1317.05 336.641 1332.57 336.641 1340.32 336.641C1355.83 336.641 1363.59 336.641 1379.1 332.941C1417.88 329.242 1448.91 314.444 1479.93 292.248C1503.2 270.052 1510.96 247.856 1510.96 229.359C1510.96 214.562 1518.71 207.163 1526.47 196.065C1534.22 184.967 1549.74 181.268 1573.01 177.569H1580.76C1596.27 177.569 1604.03 181.268 1604.03 188.667C1611.79 196.065 1611.79 203.464 1619.54 210.863C1619.54 214.562 1619.54 214.562 1619.54 218.261C1627.3 240.458 1642.81 258.954 1673.84 277.451C1689.35 288.549 1712.62 299.647 1735.88 310.745L1743.64 314.444C1759.15 321.843 1782.42 332.941 1797.93 344.039C1805.69 347.739 1805.69 347.739 1813.45 351.438C1828.96 358.837 1836.71 366.235 1852.23 373.634C1875.49 388.431 1906.52 399.529 1929.79 410.627V462.418C1929.79 462.418 1929.79 462.418 1929.79 466.118V469.817L1922.03 473.516C1914.27 477.216 1906.52 480.915 1906.52 488.314C1883.25 503.111 1852.23 514.209 1821.2 521.608C1813.45 521.608 1805.69 525.307 1790.18 525.307C1782.42 525.307 1774.66 529.007 1766.91 529.007C1735.88 532.706 1720.37 543.804 1712.62 558.601V562.301H1650.57C1650.57 562.301 1642.81 562.301 1642.81 558.601C1635.05 551.203 1627.3 547.503 1611.79 547.503C1596.27 543.804 1573.01 543.804 1557.49 543.804C1541.98 543.804 1526.47 543.804 1518.71 547.503C1495.44 551.203 1479.93 554.902 1472.18 562.301C1472.18 562.301 1472.18 562.301 1464.42 566H1402.37C1402.37 562.301 1410.13 558.601 1410.13 558.601C1425.64 543.804 1448.91 532.706 1479.93 529.007C1495.44 525.307 1518.71 525.307 1534.23 525.307C1541.98 525.307 1549.74 525.307 1557.49 525.307H1565.25C1580.76 525.307 1596.27 525.307 1611.79 521.608C1642.81 517.909 1658.32 510.51 1666.08 495.712C1673.84 488.314 1673.84 477.216 1673.84 466.118C1673.84 458.719 1666.08 451.32 1658.32 443.922C1635.05 425.425 1604.03 418.026 1565.25 418.026C1541.98 418.026 1518.71 421.725 1495.44 425.425C1487.69 429.124 1479.93 429.124 1472.18 432.824C1456.66 436.523 1448.91 440.222 1433.4 443.922C1417.88 447.621 1410.13 447.621 1394.61 447.621C1379.1 447.621 1363.59 443.922 1348.08 440.222C1332.57 436.523 1317.05 429.124 1301.54 418.026C1286.03 406.928 1278.27 395.83 1262.76 384.732L1255 373.634C1247.25 369.935 1247.25 366.235 1239.49 362.536C1223.98 355.137 1216.22 347.739 1192.96 347.739C1185.2 347.739 1177.44 347.739 1169.69 347.739C1146.42 347.739 1123.15 351.438 1107.64 355.137C1092.13 358.837 1068.86 366.235 1053.35 373.634L1045.59 377.333C1022.32 384.732 1006.81 395.83 983.541 403.229L975.785 406.928C952.516 414.327 937.004 425.425 913.736 436.523C905.98 443.922 898.223 451.32 890.467 458.719C882.711 462.418 882.711 466.118 874.955 473.516C859.443 488.314 828.418 499.412 797.394 503.111C789.638 503.111 781.882 503.111 781.882 503.111C766.369 503.111 743.101 499.412 735.345 492.013C727.589 484.614 712.077 477.216 704.32 473.516C688.808 462.418 673.296 447.621 650.028 436.523C642.272 432.824 634.515 425.425 626.759 421.726C611.247 410.627 603.491 399.529 611.247 384.732C619.003 369.935 626.759 355.137 650.028 347.739C673.296 336.641 696.564 332.941 712.077 329.242C727.589 325.543 743.101 325.543 750.857 321.843C758.613 321.843 774.126 318.144 781.882 318.144C805.15 314.444 828.418 307.046 843.931 292.248C851.687 284.85 859.443 277.451 867.199 270.052C867.199 266.353 874.955 266.353 874.955 262.654C882.711 255.255 890.467 247.856 905.98 240.458C921.492 233.059 929.248 229.359 944.76 225.66C952.516 221.961 960.272 218.261 968.029 214.562C999.053 207.163 1014.57 199.765 1030.08 188.667C1045.59 181.268 1053.35 173.869 1068.86 162.771C1068.86 162.771 1076.61 159.072 1076.61 155.373C1084.37 151.673 1092.13 147.974 1107.64 147.974ZM1107.64 147.974C1099.88 147.974 1084.37 151.673 1076.61 155.373C1061.1 166.471 1045.59 177.569 1030.08 188.667C1014.57 196.065 999.053 207.163 983.541 214.562C960.272 225.66 937.004 233.059 921.492 240.458C905.98 247.856 898.223 255.255 890.467 262.654C882.711 273.752 874.955 281.15 859.443 292.248C843.931 303.346 820.662 314.444 797.394 318.144C766.369 318.144 735.345 321.843 712.077 325.542C688.808 329.242 673.296 336.641 650.028 344.039C626.759 355.137 619.003 369.935 611.247 384.732C603.491 399.529 611.247 410.627 626.759 421.726C634.515 425.425 642.272 432.824 650.028 436.523C673.296 447.621 688.808 458.719 704.32 473.516C712.077 480.915 719.833 488.314 735.345 492.013C750.857 499.412 766.369 506.811 789.638 506.811C797.394 506.811 805.15 506.811 812.906 506.811C843.931 503.111 874.955 492.013 890.467 477.216C905.98 466.118 913.736 451.32 929.248 440.222C944.76 429.124 968.028 418.026 991.297 410.627C1014.57 399.529 1037.83 392.131 1061.1 381.033C1076.61 373.634 1099.88 366.235 1115.39 358.837C1138.66 351.438 1154.18 351.438 1177.44 351.438C1185.2 351.438 1192.96 351.438 1200.71 351.438C1216.22 351.438 1231.74 358.837 1239.49 366.235C1247.25 369.935 1247.25 373.634 1255 377.333C1270.52 392.131 1278.27 403.229 1293.79 418.026C1309.3 425.425 1317.05 436.523 1340.32 440.222C1355.83 443.922 1371.35 447.621 1386.86 447.621C1402.37 447.621 1417.88 447.621 1425.64 443.922C1448.91 436.523 1464.42 432.824 1487.69 425.425C1510.96 418.026 1526.47 418.026 1549.74 418.026C1588.52 418.026 1619.54 425.425 1642.81 443.922C1650.57 451.32 1650.57 458.719 1658.32 466.118C1658.32 473.516 1658.32 484.614 1650.57 492.013C1642.81 506.81 1627.3 514.209 1596.27 517.909C1580.76 521.608 1557.49 521.608 1534.23 521.608C1510.96 521.608 1479.93 521.608 1456.66 525.307C1425.64 529.007 1402.37 540.105 1386.86 554.902C1379.1 558.601 1379.1 562.301 1379.1 566C1402.37 566 1425.64 566 1441.15 566C1441.15 566 1448.91 566 1448.91 562.301C1456.66 554.902 1472.18 551.203 1495.44 547.503C1510.96 547.503 1518.71 543.804 1534.23 543.804C1549.74 543.804 1573.01 543.804 1588.52 547.503C1604.03 551.203 1611.79 554.902 1611.79 558.601L1619.54 562.301C1642.81 562.301 1658.32 562.301 1681.59 562.301L1689.35 558.601C1697.1 543.804 1712.62 536.405 1735.88 532.706C1751.4 529.007 1774.66 529.007 1790.18 525.307C1828.96 517.909 1859.98 506.81 1883.25 492.013C1891.01 484.614 1898.76 480.915 1906.52 473.516C1906.52 469.817 1914.27 469.817 1914.27 466.118C1914.27 447.621 1914.27 432.824 1914.27 414.327C1883.25 403.229 1859.98 392.131 1836.71 377.333C1821.2 366.235 1805.69 358.837 1790.18 347.739C1774.66 336.641 1751.4 329.242 1735.88 318.144C1712.62 307.046 1681.59 295.948 1658.32 281.15C1635.05 262.654 1619.54 244.157 1611.79 221.961C1619.54 210.863 1619.54 199.765 1611.79 188.667C1604.03 181.268 1596.27 177.569 1580.76 177.569H1573.01C1549.74 181.268 1534.22 184.967 1526.47 196.065C1518.71 207.163 1510.96 218.261 1510.96 229.359C1510.96 251.556 1503.2 273.752 1479.93 292.248C1456.66 310.745 1425.64 329.242 1386.86 332.941C1363.59 336.641 1355.83 336.641 1340.32 336.641C1332.57 336.641 1317.05 336.641 1309.3 336.641C1286.03 332.941 1270.52 325.543 1262.76 310.745C1262.76 299.647 1255 288.549 1255 277.451C1255 251.556 1247.25 225.66 1223.98 203.464C1208.47 192.366 1200.71 181.268 1185.2 170.17C1169.69 159.072 1146.42 151.673 1123.15 147.974C1115.39 147.974 1107.64 147.974 1107.64 147.974Z" fill="#557571"/>
<path d="M262.218 155.371C269.975 155.371 269.975 155.371 277.731 155.371C300.999 155.371 316.511 162.77 332.024 170.168C355.292 184.966 370.804 199.763 370.804 221.959C370.804 233.057 370.804 247.854 363.048 258.952C355.292 273.75 347.536 284.848 347.536 299.645C347.536 310.743 347.536 318.142 355.292 329.24C363.048 351.436 378.56 369.933 401.829 384.73C417.341 392.129 432.853 403.227 448.365 410.626C463.878 421.724 487.146 432.822 510.414 440.22C533.683 451.318 556.951 458.717 572.463 469.815C587.975 480.913 603.488 488.312 619 495.711C642.268 510.508 665.537 521.606 688.805 529.005L696.561 532.704C712.073 540.103 727.586 547.501 727.586 554.9H650.024C634.512 543.802 611.244 532.704 587.975 521.606C564.707 510.508 533.683 503.109 502.658 495.711C471.634 488.312 448.365 477.214 432.853 458.717L425.097 451.318C417.341 443.92 409.585 432.822 401.829 425.423C394.072 414.325 378.56 406.926 370.804 395.828C370.804 392.129 363.048 392.129 363.048 388.43C347.536 377.331 339.78 369.933 339.78 358.835C332.024 340.338 324.267 321.841 324.267 299.645C324.267 281.149 324.267 262.652 332.024 244.155C339.78 225.658 339.78 210.861 332.024 199.763C316.511 181.266 293.243 173.868 262.218 173.868C254.462 173.868 246.706 173.868 231.194 177.567C207.926 181.266 184.657 188.665 161.389 199.763C138.121 210.861 107.096 218.26 83.8277 225.658C76.0716 229.358 60.5594 233.057 52.8033 233.057C29.5349 240.456 14.0227 244.155 -9.24568 247.854V210.861H-1.48956C45.0472 207.162 83.8277 199.763 114.852 188.665C122.608 188.665 130.364 184.966 145.877 181.266C161.389 177.567 169.145 173.868 184.657 166.469C215.682 159.07 238.95 155.371 262.218 155.371ZM262.218 155.371C231.194 155.371 207.926 159.07 176.901 166.469C161.389 173.868 138.121 181.266 114.852 188.665C76.0716 199.763 37.291 203.462 -1.48956 210.861H-9.24568C-9.24568 225.658 -9.24568 236.756 -9.24568 251.554C21.7788 244.155 52.8033 236.756 83.8277 225.658C114.852 218.26 138.121 207.162 161.389 196.064C184.657 188.665 207.926 181.266 238.95 177.567C246.706 177.567 254.462 173.868 262.218 173.868C293.243 173.868 316.511 181.266 324.267 199.763C332.024 214.56 332.024 229.358 324.267 244.155C324.267 262.652 316.511 281.149 316.511 299.645C316.511 321.841 324.267 340.338 332.024 362.534C339.78 373.632 347.536 384.73 355.292 392.129C370.804 403.227 386.316 414.325 394.072 429.122C401.829 440.22 409.585 451.318 417.341 462.416C432.853 480.913 456.121 492.011 487.146 499.41C533.683 503.109 564.707 510.508 587.975 521.606C611.244 532.704 626.756 543.802 642.268 554.9C642.268 554.9 642.268 554.9 642.268 558.599C673.293 558.599 704.317 558.599 735.342 558.599C727.586 547.501 719.83 540.103 696.561 532.704C665.537 521.606 642.268 510.508 619 499.41C603.488 492.011 587.975 480.913 572.463 473.514C556.951 462.416 533.683 451.318 510.414 443.92C494.902 432.822 471.634 421.724 456.121 410.626C440.609 403.227 425.097 392.129 409.585 384.73C378.56 366.233 363.048 347.737 363.048 329.24C363.048 318.142 355.292 310.743 355.292 299.645C355.292 284.848 355.292 270.051 363.048 258.952C370.804 247.854 370.804 233.057 370.804 221.959C370.804 203.462 355.292 184.966 332.024 170.168C324.267 159.07 300.999 155.371 277.731 155.371C277.731 155.371 269.975 155.371 262.218 155.371Z" fill="#557571"/>
<path d="M-9.24568 307.044C-9.24568 307.044 -1.48956 307.044 -9.24568 307.044C21.7788 314.443 52.8033 321.841 76.0716 329.24C83.8277 329.24 91.5839 332.939 99.34 332.939C130.364 340.338 153.633 347.737 169.145 358.835C192.413 369.933 207.926 377.332 231.194 392.129C246.706 403.227 254.462 421.724 262.218 432.822C262.218 436.521 262.218 436.521 262.218 440.22C262.218 451.318 269.975 462.416 277.731 473.514C285.487 484.613 300.999 492.011 308.755 499.41C324.267 506.809 339.78 510.508 355.292 514.207C363.048 514.207 363.048 517.907 370.804 517.907C401.829 529.005 417.341 540.103 425.097 554.9H378.56C378.56 554.9 378.56 554.9 378.56 551.201C363.048 543.802 347.536 536.403 324.267 529.005H316.511C300.999 525.305 285.487 521.606 269.975 514.207C254.462 506.809 238.95 495.711 238.95 477.214C238.95 469.815 231.194 458.717 231.194 451.318C231.194 443.92 231.194 440.22 223.438 432.822C215.682 399.528 184.657 377.332 130.364 358.835C91.5839 344.037 37.291 340.338 -9.24568 336.639V307.044ZM-9.24568 303.345C-9.24568 314.443 -9.24568 325.541 -9.24568 336.639C37.291 340.338 91.5839 344.037 130.364 358.835C184.657 377.332 215.682 403.227 223.438 432.822C231.194 447.619 231.194 462.416 231.194 477.214C238.95 492.011 246.706 503.109 269.975 514.207C285.487 521.606 300.999 525.305 316.511 532.704C339.78 540.103 355.292 547.501 370.804 554.9V558.599C386.316 558.599 409.585 558.599 425.097 558.599C417.341 540.103 394.072 529.005 370.804 521.606C355.292 514.207 332.024 510.508 316.511 503.109C300.999 495.711 293.243 484.613 285.487 477.214C277.731 462.416 269.975 451.318 269.975 436.521C262.218 421.724 262.218 406.926 238.95 392.129C223.438 381.031 200.17 369.933 176.901 358.835C153.633 347.737 130.364 340.338 99.34 332.939C68.3155 325.541 29.5349 318.142 -9.24568 303.345C-1.48956 307.044 -9.24568 307.044 -9.24568 303.345Z" fill="#557571"/>
<path d="M440.61 3.69849H471.635C471.635 11.0972 479.391 18.4959 487.147 25.8946C502.659 44.3913 518.171 59.1886 533.684 73.986C541.44 77.6854 549.196 85.0841 549.196 88.7834C556.952 99.8814 572.464 107.28 587.976 110.979C603.489 114.679 619.001 118.378 634.513 118.378C657.782 118.378 673.294 114.679 681.05 103.581C696.562 92.4827 696.562 81.3847 696.562 70.2867C696.562 62.888 696.562 55.4893 696.562 48.0906C696.562 40.6919 696.562 36.9926 696.562 29.5939V3.69849H743.099C743.099 7.39783 743.099 11.0972 743.099 14.7965C743.099 22.1952 735.343 29.5939 735.343 36.9926C735.343 44.3913 735.343 51.79 735.343 59.1887C735.343 66.5873 735.343 73.986 735.343 81.3847C735.343 96.1821 727.587 107.28 719.83 114.679C696.562 125.777 673.294 136.875 642.269 136.875C634.513 136.875 619.001 136.875 611.245 133.176C580.22 125.777 556.952 118.378 541.44 103.581C533.684 96.1821 518.171 88.7834 510.415 81.3847C510.415 77.6854 510.415 77.6854 502.659 73.986C494.903 66.5873 494.903 62.888 487.147 59.1887C479.391 51.79 471.635 48.0906 463.879 40.6919C456.122 29.5939 448.366 18.4959 440.61 3.69849ZM432.854 3.69849C440.61 18.4959 448.366 29.5939 463.879 40.6919C479.391 51.79 487.147 62.888 502.659 73.986C510.415 85.0841 525.928 96.1821 533.684 103.581C549.196 118.378 572.464 125.777 603.489 133.176C611.245 136.875 626.757 136.875 634.513 136.875C665.538 136.875 688.806 129.476 704.318 114.679C712.074 103.581 719.83 92.4827 719.83 81.3847C719.83 66.5873 727.587 51.79 727.587 40.6919C727.587 29.5939 735.343 18.4959 735.343 7.39783C727.587 3.69849 712.074 3.69849 696.562 3.69849C696.562 11.0972 696.562 22.1952 696.562 29.5939C696.562 44.3913 704.318 55.4893 696.562 70.2867C696.562 81.3847 688.806 92.4827 681.05 103.581C665.538 110.979 650.025 118.378 634.513 118.378C619.001 118.378 611.245 114.679 595.733 110.979C580.22 107.28 564.708 96.1821 556.952 88.7834C533.684 66.5873 510.415 48.0906 487.147 25.8946C479.391 18.4959 479.391 11.0972 471.635 3.69849C463.879 3.69849 448.366 3.69849 432.854 3.69849Z" fill="#557571"/>
<path d="M1402.37 3.69849H1456.66C1456.66 3.69849 1464.42 3.69849 1464.42 7.39783C1472.18 11.0972 1472.18 11.0972 1479.93 14.7965C1495.44 18.4959 1510.96 22.1952 1534.22 22.1952C1549.74 22.1952 1573.01 18.4959 1596.27 14.7965C1604.03 14.7965 1604.03 11.0972 1611.79 11.0972L1619.54 7.39783H1681.59C1681.59 11.0972 1681.59 14.7965 1681.59 18.4958C1673.83 33.2932 1673.83 36.9926 1635.05 40.6919C1619.54 40.6919 1604.03 40.6919 1588.52 44.3912C1580.76 44.3912 1580.76 44.3912 1573.01 44.3912H1565.25C1549.74 44.3912 1541.98 44.3912 1526.47 44.3912C1518.71 44.3912 1510.96 44.3912 1503.2 44.3912C1456.66 40.6919 1417.88 25.8945 1402.37 3.69849ZM1394.61 3.69849C1417.88 25.8945 1448.91 40.6919 1495.44 44.3912C1503.2 44.3912 1510.96 44.3912 1518.71 44.3912C1534.22 44.3912 1549.74 44.3912 1565.25 44.3912C1588.52 44.3912 1604.03 44.3912 1627.3 40.6919C1658.32 36.9926 1666.08 36.9926 1673.83 18.4958C1673.83 14.7965 1673.83 7.39783 1673.83 3.69849C1650.57 3.69849 1635.05 3.69849 1611.79 3.69849C1604.03 7.39783 1596.27 11.0972 1588.52 11.0972C1565.25 14.7965 1549.74 18.4958 1526.47 18.4958C1510.96 18.4958 1495.44 14.7965 1479.93 11.0972C1472.18 11.0972 1464.42 7.39783 1464.42 3.69849C1464.42 7.39783 1464.42 3.69849 1456.66 3.69849C1441.15 3.69849 1417.88 3.69849 1394.61 3.69849Z" fill="#557571"/>
<path d="M-1.48956 3.69849C21.7788 3.69849 37.291 3.69849 60.5594 3.69849H91.5839H114.852C91.5839 14.7965 68.3155 18.4958 45.0472 18.4958C37.291 18.4958 29.5349 18.4958 21.7788 18.4958C14.0227 18.4958 6.26656 18.4958 -1.48956 18.4958C-1.48956 18.4958 -1.48956 18.4959 -1.48956 14.7965C-9.24568 11.0972 -9.24568 7.39783 -1.48956 3.69849C-9.24568 7.39783 -9.24568 3.69849 -1.48956 3.69849C-9.24568 3.69849 -9.24568 3.69849 -1.48956 3.69849C-9.24568 3.69849 -1.48956 3.69849 -1.48956 3.69849ZM-1.48956 3.69849C-9.24568 3.69849 -9.24568 3.69849 -1.48956 3.69849C-9.24568 11.0972 -9.24568 14.7965 -9.24568 18.4958C6.26656 18.4958 29.5349 18.4958 45.0472 18.4958C68.3155 18.4958 99.34 14.7965 114.852 3.69849C91.5839 3.69849 76.0716 3.69849 52.8033 3.69849C37.291 3.69849 14.0227 3.69849 -1.48956 3.69849Z" fill="#557571"/>
<path d="M1728.13 48.0933C1751.4 48.0933 1766.91 51.7926 1782.42 51.7926C1797.93 51.7926 1805.69 55.492 1813.44 59.1913C1828.96 66.59 1836.71 73.9887 1836.71 81.3874C1836.71 92.4854 1828.96 103.583 1813.44 110.982C1797.93 118.381 1782.42 122.08 1766.91 125.78C1751.4 129.479 1735.88 129.479 1728.13 129.479C1720.37 129.479 1720.37 129.479 1712.62 129.479C1689.35 125.78 1681.59 125.78 1673.83 110.982C1673.83 103.583 1666.08 99.8841 1666.08 92.4854C1666.08 88.7861 1666.08 85.0867 1666.08 85.0867V81.3874C1666.08 73.9887 1673.83 66.59 1673.83 59.1913C1681.59 51.7926 1689.35 48.0933 1704.86 48.0933C1720.37 51.7926 1720.37 51.7926 1728.13 48.0933ZM1728.13 48.0933C1720.37 48.0933 1712.62 48.0933 1712.62 48.0933C1697.1 48.0933 1689.35 51.7926 1681.59 59.1913C1673.83 66.59 1673.83 73.9887 1673.83 81.3874C1673.83 85.0867 1673.83 88.7861 1673.83 92.4854C1673.83 99.8841 1673.83 103.583 1681.59 110.982C1689.35 122.08 1697.1 125.78 1720.37 129.479C1728.13 129.479 1728.13 129.479 1735.88 129.479C1751.4 129.479 1766.91 129.479 1774.66 125.78C1790.18 122.08 1813.44 118.381 1828.96 110.982C1859.98 96.1848 1867.74 70.2893 1828.96 55.492C1821.2 51.7926 1805.69 48.0933 1797.93 48.0933C1766.91 51.7926 1751.4 48.0933 1728.13 48.0933Z" fill="#557571"/>
<path d="M1045.59 36.9934C1053.34 36.9934 1061.1 36.9934 1061.1 40.6927C1068.86 44.3921 1076.61 48.0914 1076.61 51.7908C1084.37 59.1895 1084.37 70.2875 1084.37 81.3855C1084.37 88.7842 1076.61 96.1829 1076.61 99.8822C1076.61 103.582 1068.86 103.582 1061.1 103.582H1053.34C1037.83 99.8822 1022.32 92.4835 1014.56 85.0848C999.05 77.6862 999.05 70.2875 999.05 62.8888C999.05 59.1895 999.05 59.1895 999.05 55.4901C1006.81 48.0914 1022.32 36.9934 1045.59 36.9934ZM1045.59 36.9934C1022.32 36.9934 999.05 48.0914 999.05 55.4901C999.05 59.1895 999.05 62.8888 999.05 62.8888C999.05 70.2875 1006.81 77.6862 1014.56 85.0848C1022.32 92.4835 1037.83 99.8822 1053.34 103.582H1061.1C1068.86 103.582 1068.86 103.582 1076.61 99.8822C1084.37 92.4835 1084.37 85.0848 1092.12 81.3855C1092.12 70.2875 1092.12 62.8888 1084.37 51.7908C1084.37 48.0914 1076.61 44.3921 1068.85 40.6927C1061.1 36.9934 1053.34 36.9934 1045.59 36.9934Z" fill="#557571"/>
<path d="M262.218 173.868C277.731 173.868 293.243 177.567 308.755 184.966C324.267 192.364 332.024 203.462 332.024 221.959C332.024 233.057 332.024 240.456 324.267 247.854C324.267 262.652 316.511 281.149 324.267 299.645C324.267 314.443 332.024 329.24 332.024 340.338C339.78 358.835 347.536 377.332 363.048 388.43C378.56 399.528 394.072 410.626 401.829 421.724C409.585 429.122 417.341 440.221 425.097 447.619V451.319C440.609 469.815 463.878 484.613 494.902 492.011C502.658 492.011 510.414 495.711 518.17 495.711H525.926C556.951 503.109 587.976 514.207 619 532.704C626.756 536.404 634.512 543.802 642.268 547.502C642.268 547.502 642.268 547.502 642.268 551.201H564.707L556.951 547.502C549.195 543.802 541.439 543.802 533.683 540.103H525.926C518.17 540.103 510.414 543.802 502.658 547.502C502.658 547.502 502.658 551.201 494.902 551.201H432.853C432.853 551.201 432.853 551.201 432.853 547.502C425.097 536.404 417.341 529.005 401.829 521.606C394.072 517.907 378.56 514.207 363.048 510.508C363.048 510.508 355.292 510.508 355.292 506.809C339.78 503.109 324.267 499.41 316.511 492.011C300.999 484.613 293.243 473.515 285.487 458.717C277.731 451.319 277.731 443.92 277.731 432.822C277.731 425.423 277.731 421.724 269.975 414.325C262.218 399.528 254.462 388.43 238.95 377.332C207.926 373.632 192.413 366.234 176.901 358.835C153.633 347.737 130.364 340.338 99.34 332.939C68.3155 325.541 37.291 318.142 -1.48956 307.044L-9.24568 303.345V251.554C-9.24568 251.554 -9.24568 247.854 -1.48956 247.854C14.0227 244.155 29.5349 240.456 37.291 236.756C91.5839 225.658 138.121 210.861 176.901 196.064C200.17 184.966 223.438 177.567 238.95 173.868C246.706 173.868 254.462 173.868 262.218 173.868ZM262.218 173.868C254.462 173.868 246.706 173.868 238.95 173.868C215.682 177.567 192.413 184.966 176.901 192.364C138.121 210.861 91.5839 225.658 37.291 236.756C29.5349 240.456 14.0227 244.155 -1.48956 247.854L-9.24568 251.554C-9.24568 270.051 -9.24568 288.547 -9.24568 303.345C-9.24568 307.044 -1.48956 307.044 -1.48956 307.044C29.5349 314.443 60.5594 325.541 91.5839 332.939C122.608 340.338 145.877 347.737 169.145 358.835C184.657 366.234 207.926 377.332 223.438 388.43C238.95 399.528 246.706 410.626 254.462 425.423C262.218 440.221 262.218 455.018 269.975 466.116C277.731 477.214 285.487 492.011 300.999 499.41C316.511 506.809 324.267 510.508 339.78 514.207C355.292 517.907 370.804 521.606 386.316 529.005C401.829 536.404 409.585 543.802 417.341 554.9C417.341 554.9 417.341 558.6 425.097 558.6C448.365 558.6 471.634 558.6 494.902 558.6L502.658 554.9C510.414 551.201 518.17 547.502 525.926 547.502H533.683C541.439 547.502 549.195 551.201 556.951 554.9C564.707 554.9 564.707 558.6 572.463 558.6C603.488 558.6 626.756 558.6 657.781 558.6C657.781 554.9 657.781 554.9 657.781 551.201C650.024 543.802 642.268 540.103 634.512 536.404C603.488 521.606 580.219 506.809 541.439 499.41C533.683 495.711 525.926 495.711 518.17 492.011C479.39 484.613 456.121 469.815 448.365 451.319C440.609 440.221 432.853 432.822 425.097 421.724C417.341 410.626 401.829 399.528 386.316 388.43C363.048 373.632 355.292 358.835 355.292 340.338C355.292 325.541 347.536 310.743 347.536 299.645C347.536 281.149 347.536 262.652 355.292 244.155C363.048 236.756 363.048 225.658 363.048 218.26C363.048 203.462 355.292 192.364 339.78 181.266C300.999 177.567 285.487 173.868 262.218 173.868Z" fill="#557571"/>
<path d="M471.635 3.69849H518.171C518.171 3.69849 525.927 3.69849 525.927 7.39783C533.683 11.0972 533.683 14.7965 541.44 18.4959C556.952 29.5939 572.464 44.3913 580.22 59.1887C587.976 66.5874 587.976 70.2867 595.732 77.6854C595.732 77.6854 603.489 81.3847 611.245 85.0841C619.001 85.0841 619.001 85.0841 626.757 85.0841C634.513 85.0841 642.269 81.3847 642.269 77.6854C650.025 73.986 650.025 66.5874 650.025 59.1887C650.025 51.79 642.269 40.6919 642.269 33.2932C634.513 25.8946 626.757 18.4959 626.757 7.39783C626.757 7.39783 626.757 7.39783 626.757 3.69849H688.806C688.806 3.69849 688.806 3.69849 688.806 7.39783C688.806 11.0972 688.806 14.7965 688.806 18.4959C688.806 25.8946 688.806 29.5939 688.806 36.9926C688.806 40.6919 688.806 40.6919 688.806 44.3913C688.806 51.79 688.806 62.888 688.806 70.2867C688.806 81.3847 681.05 92.4828 673.294 99.8815C673.294 110.979 657.781 114.679 642.269 118.378H634.513C611.245 118.378 595.732 110.979 572.464 103.581C564.708 96.1821 556.952 88.7834 541.44 77.6854C533.683 62.888 518.171 51.79 502.659 36.9926C487.147 25.8946 479.391 18.4959 471.635 3.69849C471.635 7.39783 471.635 7.39783 471.635 3.69849ZM471.635 3.69849V7.39783C479.391 18.4959 487.147 25.8946 494.903 36.9926C510.415 51.79 525.927 62.888 541.44 77.6854C549.196 85.0841 556.952 96.1821 572.464 103.581C587.976 114.679 611.245 118.378 634.513 118.378H642.269C665.537 118.378 673.294 110.979 688.806 103.581C696.562 96.1821 704.318 85.0841 704.318 73.986C704.318 62.888 704.318 51.79 704.318 40.6919C704.318 29.5939 704.318 18.4959 704.318 11.0972C704.318 7.39783 704.318 7.39783 704.318 3.69849C673.294 3.69849 650.025 3.69849 626.757 3.69849V7.39783C626.757 18.4959 634.513 25.8946 634.513 36.9926C642.269 44.3913 642.269 51.79 642.269 62.888C642.269 70.2867 642.269 73.986 634.513 77.6854C634.513 81.3847 626.757 85.0841 619.001 85.0841H611.245C603.489 81.3847 603.489 77.6854 595.732 73.986C587.976 70.2867 587.976 62.888 580.22 59.1887C572.464 44.3913 556.952 29.5939 541.44 18.4959C541.44 14.7965 533.683 11.0972 533.683 7.39783C533.683 7.39783 533.683 3.69849 525.927 3.69849C510.415 3.69849 487.147 3.69849 471.635 3.69849Z" fill="#557571"/>
<path d="M1541.98 536.405C1557.49 536.405 1565.25 540.105 1580.76 540.105C1604.03 543.804 1619.54 547.503 1627.3 558.601H1456.66C1464.42 551.203 1479.93 543.804 1503.2 540.105C1518.71 540.105 1526.47 536.405 1541.98 536.405ZM1541.98 536.405C1526.47 536.405 1518.71 536.405 1503.2 540.105C1479.93 543.804 1464.42 547.503 1448.91 558.601C1510.96 558.601 1565.25 558.601 1627.3 558.601C1619.54 547.503 1596.27 540.105 1573.01 536.405C1565.25 536.405 1557.49 536.405 1541.98 536.405Z" fill="#557571"/>
<path d="M1464.42 3.69849H1611.78C1611.78 7.39783 1604.03 7.39783 1604.03 7.39783C1580.76 14.7965 1565.25 18.4958 1534.22 18.4958H1526.47C1495.44 22.1952 1479.93 14.7965 1464.42 3.69849ZM1456.66 3.69849C1472.17 18.4958 1495.44 22.1952 1526.47 22.1952H1534.22C1557.49 22.1952 1580.76 18.4958 1604.03 11.0972C1611.78 11.0972 1611.78 7.39783 1619.54 3.69849C1565.25 3.69849 1510.96 3.69849 1456.66 3.69849Z" fill="#557571"/>
<path d="M1107.64 203.464C1130.9 203.464 1146.42 207.163 1169.68 218.261C1208.47 236.758 1223.98 258.954 1208.47 284.849C1200.71 295.947 1192.95 307.046 1169.68 310.745C1161.93 314.444 1154.17 314.444 1146.42 318.144C1115.39 325.542 1092.12 336.64 1068.85 344.039C1053.34 351.438 1045.59 355.137 1030.07 362.536C1006.81 377.333 975.782 388.431 944.757 403.228C905.976 418.026 882.708 429.124 859.44 443.921C851.684 447.621 843.927 455.019 836.171 458.719C828.415 462.418 812.903 466.117 805.147 466.117C797.391 466.117 797.391 466.117 789.635 466.117C774.122 462.418 766.366 458.719 758.61 455.019C735.342 440.222 719.83 425.425 696.561 403.228C688.805 392.13 688.805 384.732 688.805 377.333C696.561 366.235 704.317 358.836 735.342 351.438C743.098 347.738 758.61 347.738 774.122 344.039C781.879 344.039 789.635 340.34 797.391 340.34C820.659 336.64 843.927 332.941 867.196 321.843C882.708 314.444 898.22 303.346 905.976 288.549C921.489 270.052 944.757 255.255 975.781 240.457L983.538 236.758C1006.81 229.359 1022.32 218.261 1045.59 210.863C1068.85 207.163 1084.37 203.464 1107.64 203.464ZM1107.64 203.464C1084.37 203.464 1068.85 207.163 1045.59 214.562C1022.32 221.961 999.05 233.059 968.025 244.157C937.001 255.255 913.733 273.751 898.22 292.248C890.464 303.346 874.952 314.444 859.44 325.542C843.927 329.242 820.659 336.64 797.391 340.34C774.122 344.039 758.61 347.738 735.342 351.438C712.073 355.137 696.561 362.536 688.805 377.333C688.805 384.732 688.805 392.13 696.561 403.228C712.073 421.725 735.342 440.222 758.61 455.019C766.366 462.418 781.879 466.117 789.635 469.817C797.391 469.817 797.391 469.817 805.147 469.817C820.659 469.817 828.415 466.117 836.171 462.418C843.927 458.719 851.684 451.32 859.44 447.621C882.708 432.823 913.733 418.026 944.757 406.928C975.782 395.83 1006.81 381.032 1030.07 366.235C1045.59 358.836 1053.34 355.137 1068.85 347.738C1092.12 336.64 1115.39 329.242 1146.42 321.843C1154.17 318.144 1161.93 318.144 1169.68 314.444C1192.95 307.045 1200.71 299.647 1208.47 288.549C1223.98 262.653 1200.71 240.457 1169.68 221.961C1154.17 207.163 1130.9 203.464 1107.64 203.464Z" fill="#557571"/>
<path d="M1573 262.653H1580.76C1588.52 266.353 1596.27 270.052 1604.03 273.751V277.451C1619.54 288.549 1642.81 299.647 1658.32 310.745C1666.08 314.444 1673.83 318.144 1673.83 321.843C1697.1 332.941 1720.37 347.738 1743.64 362.536C1751.39 369.934 1766.91 377.333 1782.42 384.732C1797.93 395.83 1813.44 406.928 1828.96 418.026C1844.47 429.124 1852.22 440.222 1852.22 447.621C1844.47 469.817 1821.2 484.614 1774.66 492.013C1766.91 492.013 1766.91 492.013 1759.15 492.013C1743.64 492.013 1720.37 488.313 1712.61 473.516C1712.61 466.117 1704.86 462.418 1704.86 455.019C1704.86 451.32 1704.86 447.621 1697.1 447.621C1689.35 425.424 1666.08 410.627 1627.3 403.228C1604.03 395.83 1573 395.83 1541.98 395.83C1526.47 395.83 1518.71 395.83 1503.2 395.83C1479.93 395.83 1456.66 403.228 1433.39 406.928C1417.88 410.627 1402.37 414.326 1386.86 414.326C1363.59 414.326 1332.56 403.228 1324.81 392.13C1324.81 384.732 1324.81 377.333 1340.32 373.634C1348.08 369.934 1355.83 369.934 1371.34 366.235C1410.12 358.836 1441.15 347.738 1472.17 329.242C1487.69 318.144 1503.2 307.045 1518.71 292.248V288.549C1526.47 281.15 1534.22 277.451 1541.98 270.052C1565.25 262.653 1565.25 262.653 1573 262.653ZM1573 262.653C1565.25 262.653 1565.25 262.653 1557.49 266.353C1541.98 273.751 1541.98 281.15 1526.47 288.549C1510.95 299.647 1495.44 314.444 1479.93 325.542C1456.66 344.039 1425.64 355.137 1379.1 362.536C1371.34 362.536 1355.83 366.235 1348.08 369.934C1332.56 373.634 1332.56 381.032 1332.56 388.431C1340.32 403.228 1371.34 414.326 1394.61 414.326C1410.12 414.326 1425.64 410.627 1441.15 406.928C1464.42 403.228 1487.69 399.529 1510.95 395.83C1526.47 395.83 1534.22 395.83 1549.74 395.83C1580.76 395.83 1611.78 399.529 1635.05 403.228C1673.83 410.627 1689.35 425.424 1704.86 443.921C1712.61 451.32 1712.61 462.418 1720.37 469.817C1728.13 484.614 1751.39 488.313 1774.66 488.313C1782.42 488.313 1782.42 488.313 1790.17 488.313C1836.71 484.614 1859.98 466.117 1867.74 443.921C1867.74 432.823 1859.98 421.725 1844.47 410.627C1821.2 392.13 1790.17 373.634 1759.15 355.137C1735.88 336.64 1697.1 321.843 1666.08 307.045C1642.81 295.947 1627.3 284.849 1611.78 273.751C1604.03 270.052 1596.27 262.653 1580.76 258.954C1580.76 262.653 1573 262.653 1573 262.653Z" fill="#557571"/>
<path d="M277.734 3.69849H355.296C355.296 14.7965 363.052 25.8946 378.564 40.6919C394.076 55.4893 409.588 70.2867 425.101 81.3847C448.369 103.581 479.393 125.777 518.174 140.574C541.442 151.672 556.955 159.071 580.223 166.47C611.247 173.868 650.028 181.267 681.052 184.966C712.077 188.666 727.589 196.064 735.345 210.862C743.102 225.659 750.858 233.058 750.858 244.156C750.858 255.254 750.858 262.653 735.345 270.051C735.345 273.751 719.833 277.45 712.077 281.149C696.565 284.849 681.053 288.548 665.54 292.247C665.54 295.947 657.784 295.947 650.028 299.646C626.76 307.045 603.491 314.444 580.223 321.842C580.223 325.542 572.467 329.241 572.467 329.241C564.711 332.94 549.199 340.339 541.442 344.038C533.686 351.437 518.174 355.136 502.662 355.136C471.637 355.136 448.369 344.038 440.613 332.94C425.101 318.143 425.101 307.045 432.857 292.247C432.857 284.849 440.613 277.45 440.613 273.751C440.613 270.051 440.613 266.352 448.369 266.352C456.125 258.953 456.125 247.855 448.369 240.457C448.369 229.359 440.613 218.261 432.857 207.163V203.463C425.101 181.267 409.588 166.47 394.076 151.672C394.076 147.973 386.32 140.574 378.564 136.875C363.052 129.476 347.539 125.777 324.271 122.078C301.003 118.378 285.49 118.378 262.222 118.378C254.466 118.378 238.954 118.378 231.198 118.378C215.685 114.679 200.173 114.679 192.417 110.98C184.661 110.98 169.149 107.28 169.149 99.8815C169.149 96.1821 176.905 88.7834 176.905 85.0841C184.661 77.6854 200.173 70.2867 207.929 62.888C238.954 40.6919 262.222 25.8946 277.734 3.69849ZM269.978 3.69849C262.222 25.8946 238.954 40.6919 215.685 59.1887C200.173 66.5874 184.661 73.9861 176.905 81.3847C169.149 85.0841 169.149 92.4828 169.149 99.8815C169.149 107.28 176.905 114.679 192.417 114.679C207.929 118.378 223.441 118.378 231.198 118.378C262.222 118.378 293.247 118.378 324.271 125.777C339.783 129.476 355.296 133.176 370.808 136.875C378.564 140.574 386.32 144.274 394.076 151.672C409.588 166.47 417.344 184.966 432.857 203.463C440.613 214.561 440.613 225.659 448.369 236.757C448.369 244.156 448.369 251.555 448.369 262.653C432.857 270.051 432.857 281.149 425.101 288.548C425.101 303.345 425.101 318.143 432.857 329.241C440.613 344.038 471.637 355.136 494.906 355.136C510.418 355.136 525.93 351.437 533.686 344.038C549.198 336.64 556.955 329.241 572.467 321.842C603.491 314.444 626.76 307.045 650.028 299.646C673.296 295.947 688.809 288.548 712.077 284.849C727.589 281.149 735.345 277.45 743.101 270.051C758.614 262.653 758.614 251.555 758.614 244.156C758.614 233.058 750.858 221.96 743.101 210.862C727.589 196.064 712.077 184.966 681.052 181.267C650.028 177.568 619.004 173.868 587.979 162.77C564.711 159.071 541.442 147.973 518.174 140.574C479.393 125.777 456.125 103.581 425.101 81.3847C409.588 66.5874 394.076 51.79 378.564 40.6919C370.808 25.8946 363.052 14.7965 355.296 3.69849C332.027 3.69849 301.003 3.69849 269.978 3.69849Z" fill="#557571"/>
<path d="M1123.15 418.028C1130.91 418.028 1138.66 418.028 1146.42 421.727C1161.93 429.126 1161.93 436.525 1161.93 447.623C1161.93 451.322 1161.93 455.021 1161.93 458.721C1161.93 462.42 1161.93 469.819 1161.93 473.518C1161.93 484.616 1161.93 492.015 1169.69 503.113C1177.44 517.91 1185.2 532.708 1200.71 543.806C1200.71 543.806 1200.71 547.505 1208.47 547.505C1216.22 551.204 1216.22 554.904 1216.22 558.603H944.76C952.516 540.106 960.272 521.61 968.028 506.812L975.784 495.714C983.54 477.217 999.052 455.021 1037.83 440.224C1053.35 429.126 1084.37 421.727 1123.15 418.028ZM1123.15 418.028C1084.37 421.727 1053.35 429.126 1022.32 440.224C983.54 455.021 975.784 473.518 960.272 495.714C952.516 517.91 937.004 536.407 929.247 558.603C1022.32 558.603 1115.39 558.603 1208.47 558.603C1208.47 551.204 1200.71 547.505 1192.96 543.806C1177.44 532.708 1169.69 517.91 1161.93 503.113C1161.93 492.015 1154.17 484.616 1154.17 473.518C1154.17 466.119 1154.17 455.021 1154.17 447.623C1154.17 436.525 1154.17 429.126 1138.66 421.727C1146.42 418.028 1138.66 418.028 1123.15 418.028Z" fill="#557571"/>
<path d="M1836.71 166.471C1852.22 166.471 1859.98 166.471 1875.49 166.471C1891 166.471 1898.76 170.17 1906.52 170.17C1914.27 170.17 1914.27 173.869 1922.03 173.869V262.654C1914.27 262.654 1906.52 266.353 1898.76 266.353C1875.49 270.052 1852.22 270.052 1836.71 270.052C1821.2 270.052 1805.69 270.052 1782.42 266.353C1743.64 262.654 1704.86 244.157 1697.1 218.262C1697.1 199.765 1712.61 184.967 1735.88 177.569C1774.66 170.17 1805.69 166.471 1836.71 166.471ZM1836.71 166.471C1805.69 166.471 1774.66 170.17 1743.64 177.569C1712.61 184.967 1697.1 203.464 1697.1 221.961C1704.86 244.157 1743.64 262.654 1782.42 270.052C1797.93 273.752 1813.44 273.752 1836.71 273.752C1859.98 273.752 1875.49 273.752 1898.76 270.052C1906.52 270.052 1914.27 266.353 1922.03 266.353C1922.03 236.758 1922.03 207.163 1922.03 177.569C1906.52 173.869 1883.25 170.17 1867.74 170.17C1859.98 166.471 1852.22 166.471 1836.71 166.471Z" fill="#557571"/>
<path d="M52.8033 384.734C60.5594 384.734 68.3155 384.734 68.3155 384.734C107.096 388.433 138.121 399.531 145.877 421.727C153.633 436.524 153.633 451.322 145.877 469.819C138.121 488.315 114.852 499.413 76.0716 503.113C52.8033 506.812 29.5349 506.812 -1.48956 506.812V477.217C-1.48956 477.217 -1.48956 477.217 6.26655 477.217H14.0227C21.7788 477.217 29.5349 477.217 37.291 477.217C83.8277 473.518 107.096 455.021 107.096 432.825C107.096 418.028 91.5839 406.93 60.5594 406.93H52.8033C52.8033 406.93 45.0472 406.93 37.291 406.93C21.7788 406.93 14.0227 410.629 -1.48956 410.629V384.734C6.26655 384.734 14.0227 384.734 21.7788 384.734C29.5349 384.734 37.291 384.734 52.8033 384.734ZM52.8033 381.034C37.291 381.034 29.5349 381.034 14.0227 384.734C6.26655 384.734 -1.48956 384.734 -9.24568 388.433C-9.24568 395.832 -9.24568 406.93 -9.24568 414.328C-9.24568 414.328 -9.24568 414.328 -1.48956 414.328C-1.48956 414.328 -1.48956 414.328 6.26655 414.328C14.0227 410.629 29.5349 410.629 45.0471 410.629H52.8033H60.5594C83.8277 414.328 99.34 421.727 107.096 436.524C107.096 458.721 83.8277 473.518 37.291 477.217C29.5349 477.217 21.7788 477.217 14.0227 477.217H6.26655H-1.48956C-1.48956 488.315 -1.48956 495.714 -1.48956 506.812H6.26655C29.5349 506.812 60.5594 506.812 83.8277 503.113C122.608 499.413 145.877 484.616 153.633 466.119C161.389 451.322 161.389 436.524 153.633 418.028C145.877 395.832 114.852 384.734 76.0716 381.034C60.5594 381.034 60.5594 381.034 52.8033 381.034Z" fill="#557571"/>
<path d="M1192.95 3.69849H1255V7.39783C1255 11.0972 1255 14.7965 1255 18.4958C1255 22.1952 1255 25.8945 1255 29.5939C1255 29.5939 1255 33.2932 1247.25 33.2932H1239.49C1239.49 33.2932 1231.74 33.2932 1231.74 29.5939C1208.47 25.8945 1200.71 14.7965 1192.95 3.69849ZM1185.2 3.69849C1192.95 14.7965 1200.71 25.8945 1216.22 33.2932L1223.98 36.9926H1231.74C1239.49 36.9926 1239.49 33.2932 1247.25 29.5939C1247.25 25.8945 1247.25 22.1952 1247.25 18.4958C1247.25 14.7965 1247.25 7.39783 1247.25 3.69849C1231.74 3.69849 1208.47 3.69849 1185.2 3.69849Z" fill="#557571"/>
<path d="M843.93 88.7852C851.686 88.7852 851.686 88.7852 859.442 92.4845C874.954 99.8832 882.711 107.282 882.711 114.681C882.711 122.079 882.711 125.779 874.954 129.478C867.198 133.177 859.442 133.177 851.686 133.177C836.174 133.177 820.662 125.779 820.662 122.079C812.905 110.981 820.662 99.8832 836.174 92.4845L843.93 88.7852ZM843.93 88.7852C836.174 88.7852 828.418 88.7852 828.418 92.4845C812.906 99.8832 812.906 110.981 812.906 122.079C812.906 129.478 828.418 136.877 851.686 136.877C874.954 136.877 890.467 129.478 890.467 114.681C890.467 103.583 882.711 96.1839 867.198 88.7852C859.442 88.7852 851.686 88.7852 843.93 88.7852Z" fill="#557571"/>
<path d="M1324.81 73.9871C1348.08 73.9871 1371.35 77.6864 1394.61 85.0851C1425.64 88.7844 1456.66 96.1831 1495.44 99.8825C1503.2 99.8825 1510.96 99.8825 1510.96 103.582C1526.47 107.281 1526.47 110.981 1518.71 118.379C1518.71 122.079 1510.96 122.079 1510.96 125.778C1503.2 133.177 1495.44 136.876 1479.93 144.275C1456.66 159.072 1441.15 173.869 1425.64 188.667C1417.88 199.765 1410.13 214.562 1417.88 229.36C1417.88 233.059 1417.88 233.059 1417.88 236.758C1417.88 240.458 1417.88 244.157 1417.88 247.856C1417.88 255.255 1417.88 262.654 1410.13 273.752C1402.37 277.451 1402.37 281.15 1394.61 284.85C1386.86 284.85 1386.86 288.549 1379.1 288.549C1371.35 288.549 1355.83 284.85 1348.08 277.451C1340.32 270.052 1340.32 262.654 1340.32 255.255C1340.32 247.856 1340.32 244.157 1340.32 236.758C1340.32 229.36 1340.32 225.66 1340.32 218.262C1340.32 203.464 1340.32 188.667 1340.32 177.569V166.471C1340.32 159.072 1340.32 147.974 1332.56 140.575C1332.56 133.177 1324.81 125.778 1324.81 118.379C1324.81 114.68 1317.05 110.981 1317.05 107.281V103.582C1317.05 96.1831 1309.3 92.4838 1309.3 85.0851C1309.3 81.3858 1309.3 73.9871 1324.81 73.9871ZM1324.81 73.9871C1309.3 73.9871 1301.54 77.6864 1301.54 85.0851C1301.54 92.4838 1309.3 99.8825 1309.3 107.281C1317.05 118.379 1324.81 129.477 1324.81 140.575C1324.81 147.974 1332.56 159.072 1332.56 166.471C1332.56 184.967 1332.56 199.765 1332.56 218.262C1332.56 229.36 1332.56 240.458 1332.56 251.556C1332.56 258.954 1332.56 266.353 1340.32 273.752C1348.08 281.15 1355.83 284.85 1371.35 284.85C1379.1 284.85 1386.86 284.85 1386.86 281.15C1394.61 277.451 1402.37 273.752 1410.13 270.052C1417.88 262.654 1417.88 255.255 1425.64 244.157C1425.64 240.458 1425.64 233.059 1425.64 225.66C1425.64 214.562 1425.64 199.765 1433.39 184.967C1441.15 166.471 1464.42 155.373 1487.69 140.575C1495.44 133.177 1510.96 129.477 1518.71 122.079C1518.71 118.379 1526.47 118.379 1526.47 114.68C1534.22 107.281 1534.22 103.582 1518.71 99.8825C1510.96 99.8825 1503.2 96.1831 1503.2 96.1831C1472.17 92.4838 1441.15 85.0851 1402.37 81.3857C1371.35 77.6864 1348.08 73.9871 1324.81 73.9871Z" fill="#557571"/>
<path d="M52.8033 406.928C76.0716 406.928 91.5839 414.327 99.34 425.425C107.096 436.523 99.34 447.621 91.5839 458.719C83.8277 466.118 60.5594 473.516 45.0471 477.216C29.5349 477.216 21.7788 477.216 6.26655 477.216H-1.48956V414.327H6.26655C21.7788 410.627 37.291 406.928 52.8033 406.928ZM52.8033 406.928C37.291 406.928 14.0227 410.627 -1.48956 410.627H-9.24568C-9.24568 432.823 -9.24568 455.019 -9.24568 473.516C-9.24568 473.516 -1.48956 473.516 6.26655 473.516C6.26655 473.516 6.26655 473.516 14.0227 473.516C29.5349 473.516 37.291 473.516 52.8033 473.516C99.34 469.817 122.608 443.921 114.852 421.725C99.34 414.327 76.0716 406.928 52.8033 406.928Z" fill="#557571"/>
<path d="M479.39 162.773H487.146C502.658 162.773 518.17 166.472 533.683 170.172C564.707 181.27 587.975 188.668 611.244 199.766C626.756 207.165 650.024 210.864 657.781 218.263C681.049 225.662 688.805 233.06 681.049 244.158C688.805 251.557 681.049 255.257 665.537 262.655C650.024 270.054 634.512 273.753 619 281.152H611.244C587.975 288.551 564.707 292.25 549.195 299.649C541.439 303.348 533.683 307.047 525.926 307.047C518.17 307.047 518.17 307.047 510.414 307.047C502.658 307.047 494.902 303.348 494.902 299.649C494.902 295.949 494.902 292.25 494.902 284.851C502.658 270.054 502.658 255.257 494.902 240.459C494.902 233.06 487.146 225.662 487.146 221.962C479.39 210.864 471.634 203.466 471.634 196.067C471.634 188.668 463.878 181.27 463.878 173.871C463.878 166.472 471.634 162.773 479.39 162.773ZM479.39 159.073C463.878 159.073 456.121 162.773 456.121 170.172C456.121 177.57 456.121 184.969 463.878 196.067C471.634 210.864 487.146 225.662 494.902 240.459C502.658 255.257 502.658 270.054 494.902 284.851C494.902 288.551 494.902 295.949 494.902 299.649C494.902 307.047 502.658 310.747 518.17 310.747C525.926 310.747 525.926 310.747 533.683 310.747C533.683 307.047 541.439 303.348 549.195 303.348C572.463 295.949 595.732 288.551 619 281.152C642.268 277.453 657.781 270.054 673.293 262.655C681.049 258.956 688.805 251.557 688.805 244.158C688.805 233.06 681.049 225.662 665.537 218.263C650.024 207.165 634.512 203.466 619 196.067C587.975 188.668 564.707 181.27 533.683 170.172C518.17 166.472 510.414 162.773 487.146 159.073C487.146 159.073 487.146 159.073 479.39 159.073Z" fill="#557571"/>
<path d="M308.755 62.8871C316.511 62.8871 332.024 66.5864 332.024 73.9851C332.024 77.6844 332.024 81.3838 332.024 85.0831C332.024 88.7825 324.267 88.7825 316.511 88.7825C308.755 88.7825 308.755 88.7825 300.999 88.7825C293.243 88.7825 285.487 88.7825 277.731 88.7825C269.975 88.7825 262.219 85.0831 262.219 81.3838C262.219 77.6844 262.218 77.6844 269.975 70.2858C293.243 66.5864 300.999 66.5864 308.755 62.8871ZM308.755 62.8871C300.999 62.8871 293.243 66.5864 285.487 70.2858C269.975 73.9851 269.975 77.6844 269.975 81.3838C269.975 85.0831 277.731 88.7825 285.487 92.4818C293.243 92.4818 300.999 92.4818 308.755 92.4818C316.511 92.4818 316.511 92.4818 324.267 92.4818C339.78 92.4818 347.536 85.0831 339.78 77.6844C332.024 66.5864 316.511 62.8871 308.755 62.8871Z" fill="#557571"/>
<path d="M1053.35 477.216C1061.1 477.216 1061.1 477.216 1053.35 477.216C1068.86 484.615 1076.61 492.014 1068.86 499.413C1061.1 503.112 1061.1 506.811 1053.35 506.811H1045.59C1037.83 503.112 1037.83 499.413 1037.83 495.713C1037.83 484.615 1045.59 480.916 1053.35 477.216ZM1053.35 477.216C1030.08 480.916 1022.32 499.413 1037.83 506.811L1045.59 510.511C1053.35 510.511 1061.1 506.811 1061.1 503.112C1068.86 495.713 1068.86 488.315 1053.35 480.916C1061.1 477.216 1061.1 477.216 1053.35 477.216Z" fill="#557571"/>
<path d="M1813.44 196.063C1844.47 196.063 1867.74 203.462 1891 214.56C1898.76 221.959 1898.76 229.358 1891 233.057C1875.49 240.456 1852.22 244.155 1828.96 244.155C1805.69 244.155 1790.17 240.456 1782.42 236.756C1766.91 229.358 1759.15 225.658 1766.91 218.26C1766.91 210.861 1774.66 203.462 1797.93 199.763C1790.17 196.063 1805.69 196.063 1813.44 196.063ZM1813.44 192.364C1797.93 192.364 1790.17 192.364 1782.42 196.063C1766.91 199.763 1751.39 207.162 1751.39 214.56C1751.39 221.959 1759.15 229.358 1774.66 236.756C1790.17 244.155 1805.69 244.155 1828.96 244.155C1852.22 244.155 1875.49 240.456 1898.76 233.057C1914.27 225.658 1914.27 218.26 1898.76 210.861C1875.49 199.763 1844.47 192.364 1813.44 192.364Z" fill="#557571"/>
<path d="M525.928 3.69849H619.002V7.39783C619.002 11.0972 619.002 14.7965 619.002 18.4959C619.002 25.8946 626.758 33.2933 626.758 36.9926C626.758 40.6919 634.514 48.0906 634.514 55.4893C634.514 62.888 634.514 66.5874 634.514 73.9861C634.514 77.6854 626.758 81.3848 626.758 85.0841L619.002 88.7834C611.246 88.7834 611.246 88.7834 603.49 85.0841C595.733 77.6854 595.733 70.2867 587.977 66.5874C587.977 62.888 580.221 59.1887 580.221 55.4893C572.465 48.0906 564.709 40.6919 556.953 33.2933C556.953 29.5939 549.197 29.5939 549.197 25.8946C541.441 18.4959 533.684 11.0972 525.928 3.69849ZM525.928 3.69849C533.684 14.7965 549.197 25.8946 556.953 33.2933C564.709 44.3913 572.465 55.4893 587.977 66.5874C587.977 73.9861 595.733 77.6854 603.49 81.3848C611.246 85.0841 619.002 85.0841 619.002 85.0841C626.758 85.0841 626.758 85.0841 634.514 81.3848C642.27 81.3848 642.27 77.6854 650.026 73.9861C650.026 66.5874 650.026 62.888 650.026 55.4893C642.27 44.3913 634.514 29.5939 634.514 18.4959C634.514 14.7965 634.514 7.39783 634.514 3.69849C595.733 3.69849 556.953 3.69849 525.928 3.69849Z" fill="#557571"/>
<path d="M525.929 547.505H533.685C541.441 551.204 549.198 551.204 556.954 554.904H502.661C502.661 551.204 510.417 547.505 525.929 547.505ZM525.929 547.505C518.173 547.505 502.661 551.204 502.661 558.603C502.661 558.603 502.661 558.603 502.661 562.302C525.929 562.302 549.198 562.302 572.466 562.302C564.71 554.904 556.954 554.904 541.441 551.204C533.685 547.505 525.929 547.505 525.929 547.505Z" fill="#557571"/>
<path d="M254.464 207.163C262.22 207.163 269.976 210.863 277.732 214.562C277.732 218.261 285.488 218.261 285.488 221.961C285.488 229.359 285.488 236.758 285.488 244.157C285.488 247.856 285.488 247.856 285.488 251.555C285.488 262.653 285.488 273.751 285.488 281.15V288.549C285.488 299.647 285.488 307.045 285.488 318.144C285.488 329.242 285.488 336.64 277.732 347.738C269.976 351.438 262.22 355.137 254.464 355.137H246.708C231.196 351.438 223.44 351.438 207.927 347.738H200.171C176.903 336.64 145.878 325.542 114.854 314.444C107.098 310.745 91.5855 307.045 83.8294 299.647C60.5611 288.549 60.5611 277.451 76.0733 262.653C83.8294 262.653 91.5855 258.954 99.3416 255.255C114.854 251.555 122.61 247.856 138.122 240.457C161.391 233.059 184.659 225.66 200.171 218.261C207.927 214.562 223.44 210.863 246.708 207.163C246.708 207.163 246.708 207.163 254.464 207.163ZM254.464 203.464H246.708C223.44 207.163 207.927 214.562 200.171 218.261C169.147 233.059 130.366 244.157 99.3416 255.255C91.5855 258.954 83.8294 262.653 76.0733 266.353C52.805 281.15 60.5611 292.248 83.8294 303.346C91.5855 307.046 107.098 310.745 114.854 318.144C145.878 325.542 176.903 336.64 207.927 347.738C215.683 351.438 231.196 355.137 238.952 355.137H246.708C254.464 355.137 262.22 351.438 269.976 344.039C285.488 336.64 285.488 329.242 285.488 318.144C285.488 307.045 285.488 295.947 277.732 281.15C277.732 270.052 277.732 258.954 277.732 251.555C277.732 240.457 285.488 229.359 277.732 221.961C277.732 218.261 277.732 214.562 269.976 214.562C269.976 207.163 262.22 203.464 254.464 203.464Z" fill="#557571"/>
<path d="M1092.12 236.756H1099.88C1115.39 236.756 1123.15 240.456 1130.9 247.854C1138.66 255.253 1138.66 262.652 1138.66 266.351C1138.66 270.05 1130.9 277.449 1123.15 281.148C1115.39 284.848 1107.64 288.547 1099.88 292.246C1092.12 299.645 1084.37 299.645 1084.37 303.345C1061.1 314.443 1030.07 329.24 999.05 347.737C983.537 358.835 960.269 366.233 937.001 377.332C921.488 381.031 905.976 384.73 890.464 384.73C882.708 384.73 874.952 384.73 874.952 381.031C867.196 377.332 874.952 373.632 874.952 369.933C882.708 366.233 882.708 362.534 890.464 358.835C921.488 340.338 937.001 321.841 952.513 303.345C960.269 288.547 975.781 277.449 999.05 270.05C1014.56 262.652 1037.83 251.554 1061.1 247.854C1068.85 240.456 1084.37 236.756 1092.12 236.756ZM1092.12 236.756C1076.61 236.756 1061.1 240.456 1053.34 240.456C1030.07 247.854 1006.81 255.253 991.294 262.652C968.025 273.75 960.269 284.848 944.757 295.946C929.245 314.443 905.976 332.939 882.708 351.436C874.952 355.135 874.952 358.835 867.196 362.534C867.196 366.233 859.44 369.933 867.196 373.632C874.952 377.332 882.708 377.332 890.464 377.332C905.976 377.332 921.488 373.632 937.001 369.933C960.269 362.534 983.537 351.436 999.05 340.338C1022.32 325.541 1053.34 310.743 1084.37 295.946C1099.88 288.547 1115.39 284.848 1123.15 277.449C1130.9 273.75 1138.66 266.351 1138.66 262.652C1146.42 247.854 1130.9 233.057 1099.88 229.358C1099.88 236.756 1099.88 236.756 1092.12 236.756Z" fill="#557571"/>
<path d="M1580.76 314.444C1588.51 314.444 1596.27 318.144 1611.78 321.843C1635.05 329.242 1658.32 340.34 1673.83 351.438C1681.59 358.837 1689.34 362.536 1689.34 369.935C1689.34 373.634 1689.34 373.634 1689.34 377.333L1681.59 381.033C1673.83 381.033 1673.83 381.033 1666.08 381.033C1642.81 381.033 1619.54 377.333 1596.27 377.333C1580.76 377.333 1557.49 373.634 1541.98 369.935C1526.47 366.235 1526.47 358.837 1526.47 355.137C1534.22 347.738 1541.98 340.34 1549.73 332.941C1557.49 318.144 1565.25 314.444 1580.76 314.444ZM1580.76 314.444C1565.25 314.444 1557.49 318.144 1541.98 325.542C1534.22 332.941 1526.47 340.34 1518.71 347.738C1510.95 355.137 1518.71 362.536 1534.22 366.235C1549.73 369.935 1565.25 373.634 1588.51 373.634C1611.78 377.333 1635.05 377.333 1658.32 377.333C1666.08 377.333 1666.08 377.333 1673.83 377.333C1681.59 377.333 1689.34 373.634 1689.34 366.235C1689.34 358.837 1681.59 355.137 1673.83 347.738C1658.32 336.64 1635.05 325.542 1611.78 318.144C1596.27 314.444 1588.51 314.444 1580.76 314.444Z" fill="#557571"/>
<path d="M192.414 273.752C200.17 273.752 207.927 277.452 207.927 281.151C207.927 284.85 215.683 288.55 215.683 292.249C215.683 295.948 207.927 303.347 200.17 303.347H192.414C184.658 299.648 176.902 299.648 176.902 295.948C169.146 292.249 169.146 292.249 161.39 288.55V284.85C169.146 277.452 176.902 277.452 192.414 273.752ZM192.414 273.752C184.658 273.752 176.902 277.452 169.146 281.151C169.146 281.151 169.146 284.85 169.146 288.55C169.146 292.249 176.902 295.948 176.902 299.648C176.902 299.648 184.658 299.648 184.658 303.347C192.414 303.347 192.414 303.347 192.414 303.347C200.17 303.347 207.927 295.948 207.927 292.249C207.927 288.55 207.927 284.85 200.17 281.151C207.927 277.452 200.17 273.752 192.414 273.752Z" fill="#557571"/>
</g>
</svg>
