<svg width="11" height="14" viewBox="0 0 11 14" fill="none" xmlns="http://www.w3.org/2000/svg">
<path d="M9.53923 5.46937C9.53923 6.0035 9.28283 6.73842 8.82342 7.594C8.37344 8.43202 7.76697 9.31711 7.15067 10.1315C6.53592 10.9437 5.91988 11.6745 5.45686 12.2028C5.31921 12.3599 5.1953 12.4988 5.08923 12.6164C4.98317 12.4988 4.85926 12.3599 4.72161 12.2028C4.25859 11.6745 3.64255 10.9437 3.0278 10.1315C2.41149 9.31711 1.80502 8.43202 1.35505 7.594C0.895635 6.73842 0.639233 6.0035 0.639233 5.46937C0.639233 3.07869 2.62082 1.12141 5.08923 1.12141C7.55765 1.12141 9.53923 3.07869 9.53923 5.46937Z" stroke="#E2B8AF" stroke-width="1.1"/>
<path d="M6.87496 5.17855C6.87496 6.16477 6.07546 6.96427 5.08924 6.96427C4.10302 6.96427 3.30353 6.16477 3.30353 5.17855C3.30353 4.19233 4.10302 3.39284 5.08924 3.39284C6.07546 3.39284 6.87496 4.19233 6.87496 5.17855Z" fill="#B6A39B"/>
</svg>
