<svg width="25" height="25" viewBox="0 0 25 25" fill="none" xmlns="http://www.w3.org/2000/svg">
<path d="M12.5 25C19.4036 25 25 19.4036 25 12.5C25 5.59644 19.4036 0 12.5 0C5.59644 0 0 5.59644 0 12.5C0 19.4036 5.59644 25 12.5 25Z" fill="#EFE3DC"/>
<path d="M15.4761 5.57129H9.90189C7.63649 5.57129 5.79346 7.41432 5.79346 9.67972V15.2539C5.79346 17.5193 7.63649 19.3624 9.90189 19.3624H15.4761C17.7415 19.3624 19.5845 17.5193 19.5845 15.2539V9.67972C19.5845 7.41432 17.7415 5.57129 15.4761 5.57129ZM18.1971 15.2539C18.1971 16.7567 16.9789 17.975 15.4761 17.975H9.90189C8.39911 17.975 7.18084 16.7567 7.18084 15.2539V9.67972C7.18084 8.17691 8.39911 6.95867 9.90189 6.95867H15.4761C16.9789 6.95867 18.1971 8.17691 18.1971 9.67972V15.2539Z" fill="#B6A39B"/>
<path d="M12.6889 8.89941C10.7222 8.89941 9.12207 10.4995 9.12207 12.4663C9.12207 14.433 10.7222 16.0331 12.6889 16.0331C14.6557 16.0331 16.2558 14.433 16.2558 12.4663C16.2558 10.4995 14.6557 8.89941 12.6889 8.89941ZM12.6889 14.6458C11.4852 14.6458 10.5095 13.67 10.5095 12.4663C10.5095 11.2626 11.4853 10.2868 12.6889 10.2868C13.8926 10.2868 14.8684 11.2626 14.8684 12.4663C14.8684 13.67 13.8926 14.6458 12.6889 14.6458Z" fill="#B6A39B"/>
<path d="M16.2627 9.78131C16.7347 9.78131 17.1173 9.39873 17.1173 8.92679C17.1173 8.45485 16.7347 8.07227 16.2627 8.07227C15.7908 8.07227 15.4082 8.45485 15.4082 8.92679C15.4082 9.39873 15.7908 9.78131 16.2627 9.78131Z" fill="#B6A39B"/>
</svg>
