<svg width="165" height="37" viewBox="0 0 165 37" fill="none" xmlns="http://www.w3.org/2000/svg">
<path d="M36.4348 28.7511C36.4348 30.0726 36.3145 31.3539 36.1138 32.5953C35.6323 29.6721 34.6292 26.9492 33.4254 24.5065C33.2247 24.1061 33.0241 23.7057 32.7833 23.3052C31.5394 21.0228 30.1751 19.0206 28.9713 17.4589C28.7306 17.1786 28.5299 16.8983 28.3293 16.6581C26.644 14.5758 25.3599 13.4145 25.3599 13.4145C25.3599 13.4145 24.0759 14.6158 22.3906 16.6581C22.1899 16.8983 21.9492 17.1786 21.7486 17.4589C20.5046 19.0606 19.1403 21.0228 17.9365 23.3052C17.7359 23.7057 17.4952 24.1061 17.2945 24.5065C16.0907 26.9492 15.1277 29.6721 14.606 32.5953C14.4054 31.3539 14.285 30.0726 14.285 28.7511C14.285 27.2295 14.4857 25.7479 14.7666 24.3063V24.2663C14.7666 24.2262 14.6863 24.1862 14.6863 24.1862C14.6863 24.1461 14.606 24.1461 14.606 24.1061C14.606 23.7457 14.8067 23.4254 14.8869 23.065C15.0474 22.4243 15.4086 21.7836 15.4086 21.1829H15.4888C16.171 19.0606 17.1741 17.0985 18.1372 15.3366H18.2174H17.9767C18.2576 14.8161 18.6187 14.2955 18.6187 13.815H18.7792C21.8689 8.80956 25.3599 5.68619 25.3599 5.68619C25.3599 5.68619 28.8108 8.80956 31.8604 13.7349L31.9407 13.7749C31.9407 14.2555 32.4623 14.776 32.7432 15.2966C33.7062 17.0585 34.589 19.0206 35.2712 21.1429H35.1508C35.3514 21.7435 35.5521 22.3842 35.5521 23.0249C35.5521 23.3853 35.8329 23.7057 35.8731 24.0661C35.8731 24.1061 35.9533 24.1862 35.9533 24.2262C36.2342 25.7078 36.4348 27.2295 36.4348 28.7511Z" fill="#E2B8AF"/>
<path d="M43.9385 31.2739C43.3767 32.0347 42.7347 32.7555 42.0927 33.4362C45.7442 26.5488 44.1391 19.3009 44.1391 19.3009C44.1391 19.3009 41.3303 20.1018 37.8393 21.8637C37.438 22.0639 37.0368 22.2641 36.6355 22.5044C36.3546 22.6646 36.0336 22.8247 35.7527 22.9849C34.9903 23.4254 34.2279 23.9059 33.4655 24.4665C33.2649 24.0661 33.0642 23.6656 32.8235 23.2652C33.5859 22.5044 34.3884 21.7836 35.1909 21.1029C35.9132 20.5423 36.6355 20.0217 37.3578 19.5412C38.08 19.0607 38.7622 18.6602 39.4444 18.2598C43.6576 15.8572 47.4295 14.776 47.4295 14.776C47.4295 14.776 49.476 23.8258 43.9385 31.2739Z" fill="#E2B8AF"/>
<path d="M17.8964 23.3052C17.6958 23.7057 17.4952 24.1061 17.2945 24.5065C16.5321 23.986 15.8098 23.5054 15.0474 23.065C14.7264 22.8647 14.4455 22.7046 14.1245 22.5444C13.7233 22.3041 13.322 22.1039 12.9207 21.9037C9.42974 20.1418 6.62089 19.3409 6.62089 19.3409C6.62089 19.3409 5.01583 26.5888 8.66734 33.4762C7.98519 32.7955 7.38329 32.0747 6.82152 31.3139C1.28407 23.8258 3.33052 14.816 3.33052 14.816C3.33052 14.816 6.90177 15.8972 11.1953 18.2598H11.0749C11.8775 18.6602 12.5997 19.0606 13.2819 19.5411C14.0042 20.0217 14.6863 20.5422 15.4888 21.1429C16.2914 21.8236 17.1741 22.5444 17.8964 23.3052Z" fill="#E2B8AF"/>
<path d="M35.9533 24.1061C35.9533 24.1462 35.9934 24.2262 35.9934 24.2663C35.9132 24.3464 35.8329 24.4665 35.7126 24.5466C35.8329 24.3864 35.9132 24.2262 35.9533 24.1061Z" fill="#E2B8AF"/>
<path d="M39.4845 18.2998C39.1233 19.5011 38.6017 20.7024 37.8393 21.9037C37.438 22.1039 37.0368 22.3041 36.6355 22.5444C36.9966 21.5433 37.2374 20.5022 37.3979 19.5812C37.9597 16.1375 37.3578 13.4145 37.3578 13.4145C37.3578 13.4145 35.2712 14.0152 32.663 15.2966C31.4993 15.8572 30.2554 16.578 29.0115 17.4189C28.7707 17.1386 28.5701 16.8583 28.3694 16.618C29.4127 15.5368 30.6165 14.5758 31.7802 13.7749C35.7928 11.052 39.966 9.85068 39.966 9.85068C39.966 9.85068 40.8488 13.815 39.4845 18.2998Z" fill="#E2B8AF"/>
<path d="M14.8468 24.1862C14.887 24.3063 14.9672 24.4265 15.0475 24.5466C14.9672 24.4665 14.887 24.3864 14.8067 24.3063V24.2663C14.8067 24.2263 14.8468 24.1862 14.8468 24.1862Z" fill="#E2B8AF"/>
<path d="M22.4307 16.618C22.2301 16.8583 21.9894 17.1386 21.7887 17.4189C20.5448 16.578 19.3009 15.8572 18.1372 15.2966C15.529 14.0152 13.4825 13.4145 13.4825 13.4145C13.4825 13.4145 13.0813 16.1375 13.4825 19.5812C13.4825 20.5422 13.8437 21.5433 14.2048 22.5444C13.8036 22.3041 13.3622 22.1039 12.9609 21.9037C12.1985 20.7024 11.6769 19.5011 11.3157 18.2998C9.95141 13.815 10.8342 9.85068 10.8342 9.85068C10.8342 9.85068 15.0073 11.052 19.02 13.7749C20.2238 14.5758 21.3875 15.5368 22.4307 16.618Z" fill="#E2B8AF"/>
<path d="M0 28.2706C0.240759 39.9632 19.7823 28.8312 25.4 36.8799C24.4771 25.4275 5.01581 34.9578 0 28.2706Z" fill="#E2B8AF"/>
<path d="M50.8001 28.2706C50.5593 39.9232 31.0177 28.8312 25.4 36.8399C26.3229 25.4275 45.7843 34.9578 50.8001 28.2706Z" fill="#E2B8AF"/>
<path d="M61.5139 15.5368C61.3534 15.4167 61.3132 15.2565 61.3132 15.0963C61.3132 14.9762 61.3534 14.816 61.3935 14.6559C61.4336 14.4556 61.4336 14.3355 61.4336 14.2554C61.4336 13.0541 61.3534 10.7717 61.233 7.40802C61.1126 4.5249 61.0323 2.24243 61.0323 0.600659C61.0323 0.480529 61.0725 0.400442 61.1929 0.320356C61.2731 0.240269 61.3935 0.200226 61.5139 0.200226C61.6744 0.200226 61.7947 0.240269 61.9151 0.360399C62.0355 0.480529 62.1158 0.600659 62.1158 0.760832C62.1158 1.5617 62.1559 2.763 62.2361 4.36473C62.3164 6.12663 62.3164 7.32793 62.3164 7.96862L62.3565 8.20888V8.4091V8.56927V8.64936C62.3966 9.81061 62.3966 11.5325 62.3966 13.855V14.3755H63.9215C64.2023 14.5758 64.3628 14.776 64.3628 14.9762C64.3628 15.1364 64.3227 15.2565 64.2023 15.3766C64.1221 15.4968 64.0017 15.5368 63.8412 15.5368C63.8011 15.5368 63.7208 15.5368 63.6406 15.4968L63.5603 15.4567C63.4801 15.4567 63.3597 15.4968 63.1992 15.4968H62.8782C62.7979 15.4968 62.6775 15.4567 62.5571 15.4567C62.4368 15.6169 62.2361 15.697 61.9954 15.697C61.8349 15.697 61.6744 15.6569 61.5139 15.5368Z" fill="#E2B8AF"/>
<path d="M72.9499 15.697C72.669 15.4567 72.3881 15.1364 72.1875 14.736C71.7862 14.0152 71.5053 13.0141 71.3448 11.7727C71.2244 10.8918 71.1041 9.89072 71.0639 8.7695V7.72838V6.64721C71.0639 6.28682 71.0238 5.88639 71.0238 5.40587C71.0238 4.605 71.0639 3.88422 71.1041 3.28357C71.1442 2.64288 71.3047 2.00219 71.5053 1.40154C71.706 0.840931 72.027 0.480542 72.4282 0.240282C72.669 0.120152 72.9098 0.0801086 73.1505 0.0801086C73.8728 0.0801086 74.4346 0.360412 74.8358 0.921018C75.2772 1.56171 75.5982 2.24245 75.7186 3.00327C75.9192 3.92426 76.0396 4.84526 76.0797 5.68617C76.1199 6.64721 76.16 7.52816 76.16 8.36907V9.49028C76.16 9.73054 76.1199 10.131 76.0797 10.7717C76.0396 11.2522 75.9995 11.6927 75.9995 12.013V12.0931C75.9192 12.4535 75.8791 12.894 75.8791 13.4145C75.8791 13.7749 75.7989 14.1753 75.6384 14.5758C75.4778 14.9762 75.2371 15.2966 74.9562 15.5769C74.6753 15.8972 74.3142 16.0574 73.953 16.0574C73.5919 16.0574 73.2308 15.9373 72.9499 15.697ZM74.6753 14.2154C74.8358 13.7749 74.9562 13.2544 75.0365 12.6137C75.1167 11.973 75.1568 11.2522 75.2371 10.4513C75.2772 10.0909 75.2772 9.65046 75.2772 9.12989V7.2879C75.2371 6.56712 75.1568 5.68617 75.0365 4.605C74.9161 3.68401 74.7154 2.88314 74.4346 2.16236C74.3142 1.84201 74.1537 1.56171 73.953 1.40154C73.7524 1.20132 73.5518 1.12123 73.311 1.12123C72.99 1.12123 72.7091 1.36149 72.5887 1.88206C72.3881 2.44266 72.2677 3.04331 72.1875 3.68401C72.1072 4.40478 72.0671 5.04548 72.027 5.68617L71.9868 6.32686C71.9868 6.52708 71.9868 6.76734 71.9868 7.08769V7.16777C71.9868 8.04872 72.0671 9.16994 72.2677 10.4513C72.4684 12.2132 72.7894 13.4946 73.1906 14.2154C73.4715 14.6959 73.7524 14.8961 74.0333 14.8961C74.2339 14.9362 74.4747 14.6959 74.6753 14.2154Z" fill="#E2B8AF"/>
<path d="M84.6668 15.3366C84.5464 15.1364 84.5063 14.8961 84.5063 14.6158C84.5063 14.1753 84.5464 13.6548 84.5866 13.0141L84.6267 12.4935L84.6668 11.4524C84.6668 10.9719 84.6267 9.93076 84.5063 8.32902C84.4261 6.72729 84.3458 5.68617 84.3458 5.20565C84.3458 5.1656 84.3458 5.08552 84.3458 4.96539C84.3458 4.84526 84.3458 4.68508 84.3458 4.44482C84.3458 4.16452 84.3458 3.84417 84.3458 3.48379C84.3458 2.52275 84.2656 1.88205 84.1452 1.64179C84.0649 1.64179 83.9044 1.68184 83.6235 1.68184L83.0618 1.72188C82.9013 1.72188 82.7408 1.68184 82.6204 1.56171C82.5 1.48162 82.4197 1.32145 82.4197 1.16127C82.4197 1.0011 82.5802 0.880971 82.9013 0.760841C83.3828 0.600668 84.1452 0.480538 85.2687 0.440495C85.7101 0.400452 85.991 0.400452 86.0713 0.400452C86.2318 0.400452 86.3923 0.440495 86.5126 0.560625C86.633 0.680755 86.7133 0.800885 86.7133 0.961058C86.7133 1.12123 86.6731 1.24136 86.5528 1.36149C86.4324 1.44158 86.312 1.52166 86.1114 1.52166H85.7502C85.6299 1.52166 85.5095 1.48162 85.3891 1.48162H85.1885C85.2687 2.40262 85.3089 3.20348 85.3089 3.92426V5.20565C85.3089 5.60608 85.3089 6.00651 85.3089 6.48703C85.3089 7.12773 85.349 7.88855 85.3891 8.7695C85.4694 9.89071 85.4694 10.6515 85.4694 11.052C85.4694 11.5725 85.5095 12.1732 85.5496 12.8539C85.5897 13.5747 85.6299 14.1753 85.6299 14.6559C85.6299 15.2966 85.4292 15.6169 85.0681 15.6169C84.9477 15.6169 84.7872 15.5368 84.6668 15.3366Z" fill="#E2B8AF"/>
<path d="M95.6213 14.776C95.0997 14.0552 94.7386 13.1342 94.5379 12.0931C94.2972 10.9719 94.1367 9.73054 94.0965 8.44915C94.0163 7.2879 94.0163 6.00651 94.0163 4.64504V2.92318C94.0163 2.44266 94.0163 1.96214 94.0163 1.44158C93.8959 1.32145 93.8558 1.20132 93.8558 1.04114C93.8558 0.880971 93.8959 0.720798 94.0564 0.600668C94.1768 0.480538 94.2972 0.400452 94.4577 0.400452C94.9392 0.400452 95.1799 0.880971 95.1799 1.80197C95.1799 2.40262 95.2201 3.56387 95.2602 5.28573C95.3405 7.0076 95.3405 8.16885 95.3405 8.7695C95.4207 8.92967 95.4608 9.29006 95.5411 9.81063C95.6213 10.3312 95.6213 10.7717 95.6213 11.092C95.6213 11.3723 95.6615 11.7327 95.7818 12.1732C95.8621 12.6137 96.0226 13.0541 96.1831 13.4946C96.3436 13.9751 96.5844 14.3355 96.8653 14.6559C97.1461 14.9362 97.427 15.0963 97.748 15.0963C97.9487 15.0963 98.1092 15.0563 98.2296 14.9362C98.3499 14.816 98.4302 14.6559 98.4703 14.4156C98.5506 14.0552 98.5907 13.6948 98.5907 13.3344V9.45024C98.5907 8.96972 98.5506 8.32902 98.4703 7.5682C98.3901 6.72729 98.3499 6.0866 98.3499 5.68617V5.56604C98.3499 5.36582 98.3499 5.1656 98.3499 5.00543L98.3098 4.44482C98.3098 4.08443 98.3098 3.52383 98.2697 2.76301C98.2296 2.08227 98.1894 1.52166 98.1894 1.04114C98.1894 0.880971 98.2697 0.760841 98.4302 0.680755C98.5907 0.560625 98.7512 0.520582 98.9518 0.520582L99.4334 0.961058V1.20132C99.4334 1.36149 99.3932 1.56171 99.3531 1.76192C99.313 2.12231 99.2728 2.36257 99.2728 2.40262C99.2728 3.60392 99.3531 5.28573 99.4735 7.40803C99.5939 9.65045 99.6741 11.3723 99.6741 12.6137C99.6741 13.2944 99.5939 13.855 99.4735 14.3756C99.3932 14.6959 99.2729 14.9362 99.1525 15.0963C99.0321 15.2966 98.8315 15.4567 98.5907 15.5769C98.3499 15.697 98.0691 15.7771 97.7079 15.7771C96.785 15.8572 96.1029 15.4968 95.6213 14.776Z" fill="#E2B8AF"/>
<path d="M107.258 15.657C107.057 15.5368 106.937 15.4167 106.937 15.2565C106.937 15.0964 106.977 14.9762 107.057 14.8561C107.138 14.776 107.258 14.6959 107.419 14.6959C107.539 14.6959 107.74 14.736 107.98 14.8561C108.261 14.9762 108.422 15.0163 108.502 15.0163C108.743 15.0163 108.983 14.8961 109.184 14.6959C109.385 14.4957 109.545 14.1754 109.666 13.815C109.906 13.1342 110.027 12.5336 110.027 12.013C110.027 11.4524 109.946 10.8518 109.746 10.2111C109.585 9.57039 109.304 8.96974 109.024 8.36909L108.703 7.7284C108.382 7.04766 108.101 6.5271 107.94 6.16671C107.74 5.76628 107.619 5.36585 107.459 4.92537C107.258 4.28468 107.178 3.68403 107.178 3.08338C107.178 2.60286 107.258 2.16238 107.419 1.72191C107.579 1.28143 107.82 0.92104 108.181 0.640737C108.502 0.32039 108.943 0.160217 109.425 0.160217C109.666 0.160217 109.906 0.240304 110.107 0.360434C110.348 0.480564 110.508 0.68078 110.589 0.880997L110.268 1.28143C109.906 1.28143 109.666 1.20134 109.505 1.08121C109.264 1.12126 109.064 1.24139 108.863 1.4416C108.703 1.64182 108.542 1.88208 108.462 2.16238C108.382 2.40264 108.341 2.68294 108.341 2.9232C108.341 3.44377 108.422 3.96433 108.542 4.48489C108.703 5.00546 108.863 5.52602 109.104 5.96649L110.508 8.76952C110.749 9.25004 110.91 9.77061 111.03 10.3713C111.15 10.9719 111.231 11.5726 111.231 12.1732C111.231 13.0542 111.03 13.8951 110.589 14.6559C110.348 15.0563 110.067 15.3767 109.706 15.6169C109.345 15.8572 108.943 15.9773 108.502 15.9773C108.02 15.9373 107.619 15.8572 107.258 15.657Z" fill="#E2B8AF"/>
<path d="M61.5941 36.4795C61.5139 36.3593 61.4737 36.1991 61.4737 35.9989L61.5139 32.6353C61.554 30.9935 61.554 29.7522 61.554 28.8712C61.554 25.7478 61.3935 23.3853 61.0323 21.7435C61.233 21.4232 61.4737 21.303 61.7947 21.303C62.2763 21.303 62.7578 21.4232 63.159 21.6234C63.5603 21.8236 63.9214 22.1439 64.1622 22.5043C64.6839 23.2652 64.9246 24.1461 64.9246 25.1072C64.9246 26.1082 64.724 26.9892 64.2826 27.7901C63.8412 28.5909 63.2393 29.1916 62.4368 29.632L62.4769 31.6342L62.517 32.6753C62.517 32.9156 62.517 33.2359 62.517 33.6364C62.5572 34.5173 62.5571 35.2381 62.5571 35.7987C62.5571 36.039 62.517 36.2392 62.3966 36.3994C62.2763 36.5595 62.1158 36.5996 61.9151 36.5996C61.8349 36.6396 61.7145 36.5996 61.5941 36.4795ZM63.5603 27.0693C63.8011 26.5487 63.9215 25.908 63.9215 25.2273C63.9215 24.9069 63.8813 24.5465 63.8412 24.066C63.8011 23.9059 63.7208 23.7457 63.6406 23.5855C63.5202 23.4253 63.4801 23.3452 63.4399 23.3052C63.3597 23.1851 63.1189 22.9849 62.7177 22.7046L62.196 22.3442C62.196 23.0249 62.2361 24.066 62.3164 25.5076L62.4368 28.671C62.9584 28.1504 63.3196 27.6299 63.5603 27.0693Z" fill="#E2B8AF"/>
<path d="M72.1875 36.7197C71.9869 36.5996 71.8665 36.4794 71.8665 36.3193C71.8665 36.1591 71.9066 36.039 71.9869 35.9188C72.0671 35.8387 72.1875 35.7587 72.3079 35.7587C72.4283 35.7587 72.6289 35.7987 72.8696 35.9188C73.1505 36.039 73.311 36.079 73.3913 36.079C73.632 36.079 73.8728 35.9589 74.0734 35.7587C74.2741 35.5584 74.4346 35.2381 74.555 34.8777C74.7957 34.197 74.9161 33.5963 74.9161 33.0757C74.9161 32.5151 74.8358 31.9145 74.6352 31.2738C74.4747 30.6331 74.1938 30.0325 73.9129 29.4318L73.5919 28.7911C73.2709 28.1104 72.99 27.5898 72.8295 27.2294C72.6289 26.829 72.5085 26.4286 72.348 25.9881C72.1474 25.3474 72.0671 24.7467 72.0671 24.1461C72.0671 23.6656 72.1474 23.2251 72.3079 22.7846C72.4684 22.3441 72.7091 21.9838 73.0703 21.7035C73.3913 21.3831 73.8327 21.2229 74.3142 21.2229C74.555 21.2229 74.7957 21.303 74.9963 21.4231C75.2371 21.5433 75.3976 21.7435 75.4779 21.9437L75.1568 22.3441C74.7957 22.3441 74.5549 22.2641 74.3944 22.1439C74.1537 22.184 73.9531 22.3041 73.7524 22.5043C73.5919 22.7045 73.4314 22.9448 73.3512 23.2251C73.2709 23.4654 73.2308 23.7457 73.2308 23.9859C73.2308 24.5065 73.311 25.027 73.4314 25.5476C73.5919 26.0682 73.7524 26.5887 73.9932 27.0292L75.3976 29.8322C75.6384 30.3128 75.7989 30.8333 75.9192 31.434C76.0396 32.0346 76.1199 32.6353 76.1199 33.2359C76.1199 34.1169 75.9193 34.9578 75.4779 35.7186C75.2371 36.119 74.9562 36.4394 74.5951 36.6796C74.2339 36.9199 73.8327 37.04 73.3913 37.04C72.9499 37 72.5085 36.9199 72.1875 36.7197Z" fill="#E2B8AF"/>
<path d="M84.707 36.6396C84.6267 36.5595 84.5464 36.4394 84.5464 36.3192L84.5866 34.3972C84.6267 33.5162 84.6267 32.8755 84.6267 32.4751C84.6267 32.0747 84.5866 31.5141 84.4662 30.7532C84.3458 29.9924 84.2656 29.4318 84.2656 29.0314C84.2656 28.5108 84.1853 27.9502 84.0649 27.3095C83.9044 26.6688 83.7439 26.0281 83.5032 25.4275C83.3025 24.8669 83.1019 24.2262 82.9815 23.5855C82.821 22.9448 82.7809 22.3441 82.7809 21.8636C82.7809 21.7835 82.821 21.7034 82.9414 21.6234C83.0618 21.5433 83.142 21.5433 83.2624 21.5433C83.4229 21.5433 83.5433 21.7034 83.6637 21.9838C83.8242 22.3441 83.9847 22.8247 84.1051 23.4253C84.2656 24.066 84.3458 24.4264 84.3458 24.5465L84.5866 25.908L84.7872 26.7889C84.8273 26.5887 84.8675 26.3084 84.8675 25.948C84.9477 24.8268 85.028 23.9058 85.1483 23.185C85.2286 22.6645 85.349 22.3041 85.4694 22.0238C85.5897 21.7435 85.7502 21.5833 85.9509 21.5833C86.312 21.5833 86.4725 21.6634 86.4725 21.7835C86.4725 22.5444 86.312 23.6656 85.991 25.1472C85.67 26.6288 85.5095 27.75 85.5095 28.5108L85.4694 28.8312C85.4292 29.0314 85.4292 29.1515 85.4694 29.1915V29.5119C85.4694 30.0725 85.4694 30.9534 85.5095 32.1547L85.5496 34.7976L85.5897 35.2381L85.6299 35.7186V36.1991C85.6299 36.3593 85.5496 36.4794 85.4292 36.5995C85.3088 36.7197 85.1483 36.7597 84.9477 36.7597C84.9477 36.7998 84.8273 36.7597 84.707 36.6396Z" fill="#E2B8AF"/>
<path d="M95.9022 36.5995C95.5812 36.4394 95.3003 36.1991 95.0997 35.9188C94.8991 35.6385 94.7386 35.2781 94.5781 34.8376C94.4175 34.3972 94.2972 33.9567 94.2169 33.4762C94.0564 32.6753 93.936 31.6742 93.8959 30.3928C93.8959 30.0725 93.8558 29.5519 93.8558 28.8311V27.5898C93.8558 27.2294 93.8959 26.869 93.8959 26.4686C93.8959 25.6677 93.936 25.0671 94.0163 24.6266C93.9762 24.4264 93.9762 24.2262 93.9762 24.0259C93.9762 23.2251 94.257 22.5844 94.8589 22.1039C95.4608 21.6233 96.2232 21.3831 97.1461 21.3831C97.5073 21.3831 97.8283 21.4632 98.1092 21.6634C98.3901 21.8636 98.5506 22.0638 98.5506 22.3441C98.5506 22.4643 98.5104 22.5844 98.3901 22.6645C98.2697 22.7446 98.1493 22.7846 97.9888 22.7846C97.8684 22.7846 97.7079 22.7846 97.5474 22.7446C97.3869 22.7045 97.3066 22.6645 97.2665 22.5844H97.0258V22.5443C96.5442 22.5443 96.1029 22.6645 95.7818 22.8647C95.5411 23.0249 95.3405 23.3052 95.2201 23.7056C95.1799 23.8658 95.1398 24.0259 95.0997 24.2662C95.0596 24.5065 95.0596 24.7067 95.0596 24.8669C95.0596 24.987 95.0596 25.1872 95.0596 25.5075L95.0997 26.1883L95.1398 26.869C95.1398 27.0692 95.0997 27.3095 95.0596 27.5498C94.9793 27.8701 94.9793 28.1104 94.9793 28.2305V28.711C94.9793 29.2316 95.0194 29.9523 95.0596 30.8333C95.0596 31.5941 95.1398 32.3549 95.3003 33.1158C95.4207 33.8365 95.6615 34.4372 95.9825 34.9177C96.3035 35.4383 96.7449 35.6785 97.2665 35.6785C97.5073 35.6785 97.7882 35.5584 98.1092 35.3181C98.4703 35.0779 98.7111 34.9578 98.8716 34.9578C99.0722 34.9578 99.2327 35.0378 99.4333 35.2381C99.4333 35.7186 99.2327 36.119 98.8716 36.3593C98.5104 36.5995 98.1092 36.7597 97.6277 36.7997C97.3468 36.8398 97.1461 36.8398 96.9856 36.8398C96.5844 36.8798 96.2232 36.7997 95.9022 36.5995Z" fill="#E2B8AF"/>
<path d="M109.264 36.6796C109.184 36.5595 109.144 36.3993 109.144 36.1991C109.144 33.3961 109.104 31.0736 108.983 29.1515C108.662 29.1114 108.422 29.0714 108.301 29.0714C107.74 29.0714 107.378 29.1114 107.138 29.2316C107.138 29.9924 107.178 31.1136 107.298 32.5952C107.419 34.1969 107.459 35.3182 107.459 35.9989C107.459 36.119 107.419 36.2391 107.338 36.3593C107.258 36.4794 107.178 36.5194 107.057 36.5194C106.897 36.5194 106.736 36.1991 106.576 35.5985C106.375 34.6775 106.175 32.7954 106.054 29.9123C105.974 27.9502 105.894 25.8279 105.894 23.5855C105.894 23.185 105.894 22.5844 105.894 21.8236C105.894 21.5833 106.014 21.4632 106.255 21.4632C106.375 21.4632 106.536 21.5032 106.656 21.5433C106.817 21.6233 106.897 21.7034 106.977 21.7435C106.937 22.184 106.897 22.6645 106.897 23.2251C106.897 23.7857 106.937 24.4664 106.977 25.2673C107.017 26.1883 107.017 26.869 107.017 27.3495V27.7099C107.017 27.8301 106.977 27.9502 106.977 28.0703C106.977 28.1904 106.977 28.3907 107.017 28.5909C107.098 28.5909 107.218 28.5909 107.419 28.5508C107.619 28.5508 107.78 28.5108 107.98 28.5108C108.422 28.4707 108.743 28.4307 108.943 28.4307C108.943 27.2695 108.943 26.1883 108.903 25.2272L108.863 21.9036V21.3831C109.024 21.3831 109.184 21.4231 109.304 21.4632C109.425 21.5433 109.545 21.5833 109.585 21.7034C109.706 21.8636 109.786 22.1039 109.786 22.4643V22.9047C109.786 24.066 109.866 26.2283 109.987 29.4718C110.107 32.395 110.147 34.5974 110.147 36.079C110.147 36.2792 110.107 36.4394 109.987 36.5595C109.866 36.7197 109.746 36.7597 109.585 36.7597C109.465 36.8398 109.345 36.7998 109.264 36.6796Z" fill="#E2B8AF"/>
<path d="M117.53 35.9188C117.53 35.5985 117.731 35.4383 118.132 35.4383H118.373C118.413 35.4383 118.493 35.4784 118.534 35.4784C118.654 35.4784 118.734 35.4383 118.774 35.3983C118.814 35.3182 118.855 35.1981 118.855 35.0379C118.855 33.9167 118.774 32.355 118.654 30.3929C118.534 28.3507 118.493 26.829 118.493 25.7879C118.493 25.4275 118.493 25.0671 118.493 24.7868V23.7857C118.493 23.3453 118.493 22.9849 118.453 22.7046C118.293 22.7446 118.172 22.7847 118.012 22.7847C117.691 22.7847 117.571 22.6245 117.571 22.3041C117.571 22.144 117.651 22.0238 117.851 21.9037C118.052 21.7836 118.293 21.7035 118.614 21.6234C119.176 21.5433 119.657 21.5033 120.018 21.5033C120.179 21.5033 120.299 21.5433 120.419 21.6634C120.54 21.7836 120.58 21.9037 120.58 22.0238C120.58 22.184 120.54 22.3041 120.46 22.3842C120.379 22.5043 120.259 22.5444 120.139 22.5444C120.058 22.5444 119.978 22.5444 119.938 22.5043H119.777C119.657 22.5043 119.537 22.5444 119.497 22.5844C119.456 22.6245 119.416 22.7446 119.416 22.9048C119.416 24.3063 119.497 26.2684 119.657 28.7511C119.818 31.3539 119.898 33.316 119.898 34.5974V35.3582C119.978 35.3582 120.139 35.3182 120.299 35.3182C120.861 35.3182 121.142 35.5585 121.142 35.9989V36.1191L120.66 36.4394C120.66 36.4394 120.62 36.4394 120.54 36.4394C120.46 36.4394 120.339 36.4394 120.139 36.4394C119.697 36.4795 119.416 36.4795 119.296 36.4795C118.092 36.5195 117.53 36.3193 117.53 35.9188Z" fill="#E2B8AF"/>
<path d="M131.856 36.4394C131.775 36.3593 131.695 36.2392 131.695 36.0389V33.4361C131.535 33.316 131.214 33.1959 130.732 33.1158C130.251 33.0357 129.809 32.9556 129.368 32.9556C129.207 33.2359 129.127 33.5563 129.047 33.9567L128.966 34.3571C128.966 34.4372 128.926 34.6374 128.846 34.9578C128.766 35.2781 128.686 35.5584 128.605 35.7987C128.525 36.0389 128.445 36.1991 128.365 36.3593C127.843 36.3593 127.562 36.2392 127.482 35.9589C127.642 35.7586 127.803 35.1179 127.963 34.0768L128.605 30.4329C128.886 28.711 129.167 27.2294 129.408 25.9881C129.649 24.7467 129.929 23.7457 130.21 22.9047C130.531 21.9838 130.812 21.5433 131.093 21.5433C131.374 21.5433 131.575 21.5833 131.735 21.7034C131.735 22.224 131.856 23.5054 132.096 25.5476C132.377 27.5498 132.498 28.9112 132.498 29.632C132.498 30.3528 132.578 31.3539 132.698 32.6753C132.819 34.0368 132.899 35.0779 132.899 35.8788C132.899 36.3192 132.658 36.5595 132.257 36.5595C132.096 36.5595 131.936 36.5195 131.856 36.4394ZM131.695 32.1948C131.655 31.5941 131.575 30.8734 131.494 30.0325C131.173 27.0292 131.053 25.1872 131.053 24.5065V24.3463C130.933 24.4664 130.732 25.0671 130.491 26.1483C130.251 27.2294 130.05 28.3907 129.849 29.592C129.649 30.8333 129.528 31.6342 129.528 32.0346C130.09 32.1948 130.692 32.2749 131.294 32.2749C131.374 32.2348 131.535 32.2348 131.695 32.1948Z" fill="#E2B8AF"/>
<path d="M141.606 36.3993C141.486 36.1991 141.446 35.9589 141.446 35.6786C141.446 35.2381 141.486 34.7175 141.526 34.0768L141.566 33.5563L141.606 32.5151C141.606 32.0346 141.566 30.9935 141.446 29.3918C141.365 27.79 141.325 26.7489 141.325 26.2684C141.325 26.2283 141.325 26.1483 141.325 26.0281C141.325 25.908 141.325 25.7478 141.325 25.5076C141.325 25.2273 141.365 24.9069 141.365 24.5465C141.365 23.5855 141.285 22.9448 141.165 22.7045C141.085 22.7045 140.924 22.7446 140.643 22.7446L140.081 22.7846C139.921 22.7846 139.76 22.7446 139.64 22.6245C139.52 22.5444 139.439 22.3842 139.439 22.224C139.439 22.0638 139.6 21.9437 139.921 21.8236C140.402 21.6634 141.165 21.5433 142.288 21.5032C142.73 21.4632 143.011 21.4632 143.091 21.4632C143.251 21.4632 143.412 21.5032 143.532 21.6234C143.653 21.7435 143.733 21.8636 143.733 22.0238C143.733 22.184 143.693 22.3041 143.572 22.4242C143.452 22.5043 143.332 22.5844 143.131 22.5844H142.77C142.65 22.5844 142.529 22.5444 142.409 22.5444H142.208C142.288 23.4654 142.369 24.2662 142.369 24.987L142.329 26.2684C142.329 26.6688 142.329 27.0693 142.329 27.5498C142.329 28.1905 142.369 28.9513 142.409 29.8322C142.489 30.9535 142.489 31.7143 142.489 32.1147C142.489 32.6353 142.529 33.2359 142.569 33.9167C142.609 34.6374 142.65 35.2381 142.65 35.7186C142.65 36.3593 142.449 36.6796 142.048 36.6796C141.887 36.6796 141.727 36.5996 141.606 36.3993Z" fill="#E2B8AF"/>
<path d="M154.005 36.1991V36.1591C153.965 35.4383 153.845 34.6775 153.644 33.7965C153.444 32.9156 153.163 31.8744 152.761 30.6731C152.481 29.7521 152.24 28.9112 152.039 28.1904V36.0389C152.039 36.2391 151.999 36.3993 151.919 36.5194C151.839 36.5995 151.718 36.6796 151.477 36.6796C151.317 36.6796 151.197 36.6396 151.116 36.5194C151.036 36.4394 150.956 36.2792 150.956 36.119V35.9588L150.996 30.0725C151.036 28.3506 151.036 26.3885 151.036 24.2262V21.7835C151.036 21.6233 151.076 21.5032 151.116 21.4632C151.197 21.4231 151.317 21.3831 151.518 21.3831C151.839 21.3831 152.16 21.4632 152.44 21.5833C152.721 21.7034 152.962 21.9036 153.163 22.1039C153.564 22.5844 153.845 23.145 153.965 23.7857C154.005 24.066 154.045 24.3463 154.045 24.7067C154.045 24.9069 154.045 25.1071 154.005 25.3474C153.965 25.5876 153.965 25.7478 153.925 25.7878C153.885 25.908 153.845 26.1082 153.765 26.3885C153.684 26.6688 153.604 26.829 153.564 26.9091L153.323 27.4697L153.123 27.9902C153.123 28.4707 153.203 29.0714 153.363 29.7922C153.524 30.513 153.684 31.1937 153.885 31.8344C154.005 32.2749 154.246 32.9956 154.607 34.0368L155.169 35.7987V35.8387C155.169 36.079 155.129 36.2391 155.129 36.3993C155.089 36.5995 154.928 36.7197 154.688 36.7197C154.487 36.7597 154.246 36.5595 154.005 36.1991ZM152.681 26.4686L152.962 24.7467C152.962 24.6666 152.962 24.5865 152.962 24.4664C152.962 24.066 152.882 23.6255 152.761 23.145C152.681 22.9047 152.561 22.7045 152.44 22.5443C152.32 22.3842 152.2 22.3041 152.039 22.264L151.999 24.2662C151.959 25.1472 151.959 25.8679 151.959 26.3485C151.959 26.829 151.959 27.1093 151.959 27.2694C152.2 27.0692 152.4 26.829 152.681 26.4686Z" fill="#E2B8AF"/>
<path d="M163.114 36.6396C163.034 36.5595 162.954 36.4394 162.954 36.3192L162.994 34.3972C163.034 33.5162 163.074 32.8755 163.074 32.4751C163.074 32.0747 162.994 31.5141 162.873 30.7532C162.753 29.9924 162.673 29.4318 162.673 29.0314C162.673 28.5108 162.592 27.9502 162.472 27.3095C162.312 26.6688 162.151 26.0281 161.91 25.4275C161.71 24.8669 161.509 24.2262 161.389 23.5855C161.228 22.9448 161.188 22.3441 161.188 21.8636C161.188 21.7835 161.228 21.7034 161.348 21.6234C161.469 21.5433 161.549 21.5433 161.669 21.5433C161.83 21.5433 161.95 21.7034 162.071 21.9838C162.231 22.3441 162.392 22.8247 162.512 23.4253C162.673 24.066 162.753 24.4264 162.753 24.5465L162.994 25.908L163.194 26.7889C163.234 26.5887 163.275 26.3084 163.275 25.948C163.355 24.8268 163.475 23.9058 163.555 23.185C163.636 22.6645 163.756 22.3041 163.876 22.0238C163.997 21.7435 164.157 21.5833 164.358 21.5833C164.719 21.5833 164.88 21.6634 164.88 21.7835C164.88 22.5444 164.719 23.6656 164.398 25.1472C164.077 26.6288 163.917 27.75 163.917 28.5108L163.876 28.8312C163.836 29.0314 163.836 29.1515 163.876 29.1915V29.5119C163.876 30.0725 163.876 30.9534 163.917 32.1547L163.957 34.7976L164.117 35.2381L164.157 35.7186V36.1991C164.157 36.3593 164.077 36.4794 163.957 36.5995C163.836 36.7197 163.676 36.7597 163.475 36.7597C163.355 36.7998 163.234 36.7597 163.114 36.6396Z" fill="#E2B8AF"/>
</svg>
