<svg width="13" height="9" viewBox="0 0 13 9" fill="none" xmlns="http://www.w3.org/2000/svg">
<path d="M1.21428 0H11.7643C12.3859 0 12.8893 0.50655 12.8893 1.125V7.875C12.8893 8.49712 12.3822 9 11.7643 9H1.21428C0.597907 9 0.089282 8.49925 0.089282 7.875V1.125C0.089282 0.50765 0.590707 0 1.21428 0ZM1.37183 0.75C1.60168 0.978625 5.55721 4.91333 5.69378 5.04918C5.90628 5.26168 6.18878 5.37867 6.48928 5.37867C6.78978 5.37867 7.07228 5.26165 7.28548 5.04848C7.37733 4.9571 11.2892 1.06585 11.6067 0.75H1.37183ZM12.1393 7.72235V1.27812L8.89833 4.502L12.1393 7.72235ZM11.6063 8.25L8.36658 5.03092L7.81511 5.5795C7.46096 5.93365 6.99011 6.12867 6.48928 6.12867C5.98846 6.12867 5.51761 5.93365 5.16416 5.5802L4.61198 5.03092L1.37231 8.25H11.6063ZM0.839282 7.72235L4.08023 4.502L0.839282 1.27812V7.72235Z" fill="#B6A39B"/>
</svg>
