<svg width="13" height="21" viewBox="0 0 13 21" fill="none" xmlns="http://www.w3.org/2000/svg">
<path d="M11.6862 4.08093H0.402987C0.180545 4.08093 0 4.26148 0 4.48392C0 4.70636 0.180545 4.88691 0.402987 4.88691H11.6863C11.9087 4.88691 12.0893 4.70636 12.0893 4.48392C12.0893 4.26148 11.9087 4.08093 11.6862 4.08093Z" fill="white"/>
<path d="M6.04467 16.9761C5.60058 16.9761 5.23874 17.338 5.23874 17.782C5.23874 18.2261 5.60062 18.588 6.04467 18.588C6.48876 18.588 6.8506 18.2261 6.8506 17.782C6.8506 17.338 6.48876 16.9761 6.04467 16.9761Z" fill="white"/>
<path d="M6.85059 2.46912H5.23868C5.01624 2.46912 4.83569 2.64966 4.83569 2.8721C4.83569 3.09454 5.01628 3.27505 5.23872 3.27505H6.85063C7.07303 3.27505 7.25358 3.09451 7.25358 2.87206C7.25358 2.64962 7.07303 2.46912 6.85059 2.46912Z" fill="white"/>
<path d="M10.0744 0.857178H2.01486C0.904273 0.857178 0 1.76145 0 2.87204V18.185C0 19.2957 0.904273 20.1999 2.01486 20.1999H10.0743C11.1849 20.1999 12.0892 19.2957 12.0892 18.1851V2.87204C12.0892 1.76145 11.1849 0.857178 10.0744 0.857178ZM11.2833 18.1851C11.2833 18.8516 10.7409 19.394 10.0744 19.394C9.40783 19.394 2.01486 19.394 2.01486 19.394C1.34833 19.394 0.805935 18.8516 0.805935 18.1851V2.87204C0.805935 2.2055 1.34833 1.66311 2.01486 1.66311C2.68139 1.66311 9.40779 1.66311 10.0743 1.66311C10.7409 1.66311 11.2832 2.2055 11.2832 2.87204C11.2832 3.53857 11.2833 17.5185 11.2833 18.1851Z" fill="white"/>
<path d="M11.6862 15.3642H0.402987C0.180545 15.3642 0 15.5448 0 15.7672C0 15.9897 0.180545 16.1702 0.402987 16.1702H11.6863C11.9087 16.1702 12.0893 15.9897 12.0893 15.7672C12.0893 15.5448 11.9087 15.3642 11.6862 15.3642Z" fill="white"/>
</svg>
