<svg width="25" height="25" viewBox="0 0 25 25" fill="none" xmlns="http://www.w3.org/2000/svg">
<path d="M12.5 0C19.4039 0 25 5.59687 25 12.5C25 19.4032 19.4039 25 12.5 25C5.59601 25 0 19.4031 0 12.5C0 5.59696 5.5961 0 12.5 0Z" fill="#EFE3DC"/>
<path d="M12.1983 10.157C12.5936 10.157 12.903 10.0312 13.1296 9.85233C13.3546 9.67263 13.4671 9.42814 13.4671 9.11405V7.2187C13.4671 6.9398 13.3523 6.7093 13.1233 6.532C12.8928 6.35462 12.5983 6.2664 12.2373 6.2664C11.8428 6.2664 11.5272 6.34998 11.2936 6.51793C11.0592 6.68664 10.942 6.91165 10.942 7.19682V9.09835C10.942 9.4108 11.0561 9.6577 11.2842 9.84289C11.5123 10.0281 11.8179 10.157 12.1983 10.157ZM11.7851 7.28907C11.7851 7.21716 11.8226 7.15941 11.8968 7.11332C11.9718 7.06878 12.0687 7.0469 12.1875 7.0469C12.3171 7.0469 12.4218 7.06878 12.5008 7.11332C12.5805 7.15941 12.6196 7.21725 12.6196 7.28907V9.09062C12.6196 9.1797 12.5805 9.24998 12.5023 9.30079C12.4242 9.35082 12.3195 9.37656 12.1875 9.37656C12.0586 9.37656 11.9586 9.35236 11.889 9.30156C11.8203 9.2523 11.7851 9.18202 11.7851 9.09062V7.28907ZM14.814 10.1547C14.953 10.1547 15.0944 10.0749 15.2413 9.9953C15.3898 9.91403 15.5311 9.79526 15.6672 9.64062V10.0617H16.4054V6.26091H15.6672V9.14606C15.5984 9.2281 15.5219 9.29607 15.4398 9.34996C15.3562 9.40308 15.2875 9.43046 15.2336 9.43046C15.1641 9.43046 15.1133 9.41089 15.0836 9.36953C15.0524 9.32971 15.0352 9.26483 15.0352 9.17575V6.26168H14.2985V9.43749C14.2985 9.66405 14.343 9.83362 14.4281 9.94613C14.5147 10.0593 14.6429 10.1547 14.814 10.1547ZM16.9608 11.7258H8.03892C6.6202 11.7258 5.47095 12.8313 5.47095 14.193V16.279C5.47095 17.6415 6.6202 18.747 8.03892 18.747H16.9608C18.3787 18.747 19.5287 17.6415 19.5287 16.279V14.193C19.5288 12.8312 18.3788 11.7258 16.9608 11.7258ZM9.36625 13.843H8.57725V17.1102H7.814V13.843H7.02491V13.2859H9.36633C9.36625 13.2859 9.36625 13.843 9.36625 13.843ZM11.721 17.1555H10.8983V16.8164C10.7452 16.9415 10.5882 17.0375 10.4226 17.1016C10.2593 17.1688 10.0999 17.2008 9.94525 17.2008C9.75465 17.2008 9.61246 17.1547 9.51557 17.0618C9.42023 16.9704 9.37105 16.8329 9.37105 16.6493V14.0696H10.1937V16.436C10.1937 16.5095 10.2109 16.561 10.2437 16.5938C10.2797 16.6274 10.3367 16.6422 10.4133 16.6422C10.4727 16.6422 10.5508 16.6211 10.6429 16.5773C10.7359 16.5344 10.8211 16.4797 10.8984 16.4117V14.0688H11.7211C11.721 14.0688 11.721 17.1555 11.721 17.1555ZM14.835 16.568C14.835 16.7703 14.7709 16.9242 14.6436 17.0329C14.5178 17.1414 14.3319 17.1945 14.0921 17.1945C13.9319 17.1945 13.7897 17.1742 13.6663 17.1328C13.5421 17.0915 13.4249 17.0274 13.3186 16.9391V17.1578H12.4975V13.2859H13.3186V14.5336C13.4296 14.4477 13.5459 14.3805 13.667 14.3352C13.7912 14.2891 13.9162 14.2672 14.042 14.2672C14.2991 14.2672 14.4952 14.3274 14.6303 14.4485C14.767 14.5704 14.835 14.7493 14.835 14.9829C14.835 14.9828 14.835 16.568 14.835 16.568ZM17.9647 15.6969H16.4491V16.2547C16.4491 16.4102 16.4741 16.518 16.5264 16.5789C16.5796 16.639 16.6694 16.6687 16.7952 16.6687C16.9281 16.6687 17.0187 16.643 17.0718 16.5922C17.1234 16.5406 17.1515 16.4289 17.1515 16.2539V16.1195H17.9664V16.2711C17.9664 16.5742 17.8687 16.8024 17.6671 16.9562C17.4687 17.1093 17.1718 17.1859 16.7773 17.1859C16.4218 17.1859 16.1422 17.1046 15.9383 16.9422C15.7351 16.7812 15.632 16.5562 15.632 16.2718V14.9421C15.632 14.6866 15.7445 14.4757 15.9695 14.314C16.1937 14.1531 16.4812 14.0726 16.8367 14.0726C17.1992 14.0726 17.4781 14.1476 17.6734 14.2969C17.8679 14.4461 17.9648 14.6617 17.9648 14.9414C17.9647 14.9414 17.9647 15.6969 17.9647 15.6969ZM8.92412 10.1656H9.85617V7.89451L10.9413 4.69141H9.99365L9.41705 6.8805H9.35767L8.753 4.69141H7.81314L8.92404 7.99689C8.92412 7.99689 8.92412 10.1656 8.92412 10.1656ZM13.6584 14.7203L13.4858 14.7484L13.3178 14.8352V16.6148C13.3835 16.6609 13.4483 16.6961 13.5108 16.7156L13.7069 16.7461C13.8069 16.7461 13.8796 16.7265 13.9265 16.6851C13.9725 16.6453 13.9967 16.5797 13.9967 16.4898V15.014C13.9967 14.9164 13.9694 14.8437 13.9116 14.7945C13.8522 14.7453 13.7686 14.7203 13.6584 14.7203Z" fill="#B6A39B"/>
<path d="M16.8392 14.5908C16.7126 14.5908 16.6228 14.6174 16.5674 14.6721C16.5127 14.7244 16.4861 14.8135 16.4861 14.9377V15.2362H17.1869V14.9377C17.1869 14.8135 17.1579 14.7252 17.1033 14.6721C17.0493 14.6174 16.9595 14.5908 16.8392 14.5908Z" fill="#B6A39B"/>
</svg>
