<svg width="19" height="15" viewBox="0 0 19 15" fill="none" xmlns="http://www.w3.org/2000/svg">
<path d="M1.65236 0.890625H17.1478C18.0607 0.890625 18.8001 1.63462 18.8001 2.54298V12.4571C18.8001 13.3708 18.0553 14.1094 17.1478 14.1094H1.65236C0.747059 14.1094 1.14441e-05 13.374 1.14441e-05 12.4571V2.54298C1.14441e-05 1.63624 0.736485 0.890625 1.65236 0.890625ZM1.88377 1.99219C2.22136 2.32799 8.03107 8.10711 8.23166 8.30664C8.54377 8.61875 8.9587 8.79059 9.40006 8.79059C9.84142 8.79059 10.2563 8.61871 10.5695 8.30561C10.7044 8.1714 16.45 2.4561 16.9164 1.99219H1.88377ZM17.6985 12.2329V2.76788L12.9384 7.50297L17.6985 12.2329ZM16.9157 13.0079L12.1574 8.27983L11.3474 9.08556C10.8272 9.60572 10.1357 9.89216 9.40006 9.89216C8.66447 9.89216 7.97291 9.60572 7.45377 9.08659L6.64276 8.27983L1.88447 13.0079H16.9157ZM1.10158 12.2329L5.86175 7.50297L1.10158 2.76788V12.2329Z" fill="#557571"/>
</svg>
