<svg width="16" height="22" viewBox="0 0 16 22" fill="none" xmlns="http://www.w3.org/2000/svg">
<path d="M15.45 8.55109C15.45 9.49098 15.0061 10.7273 14.2654 12.1066C13.5342 13.4684 12.5527 14.8997 11.5614 16.2096C10.5717 17.5174 9.58065 18.6929 8.83638 19.5421C8.49839 19.9278 8.2118 20.2455 8 20.4771C7.7882 20.2455 7.50161 19.9278 7.16362 19.5421C6.41935 18.6929 5.42831 17.5174 4.43856 16.2096C3.44726 14.8997 2.46579 13.4684 1.73456 12.1066C0.993902 10.7273 0.55 9.49098 0.55 8.55109C0.55 4.53737 3.87473 1.26436 8 1.26436C12.1253 1.26436 15.45 4.53737 15.45 8.55109Z" stroke="#557571" stroke-width="1.1"/>
<path d="M10.8572 8.08563C10.8572 9.66359 9.57797 10.9428 8.00001 10.9428C6.42206 10.9428 5.14287 9.66359 5.14287 8.08563C5.14287 6.50768 6.42206 5.22849 8.00001 5.22849C9.57797 5.22849 10.8572 6.50768 10.8572 8.08563Z" fill="#557571"/>
</svg>
