<svg width="13" height="21" viewBox="0 0 13 21" fill="none" xmlns="http://www.w3.org/2000/svg">
<path d="M11.6864 4.08105H0.403109C0.180667 4.08105 0.00012207 4.2616 0.00012207 4.48404C0.00012207 4.70648 0.180667 4.88703 0.403109 4.88703H11.6864C11.9088 4.88703 12.0894 4.70648 12.0894 4.48404C12.0894 4.2616 11.9088 4.08105 11.6864 4.08105Z" fill="#F08771"/>
<path d="M6.04476 16.9766C5.60067 16.9766 5.23883 17.3384 5.23883 17.7825C5.23883 18.2266 5.60071 18.5884 6.04476 18.5884C6.48885 18.5884 6.8507 18.2266 6.8507 17.7825C6.8507 17.3384 6.48885 16.9766 6.04476 16.9766Z" fill="#F08771"/>
<path d="M6.85071 2.46924H5.2388C5.01636 2.46924 4.83582 2.64978 4.83582 2.87222C4.83582 3.09467 5.0164 3.27517 5.23884 3.27517H6.85075C7.07315 3.27517 7.2537 3.09463 7.2537 2.87219C7.2537 2.64975 7.07315 2.46924 6.85071 2.46924Z" fill="#F08771"/>
<path d="M10.0745 0.857422H2.01498C0.904395 0.857422 0.00012207 1.7617 0.00012207 2.87228V18.1853C0.00012207 19.2959 0.904395 20.2002 2.01498 20.2002H10.0744C11.1851 20.2002 12.0893 19.2959 12.0893 18.1853V2.87228C12.0893 1.7617 11.1851 0.857422 10.0745 0.857422ZM11.2834 18.1853C11.2834 18.8518 10.741 19.3942 10.0745 19.3942C9.40795 19.3942 2.01498 19.3942 2.01498 19.3942C1.34845 19.3942 0.806057 18.8518 0.806057 18.1853V2.87228C0.806057 2.20575 1.34845 1.66336 2.01498 1.66336C2.68151 1.66336 9.40791 1.66336 10.0744 1.66336C10.741 1.66336 11.2834 2.20575 11.2834 2.87228C11.2834 3.53881 11.2834 17.5188 11.2834 18.1853Z" fill="#F08771"/>
<path d="M11.6864 15.3643H0.403109C0.180667 15.3643 0.00012207 15.5448 0.00012207 15.7672C0.00012207 15.9897 0.180667 16.1702 0.403109 16.1702H11.6864C11.9088 16.1702 12.0894 15.9897 12.0894 15.7672C12.0894 15.5448 11.9088 15.3643 11.6864 15.3643Z" fill="#F08771"/>
</svg>
