<svg width="456" height="102" viewBox="0 0 456 102" fill="none" xmlns="http://www.w3.org/2000/svg">
<g clip-path="url(#clip0)">
<path d="M100.693 79.2597C100.693 82.9026 100.36 86.4351 99.8055 89.8571C98.4748 81.7987 95.7024 74.2922 92.3755 67.5584C91.8211 66.4545 91.2666 65.3506 90.6012 64.2467C87.1635 57.9545 83.393 52.435 80.0662 48.1298C79.4008 47.3571 78.8463 46.5844 78.2919 45.922C73.6343 40.1818 70.0856 36.9805 70.0856 36.9805C70.0856 36.9805 66.537 40.2922 61.8794 45.922C61.3249 46.5844 60.6596 47.3571 60.1051 48.1298C56.6674 52.5454 52.8969 57.9545 49.5701 64.2467C49.0156 65.3506 48.3502 66.4545 47.7958 67.5584C44.4689 74.2922 41.8074 81.7987 40.3658 89.8571C39.8113 86.4351 39.4786 82.9026 39.4786 79.2597C39.4786 75.0649 40.0331 70.9805 40.8094 67.0065V66.8961C40.8094 66.7857 40.5876 66.6753 40.5876 66.6753C40.5876 66.5649 40.3658 66.5649 40.3658 66.4545C40.3658 65.461 40.9203 64.5779 41.1421 63.5844C41.5856 61.8182 42.5837 60.0519 42.5837 58.3961H42.8055C44.6907 52.5454 47.4631 47.1363 50.1246 42.2792H50.3463H49.681C50.4572 40.8441 51.4553 39.4091 51.4553 38.0844H51.8989C60.4378 24.2857 70.0856 15.6753 70.0856 15.6753C70.0856 15.6753 79.6226 24.2857 88.0506 37.8636L88.2724 37.974C88.2724 39.2987 89.714 40.7337 90.4903 42.1688C93.1518 47.0259 95.5915 52.435 97.4767 58.2857H97.144C97.6985 59.9415 98.253 61.7078 98.253 63.474C98.253 64.4675 99.0292 65.3506 99.1401 66.3441C99.1401 66.4545 99.3619 66.6753 99.3619 66.7857C100.138 70.8701 100.693 75.0649 100.693 79.2597Z" fill="#E2B8AF"/>
<path d="M121.43 86.2139C119.877 88.3113 118.103 90.2983 116.329 92.1749C126.42 73.1879 121.984 53.2074 121.984 53.2074C121.984 53.2074 114.222 55.4152 104.574 60.2724C103.465 60.8243 102.356 61.3763 101.247 62.0386C100.471 62.4801 99.5837 62.9217 98.8074 63.3633C96.7004 64.5776 94.5934 65.9022 92.4864 67.4477C91.9319 66.3438 91.3775 65.2399 90.7121 64.136C92.8191 62.0386 95.037 60.0516 97.2549 58.175C99.251 56.6295 101.247 55.1944 103.243 53.8698C105.239 52.5451 107.125 51.4412 109.01 50.3373C120.654 43.7139 131.078 40.7334 131.078 40.7334C131.078 40.7334 136.733 65.6814 121.43 86.2139Z" fill="#E2B8AF"/>
<path d="M49.4592 64.2468C48.9047 65.3507 48.3502 66.4546 47.7957 67.5585C45.6887 66.1235 43.6926 64.7988 41.5856 63.5845C40.6985 63.0325 39.9222 62.591 39.035 62.1494C37.9261 61.4871 36.8171 60.9351 35.7082 60.3832C26.0603 55.5261 18.2977 53.3183 18.2977 53.3183C18.2977 53.3183 13.8619 73.2988 23.9533 92.2858C22.0681 90.4092 20.4047 88.4221 18.8521 86.3247C3.54865 65.6819 9.20429 40.8442 9.20429 40.8442C9.20429 40.8442 19.0739 43.8248 30.9397 50.3377H30.607C32.8249 51.4416 34.821 52.5455 36.7062 53.8702C38.7023 55.1949 40.5876 56.6299 42.8055 58.2858C45.0234 60.1624 47.4631 62.1494 49.4592 64.2468Z" fill="#E2B8AF"/>
<path d="M99.3619 66.4546C99.3619 66.565 99.4728 66.7858 99.4728 66.8961C99.251 67.1169 99.0292 67.4481 98.6965 67.6689C99.0292 67.2273 99.251 66.7858 99.3619 66.4546Z" fill="#E2B8AF"/>
<path d="M109.121 50.4475C108.123 53.7592 106.681 57.0709 104.574 60.3825C103.465 60.9345 102.356 61.4864 101.247 62.1488C102.245 59.389 102.91 56.5189 103.354 53.9799C104.907 44.4864 103.243 36.9799 103.243 36.9799C103.243 36.9799 97.4766 38.6358 90.2685 42.1683C87.0525 43.7137 83.6148 45.7007 80.177 48.0189C79.5117 47.2462 78.9572 46.4735 78.4027 45.8111C81.286 42.8306 84.6128 40.1812 87.8288 37.9735C98.9183 30.467 110.451 27.1553 110.451 27.1553C110.451 27.1553 112.891 38.0838 109.121 50.4475Z" fill="#E2B8AF"/>
<path d="M41.0311 66.6753C41.142 67.0065 41.3638 67.3376 41.5856 67.6688C41.3638 67.448 41.142 67.2272 40.9202 67.0065V66.8961C40.9202 66.7857 41.0311 66.6753 41.0311 66.6753Z" fill="#E2B8AF"/>
<path d="M61.9903 45.8111C61.4358 46.4735 60.7705 47.2462 60.216 48.0189C56.7783 45.7007 53.3405 43.7137 50.1246 42.1683C42.9164 38.6358 37.2607 36.9799 37.2607 36.9799C37.2607 36.9799 36.1518 44.4864 37.2607 53.9799C37.2607 56.6293 38.2588 59.389 39.2569 62.1488C38.1479 61.4864 36.9281 60.9345 35.8191 60.3825C33.7121 57.0709 32.2705 53.7592 31.2724 50.4475C27.502 38.0838 29.9417 27.1553 29.9417 27.1553C29.9417 27.1553 41.4748 30.467 52.5642 37.9735C55.8911 40.1812 59.107 42.8306 61.9903 45.8111Z" fill="#E2B8AF"/>
<path d="M0 77.9351C0.66537 110.169 54.6712 79.4805 70.1965 101.669C67.6459 70.0974 13.8619 96.3701 0 77.9351Z" fill="#848786"/>
<path d="M140.393 77.9351C139.728 110.058 85.7218 79.4805 70.1965 101.558C72.7471 70.0974 126.531 96.3701 140.393 77.9351Z" fill="#848786"/>
<path d="M170.002 42.831C169.558 42.4998 169.448 42.0583 169.448 41.6167C169.448 41.2855 169.558 40.844 169.669 40.4024C169.78 39.8505 169.78 39.5193 169.78 39.2985C169.78 35.9868 169.558 29.6946 169.226 20.4219C168.893 12.4738 168.671 6.18163 168.671 1.65565C168.671 1.32449 168.782 1.10371 169.115 0.882927C169.337 0.662147 169.669 0.551758 170.002 0.551758C170.446 0.551758 170.778 0.662147 171.111 0.993316C171.444 1.32449 171.665 1.65565 171.665 2.09721C171.665 4.305 171.776 7.61669 171.998 12.0323C172.22 16.8894 172.22 20.2011 172.22 21.9673L172.331 22.6297V23.1816V23.6232V23.844C172.442 27.0453 172.442 31.792 172.442 38.1946V39.6297H176.656C177.432 40.1816 177.876 40.7336 177.876 41.2855C177.876 41.7271 177.765 42.0583 177.432 42.3894C177.21 42.7206 176.877 42.831 176.434 42.831C176.323 42.831 176.101 42.831 175.879 42.7206L175.658 42.6102C175.436 42.6102 175.103 42.7206 174.66 42.7206H173.772C173.551 42.7206 173.218 42.6102 172.885 42.6102C172.553 43.0518 171.998 43.2725 171.333 43.2725C170.889 43.2725 170.446 43.1621 170.002 42.831Z" fill="#616161"/>
<path d="M201.607 43.2727C200.831 42.6103 200.054 41.7272 199.5 40.6233C198.391 38.6363 197.615 35.8765 197.171 32.4545C196.839 30.0259 196.506 27.2662 196.395 24.1752V21.3051V18.3246C196.395 17.3311 196.284 16.2272 196.284 14.9025C196.284 12.6947 196.395 10.7077 196.506 9.05187C196.617 7.28564 197.06 5.5194 197.615 3.86356C198.169 2.31811 199.056 1.3246 200.165 0.662262C200.831 0.331093 201.496 0.220703 202.161 0.220703C204.158 0.220703 205.71 0.99343 206.819 2.53888C208.039 4.30512 208.926 6.18174 209.259 8.27915C209.813 10.8181 210.146 13.3571 210.257 15.6752C210.368 18.3246 210.479 20.7532 210.479 23.0714V26.1623C210.479 26.8246 210.368 27.9285 210.257 29.6947C210.146 31.0194 210.035 32.2337 210.035 33.1168V33.3376C209.813 34.3311 209.702 35.5454 209.702 36.9804C209.702 37.9739 209.481 39.0778 209.037 40.1817C208.593 41.2856 207.928 42.1688 207.152 42.9415C206.375 43.8246 205.377 44.2662 204.379 44.2662C203.381 44.2662 202.383 43.935 201.607 43.2727ZM206.375 39.1882C206.819 37.9739 207.152 36.5389 207.374 34.7727C207.595 33.0064 207.706 31.0194 207.928 28.8116C208.039 27.8181 208.039 26.6038 208.039 25.1688V20.0908C207.928 18.1038 207.706 15.6752 207.374 12.6947C207.041 10.1558 206.486 7.94798 205.71 5.96096C205.377 5.07785 204.934 4.30512 204.379 3.86356C203.825 3.31161 203.27 3.09083 202.605 3.09083C201.718 3.09083 200.942 3.75317 200.609 5.18824C200.054 6.73369 199.722 8.38953 199.5 10.1558C199.278 12.1428 199.167 13.909 199.056 15.6752L198.946 17.4415C198.946 17.9934 198.946 18.6558 198.946 19.5389V19.7597C198.946 22.1882 199.167 25.2791 199.722 28.8116C200.276 33.6688 201.163 37.2012 202.272 39.1882C203.049 40.5129 203.825 41.0649 204.601 41.0649C205.156 41.1753 205.821 40.5129 206.375 39.1882Z" fill="#616161"/>
<path d="M233.988 42.2788C233.656 41.7269 233.545 41.0646 233.545 40.2918C233.545 39.0775 233.656 37.6425 233.767 35.8762L233.877 34.4412L233.988 31.571C233.988 30.2464 233.877 27.3762 233.545 22.9607C233.323 18.5451 233.101 15.6749 233.101 14.3503C233.101 14.2399 233.101 14.0191 233.101 13.6879C233.101 13.3568 233.101 12.9152 233.101 12.2529C233.101 11.4801 233.101 10.597 233.101 9.60352C233.101 6.95416 232.879 5.18793 232.547 4.52559C232.325 4.52559 231.881 4.63598 231.105 4.63598L229.553 4.74637C229.109 4.74637 228.665 4.63598 228.333 4.30481C228 4.08404 227.778 3.64248 227.778 3.20092C227.778 2.75936 228.222 2.42819 229.109 2.09702C230.44 1.65546 232.547 1.32429 235.652 1.21391C236.872 1.10352 237.648 1.10352 237.87 1.10352C238.313 1.10352 238.757 1.21391 239.09 1.54507C239.422 1.87624 239.644 2.20741 239.644 2.64897C239.644 3.09053 239.533 3.4217 239.2 3.75287C238.868 3.97365 238.535 4.19442 237.981 4.19442H236.982C236.65 4.19442 236.317 4.08404 235.984 4.08404H235.43C235.652 6.623 235.763 8.83079 235.763 10.8178V14.3503C235.763 15.4542 235.763 16.5581 235.763 17.8827C235.763 19.649 235.874 21.7464 235.984 24.1749C236.206 27.2659 236.206 29.3633 236.206 30.4672C236.206 31.9022 236.317 33.5581 236.428 35.4347C236.539 37.4217 236.65 39.0775 236.65 40.4022C236.65 42.1684 236.095 43.0516 235.097 43.0516C234.765 43.0516 234.321 42.8308 233.988 42.2788Z" fill="#616161"/>
<path d="M264.263 40.7334C262.821 38.7464 261.823 36.2074 261.269 33.3373C260.603 30.2464 260.16 26.8243 260.049 23.2918C259.827 20.0905 259.827 16.5581 259.827 12.8048V8.05806C259.827 6.73339 259.827 5.40871 259.827 3.97365C259.494 3.64248 259.383 3.31131 259.383 2.86975C259.383 2.42819 259.494 1.98663 259.938 1.65546C260.27 1.32429 260.603 1.10352 261.047 1.10352C262.377 1.10352 263.043 2.42819 263.043 4.96715C263.043 6.623 263.154 9.82429 263.265 14.571C263.486 19.3178 263.486 22.5191 263.486 24.1749C263.708 24.6165 263.819 25.61 264.041 27.0451C264.263 28.4801 264.263 29.6944 264.263 30.5775C264.263 31.3503 264.374 32.3438 264.706 33.5581C264.928 34.7723 265.372 35.9866 265.815 37.2009C266.259 38.5256 266.924 39.5191 267.7 40.4022C268.477 41.1749 269.253 41.6165 270.14 41.6165C270.695 41.6165 271.138 41.5061 271.471 41.1749C271.804 40.8438 272.025 40.4022 272.136 39.7399C272.358 38.7464 272.469 37.7529 272.469 36.7594V26.0516C272.469 24.7269 272.358 22.9607 272.136 20.8633C271.914 18.5451 271.804 16.7788 271.804 15.6749V15.3438C271.804 14.7918 271.804 14.2399 271.804 13.7983L271.693 12.2529C271.693 11.2594 271.693 9.7139 271.582 7.6165C271.471 5.73988 271.36 4.19442 271.36 2.86975C271.36 2.42819 271.582 2.09702 272.025 1.87624C272.469 1.54507 272.913 1.43468 273.467 1.43468L274.798 2.64897V3.31131C274.798 3.75287 274.687 4.30481 274.576 4.85676C274.465 5.85027 274.354 6.51261 274.354 6.623C274.354 9.93468 274.576 14.571 274.909 20.4217C275.241 26.6035 275.463 31.3503 275.463 34.7723C275.463 36.649 275.241 38.1944 274.909 39.6295C274.687 40.5126 274.354 41.1749 274.021 41.6165C273.689 42.1684 273.134 42.61 272.469 42.9412C271.804 43.2723 271.027 43.4931 270.029 43.4931C267.479 43.7139 265.593 42.7204 264.263 40.7334Z" fill="#616161"/>
<path d="M296.422 43.1622C295.868 42.831 295.535 42.4998 295.535 42.0583C295.535 41.6167 295.646 41.2856 295.868 40.9544C296.089 40.7336 296.422 40.5128 296.866 40.5128C297.198 40.5128 297.753 40.6232 298.418 40.9544C299.195 41.2856 299.638 41.396 299.86 41.396C300.525 41.396 301.191 41.0648 301.745 40.5128C302.3 39.9609 302.743 39.0778 303.076 38.0843C303.741 36.2076 304.074 34.5518 304.074 33.1167C304.074 31.5713 303.852 29.9154 303.298 28.1492C302.854 26.383 302.078 24.7271 301.302 23.0713L300.414 21.305C299.527 19.4284 298.751 17.9934 298.307 16.9998C297.753 15.896 297.42 14.7921 296.977 13.5778C296.422 11.8115 296.2 10.1557 296.2 8.49985C296.2 7.17517 296.422 5.96089 296.866 4.7466C297.309 3.53232 297.975 2.53881 298.973 1.76608C299.86 0.882965 301.08 0.441406 302.41 0.441406C303.076 0.441406 303.741 0.662185 304.296 0.993354C304.961 1.32452 305.405 1.87647 305.626 2.42842L304.739 3.53232C303.741 3.53232 303.076 3.31154 302.632 2.98037C301.967 3.09076 301.412 3.42193 300.858 3.97387C300.414 4.52582 299.971 5.18816 299.749 5.96089C299.527 6.62322 299.416 7.39595 299.416 8.05829C299.416 9.49335 299.638 10.9284 299.971 12.3635C300.414 13.7985 300.858 15.2336 301.523 16.4479L305.405 24.1752C306.07 25.4998 306.514 26.9349 306.846 28.5908C307.179 30.2466 307.401 31.9024 307.401 33.5583C307.401 35.9869 306.846 38.305 305.626 40.4024C304.961 41.5063 304.185 42.3895 303.187 43.0518C302.189 43.7141 301.08 44.0453 299.86 44.0453C298.529 43.9349 297.42 43.7141 296.422 43.1622Z" fill="#616161"/>
<path d="M170.224 100.565C170.002 100.234 169.891 99.792 169.891 99.24L170.002 89.9673C170.113 85.4413 170.113 82.0193 170.113 79.5907C170.113 70.9803 169.669 64.4673 168.671 59.9413C169.226 59.0582 169.891 58.7271 170.778 58.7271C172.109 58.7271 173.44 59.0582 174.549 59.6102C175.658 60.1621 176.656 61.0452 177.321 62.0387C178.763 64.1361 179.428 66.5647 179.428 69.2141C179.428 71.9738 178.874 74.4024 177.654 76.6102C176.434 78.818 174.77 80.4738 172.553 81.6881L172.663 87.2076L172.774 90.0777C172.774 90.74 172.774 91.6232 172.774 92.7271C172.885 95.1556 172.885 97.1426 172.885 98.6881C172.885 99.3504 172.774 99.9024 172.442 100.344C172.109 100.786 171.665 100.896 171.111 100.896C170.889 101.006 170.556 100.896 170.224 100.565ZM175.658 74.6232C176.323 73.1881 176.656 71.4219 176.656 69.5452C176.656 68.6621 176.545 67.6686 176.434 66.3439C176.323 65.9024 176.101 65.4608 175.879 65.0193C175.547 64.5777 175.436 64.3569 175.325 64.2465C175.103 63.9154 174.438 63.3634 173.329 62.5907L171.887 61.5972C171.887 63.4738 171.998 66.3439 172.22 70.318L172.553 79.0387C173.994 77.6037 174.992 76.1686 175.658 74.6232Z" fill="#616161"/>
<path d="M199.5 101.227C198.946 100.896 198.613 100.565 198.613 100.123C198.613 99.6817 198.724 99.3505 198.946 99.0194C199.167 98.7986 199.5 98.5778 199.833 98.5778C200.165 98.5778 200.72 98.6882 201.385 99.0194C202.162 99.3505 202.605 99.4609 202.827 99.4609C203.492 99.4609 204.158 99.1297 204.712 98.5778C205.267 98.0259 205.71 97.1427 206.043 96.1492C206.708 94.2726 207.041 92.6168 207.041 91.1817C207.041 89.6362 206.819 87.9804 206.265 86.2142C205.821 84.4479 205.045 82.7921 204.269 81.1362L203.381 79.37C202.494 77.4934 201.718 76.0583 201.274 75.0648C200.72 73.9609 200.387 72.857 199.944 71.6427C199.389 69.8765 199.167 68.2206 199.167 66.5648C199.167 65.2401 199.389 64.0258 199.833 62.8115C200.276 61.5973 200.942 60.6038 201.94 59.831C202.827 58.9479 204.047 58.5063 205.377 58.5063C206.043 58.5063 206.708 58.7271 207.263 59.0583C207.928 59.3895 208.372 59.9414 208.593 60.4934L207.706 61.5973C206.708 61.5973 206.043 61.3765 205.599 61.0453C204.934 61.1557 204.379 61.4869 203.825 62.0388C203.381 62.5908 202.938 63.2531 202.716 64.0258C202.494 64.6882 202.383 65.4609 202.383 66.1232C202.383 67.5583 202.605 68.9934 202.938 70.4284C203.381 71.8635 203.825 73.2986 204.49 74.5128L208.372 82.2401C209.037 83.5648 209.481 84.9999 209.813 86.6557C210.146 88.3116 210.368 89.9674 210.368 91.6232C210.368 94.0518 209.813 96.37 208.593 98.4674C207.928 99.5713 207.152 100.454 206.154 101.117C205.156 101.779 204.047 102.11 202.827 102.11C201.607 102 200.387 101.779 199.5 101.227Z" fill="#616161"/>
<path d="M234.099 101.006C233.877 100.785 233.656 100.454 233.656 100.123L233.767 94.8242C233.877 92.3956 233.877 90.6294 233.877 89.5255C233.877 88.4216 233.767 86.8762 233.434 84.7788C233.101 82.6814 232.879 81.1359 232.879 80.032C232.879 78.597 232.658 77.0515 232.325 75.2853C231.881 73.519 231.438 71.7528 230.772 70.097C230.218 68.5515 229.663 66.7853 229.331 65.019C228.887 63.2528 228.776 61.597 228.776 60.2723C228.776 60.0515 228.887 59.8307 229.22 59.6099C229.553 59.3892 229.774 59.3892 230.107 59.3892C230.551 59.3892 230.883 59.8307 231.216 60.6034C231.66 61.597 232.103 62.9216 232.436 64.5775C232.879 66.3437 233.101 67.3372 233.101 67.6684L233.767 71.4216L234.321 73.8502C234.432 73.2983 234.543 72.5255 234.543 71.532C234.765 68.4411 234.986 65.9021 235.319 63.9151C235.541 62.4801 235.874 61.4866 236.206 60.7138C236.539 59.9411 236.982 59.4996 237.537 59.4996C238.535 59.4996 238.979 59.7203 238.979 60.0515C238.979 62.1489 238.535 65.2398 237.648 69.3242C236.761 73.4086 236.317 76.4995 236.317 78.5969L236.206 79.4801C236.095 80.032 236.095 80.3632 236.206 80.4736V81.3567C236.206 82.9021 236.206 85.3307 236.317 88.6424L236.428 95.9281L236.539 97.1424L236.65 98.4671V99.7918C236.65 100.233 236.428 100.564 236.095 100.896C235.763 101.227 235.319 101.337 234.765 101.337C234.765 101.448 234.432 101.337 234.099 101.006Z" fill="#616161"/>
<path d="M265.039 100.896C264.152 100.455 263.376 99.7924 262.821 99.0197C262.267 98.2469 261.823 97.2534 261.379 96.0392C260.936 94.8249 260.603 93.6106 260.381 92.2859C259.938 90.0781 259.605 87.3184 259.494 83.7859C259.494 82.9028 259.383 81.4677 259.383 79.4807V76.0586C259.383 75.0651 259.494 74.0716 259.494 72.9677C259.494 70.7599 259.605 69.1041 259.827 67.8898C259.716 67.3379 259.716 66.7859 259.716 66.234C259.716 64.0262 260.492 62.2599 262.156 60.9353C263.819 59.6106 265.926 58.9482 268.477 58.9482C269.475 58.9482 270.362 59.169 271.138 59.721C271.914 60.2729 272.358 60.8249 272.358 61.5976C272.358 61.9288 272.247 62.2599 271.914 62.4807C271.582 62.7015 271.249 62.8119 270.805 62.8119C270.473 62.8119 270.029 62.8119 269.586 62.7015C269.142 62.5911 268.92 62.4807 268.809 62.2599H268.144V62.1495C266.813 62.1495 265.593 62.4807 264.706 63.0327C264.041 63.4742 263.486 64.2469 263.154 65.3508C263.043 65.7924 262.932 66.234 262.821 66.8963C262.71 67.5586 262.71 68.1106 262.71 68.5521C262.71 68.8833 262.71 69.4353 262.71 70.3184L262.821 72.195L262.932 74.0716C262.932 74.6236 262.821 75.2859 262.71 75.9482C262.488 76.8314 262.488 77.4937 262.488 77.8249V79.1495C262.488 80.5846 262.599 82.5716 262.71 85.0002C262.71 87.0976 262.932 89.195 263.376 91.2924C263.708 93.2794 264.374 94.9353 265.261 96.2599C266.148 97.695 267.368 98.3573 268.809 98.3573C269.475 98.3573 270.251 98.0262 271.138 97.3638C272.136 96.7015 272.802 96.3703 273.245 96.3703C273.8 96.3703 274.243 96.5911 274.798 97.1431C274.798 98.4677 274.243 99.5716 273.245 100.234C272.247 100.896 271.138 101.338 269.807 101.448C269.031 101.559 268.477 101.559 268.033 101.559C266.924 101.669 265.926 101.448 265.039 100.896Z" fill="#616161"/>
<path d="M301.967 101.117C301.745 100.786 301.634 100.344 301.634 99.7924C301.634 92.0651 301.523 85.6625 301.191 80.3638C300.304 80.2534 299.638 80.143 299.305 80.143C297.753 80.143 296.755 80.2534 296.09 80.5846C296.09 82.682 296.2 85.7729 296.533 89.8573C296.866 94.2729 296.977 97.3638 296.977 99.2405C296.977 99.5716 296.866 99.9028 296.644 100.234C296.422 100.565 296.2 100.676 295.868 100.676C295.424 100.676 294.981 99.7924 294.537 98.1366C293.982 95.5976 293.428 90.4093 293.095 82.4612C292.874 77.0521 292.652 71.2015 292.652 65.0197C292.652 63.9158 292.652 62.2599 292.652 60.1625C292.652 59.5002 292.984 59.169 293.65 59.169C293.982 59.169 294.426 59.2794 294.759 59.3898C295.202 59.6106 295.424 59.8314 295.646 59.9417C295.535 61.156 295.424 62.4807 295.424 64.0262C295.424 65.5716 295.535 67.4482 295.646 69.656C295.757 72.195 295.757 74.0716 295.757 75.3963V76.3898C295.757 76.721 295.646 77.0521 295.646 77.3833C295.646 77.7145 295.646 78.2664 295.757 78.8184C295.979 78.8184 296.311 78.8184 296.866 78.708C297.42 78.708 297.864 78.5976 298.418 78.5976C299.638 78.4872 300.525 78.3768 301.08 78.3768C301.08 75.1755 301.08 72.195 300.969 69.5456L300.858 60.3833V58.9482C301.302 58.9482 301.745 59.0586 302.078 59.169C302.411 59.3898 302.743 59.5002 302.854 59.8314C303.187 60.2729 303.409 60.9353 303.409 61.9288V63.143C303.409 66.3443 303.63 72.3054 303.963 81.2469C304.296 89.3054 304.407 95.3768 304.407 99.4612C304.407 100.013 304.296 100.455 303.963 100.786C303.63 101.227 303.298 101.338 302.854 101.338C302.521 101.559 302.189 101.448 301.967 101.117Z" fill="#616161"/>
<path d="M324.811 99.0195C324.811 98.1364 325.366 97.6949 326.475 97.6949H327.14C327.251 97.6949 327.473 97.8053 327.584 97.8053C327.916 97.8053 328.138 97.6949 328.249 97.5845C328.36 97.3637 328.471 97.0325 328.471 96.591C328.471 93.5001 328.249 89.1949 327.916 83.7858C327.584 78.1559 327.473 73.9611 327.473 71.091C327.473 70.0975 327.473 69.104 327.473 68.3312V65.5715C327.473 64.3572 327.473 63.3637 327.362 62.591C326.918 62.7014 326.586 62.8118 326.142 62.8118C325.255 62.8118 324.922 62.3702 324.922 61.4871C324.922 61.0455 325.144 60.7144 325.698 60.3832C326.253 60.052 326.918 59.8312 327.805 59.6105C329.358 59.3897 330.689 59.2793 331.687 59.2793C332.13 59.2793 332.463 59.3897 332.796 59.7209C333.128 60.052 333.239 60.3832 333.239 60.7144C333.239 61.1559 333.128 61.4871 332.907 61.7079C332.685 62.039 332.352 62.1494 332.019 62.1494C331.798 62.1494 331.576 62.1494 331.465 62.039H331.021C330.689 62.039 330.356 62.1494 330.245 62.2598C330.134 62.3702 330.023 62.7014 330.023 63.1429C330.023 67.0066 330.245 72.4157 330.689 79.2598C331.132 86.4351 331.354 91.8442 331.354 95.3767V97.4741C331.576 97.4741 332.019 97.3637 332.463 97.3637C334.016 97.3637 334.792 98.026 334.792 99.2403V99.5715L333.461 100.455C333.461 100.455 333.35 100.455 333.128 100.455C332.907 100.455 332.574 100.455 332.019 100.455C330.8 100.565 330.023 100.565 329.691 100.565C326.364 100.675 324.811 100.123 324.811 99.0195Z" fill="#616161"/>
<path d="M364.401 100.454C364.179 100.233 363.957 99.9021 363.957 99.3502V92.1749C363.514 91.8437 362.627 91.5125 361.296 91.2918C359.965 91.071 358.745 90.8502 357.525 90.8502C357.082 91.6229 356.86 92.506 356.638 93.6099L356.416 94.7138C356.416 94.9346 356.306 95.4866 356.084 96.3697C355.862 97.2528 355.64 98.0255 355.418 98.6879C355.197 99.3502 354.975 99.7918 354.753 100.233C353.311 100.233 352.535 99.9021 352.313 99.1294C352.757 98.5775 353.2 96.8112 353.644 93.9411L355.418 83.8957C356.195 79.1489 356.971 75.0645 357.636 71.6424C358.302 68.2203 359.078 65.4606 359.854 63.1424C360.741 60.6034 361.518 59.3892 362.294 59.3892C363.07 59.3892 363.625 59.4996 364.068 59.8307C364.068 61.2658 364.401 64.7983 365.066 70.4281C365.842 75.9476 366.175 79.7008 366.175 81.6879C366.175 83.6749 366.397 86.4346 366.73 90.0775C367.062 93.8307 367.284 96.7008 367.284 98.9086C367.284 100.123 366.619 100.785 365.51 100.785C365.066 100.785 364.623 100.675 364.401 100.454ZM363.957 88.7528C363.846 87.097 363.625 85.1099 363.403 82.7918C362.516 74.5125 362.183 69.4346 362.183 67.558V67.1164C361.85 67.4476 361.296 69.1034 360.63 72.084C359.965 75.0645 359.411 78.2658 358.856 81.5775C358.302 84.9995 357.969 87.2073 357.969 88.3112C359.521 88.7528 361.185 88.9736 362.848 88.9736C363.07 88.8632 363.514 88.8632 363.957 88.7528Z" fill="#616161"/>
<path d="M391.348 100.344C391.016 99.7918 390.905 99.1295 390.905 98.3568C390.905 97.1425 391.016 95.7074 391.126 93.9412L391.237 92.5061L391.348 89.636C391.348 88.3113 391.237 85.4412 390.905 81.0256C390.683 76.61 390.572 73.7399 390.572 72.4152C390.572 72.3048 390.572 72.084 390.572 71.7529C390.572 71.4217 390.572 70.9801 390.572 70.3178C390.572 69.5451 390.683 68.662 390.683 67.6685C390.683 65.0191 390.461 63.2529 390.128 62.5905C389.907 62.5905 389.463 62.7009 388.687 62.7009L387.134 62.8113C386.691 62.8113 386.247 62.7009 385.914 62.3698C385.582 62.149 385.36 61.7074 385.36 61.2659C385.36 60.8243 385.803 60.4931 386.691 60.162C388.021 59.7204 390.128 59.3892 393.233 59.2788C394.453 59.1685 395.23 59.1685 395.451 59.1685C395.895 59.1685 396.338 59.2788 396.671 59.61C397.004 59.9412 397.226 60.2724 397.226 60.7139C397.226 61.1555 397.115 61.4866 396.782 61.8178C396.449 62.0386 396.117 62.2594 395.562 62.2594H394.564C394.231 62.2594 393.899 62.149 393.566 62.149H393.012C393.233 64.6879 393.455 66.8957 393.455 68.8827L393.344 72.4152C393.344 73.5191 393.344 74.623 393.344 75.9477C393.344 77.7139 393.455 79.8113 393.566 82.2399C393.788 85.3308 393.788 87.4282 393.788 88.5321C393.788 89.9672 393.899 91.623 394.01 93.4996C394.121 95.4866 394.231 97.1425 394.231 98.4672C394.231 100.233 393.677 101.117 392.568 101.117C392.124 101.117 391.681 100.896 391.348 100.344Z" fill="#616161"/>
<path d="M425.615 99.7924V99.682C425.504 97.695 425.171 95.5976 424.617 93.169C424.062 90.7404 423.286 87.8703 422.177 84.5586C421.401 82.0197 420.735 79.7015 420.181 77.7145V99.3508C420.181 99.9028 420.07 100.344 419.848 100.676C419.627 100.896 419.294 101.117 418.628 101.117C418.185 101.117 417.852 101.007 417.63 100.676C417.409 100.455 417.187 100.013 417.187 99.5716V99.1301L417.298 82.9028C417.409 78.156 417.409 72.7469 417.409 66.7859V60.0521C417.409 59.6106 417.52 59.2794 417.63 59.169C417.852 59.0586 418.185 58.9482 418.739 58.9482C419.627 58.9482 420.514 59.169 421.29 59.5002C422.066 59.8314 422.732 60.3833 423.286 60.9353C424.395 62.2599 425.171 63.8054 425.504 65.5716C425.615 66.3443 425.726 67.1171 425.726 68.1106C425.726 68.6625 425.726 69.2145 425.615 69.8768C425.504 70.5391 425.504 70.9807 425.393 71.0911C425.282 71.4223 425.171 71.9742 424.95 72.7469C424.728 73.5197 424.506 73.9612 424.395 74.182L423.73 75.7275L423.175 77.1625C423.175 78.4872 423.397 80.143 423.841 82.1301C424.284 84.1171 424.728 85.9937 425.282 87.7599C425.615 88.9742 426.28 90.9612 427.278 93.8314L428.831 98.6885V98.7989C428.831 99.4612 428.72 99.9028 428.72 100.344C428.609 100.896 428.165 101.227 427.5 101.227C426.946 101.338 426.28 100.786 425.615 99.7924ZM421.955 72.9677L422.732 68.221C422.732 68.0002 422.732 67.7794 422.732 67.4482C422.732 66.3443 422.51 65.1301 422.177 63.8054C421.955 63.143 421.623 62.5911 421.29 62.1495C420.957 61.708 420.625 61.4872 420.181 61.3768L420.07 66.8963C419.959 69.3249 419.959 71.3119 419.959 72.6366C419.959 73.9612 419.959 74.734 419.959 75.1755C420.625 74.6236 421.179 73.9612 421.955 72.9677Z" fill="#616161"/>
<path d="M450.788 101.006C450.566 100.785 450.344 100.454 450.344 100.123L450.455 94.8242C450.566 92.3956 450.677 90.6294 450.677 89.5255C450.677 88.4216 450.455 86.8762 450.123 84.7788C449.79 82.6814 449.568 81.1359 449.568 80.032C449.568 78.597 449.346 77.0515 449.014 75.2853C448.57 73.519 448.127 71.7528 447.461 70.097C446.907 68.5515 446.352 66.7853 446.02 65.019C445.576 63.2528 445.465 61.597 445.465 60.2723C445.465 60.0515 445.576 59.8307 445.909 59.6099C446.241 59.3892 446.463 59.3892 446.796 59.3892C447.239 59.3892 447.572 59.8307 447.905 60.6034C448.348 61.597 448.792 62.9216 449.125 64.5775C449.568 66.3437 449.79 67.3372 449.79 67.6684L450.455 71.4216L451.01 73.8502C451.121 73.2983 451.232 72.5255 451.232 71.532C451.453 68.4411 451.786 65.9021 452.008 63.9151C452.23 62.4801 452.562 61.4866 452.895 60.7138C453.228 59.9411 453.671 59.4996 454.226 59.4996C455.224 59.4996 455.667 59.7203 455.667 60.0515C455.667 62.1489 455.224 65.2398 454.337 69.3242C453.45 73.4086 453.006 76.4995 453.006 78.5969L452.895 79.4801C452.784 80.032 452.784 80.3632 452.895 80.4736V81.3567C452.895 82.9021 452.895 85.3307 453.006 88.6424L453.117 95.9281L453.56 97.1424L453.671 98.4671V99.7918C453.671 100.233 453.45 100.564 453.117 100.896C452.784 101.227 452.341 101.337 451.786 101.337C451.453 101.448 451.121 101.337 450.788 101.006Z" fill="#616161"/>
</g>
<defs>
<clipPath id="clip0">
<rect width="456" height="102" fill="white"/>
</clipPath>
</defs>
</svg>
