<svg width="214" height="48" viewBox="0 0 214 48" fill="none" xmlns="http://www.w3.org/2000/svg">
<path d="M47.2549 37.299C47.2549 39.0133 47.0987 40.6757 46.8385 42.2861C46.214 38.4938 44.9129 34.9614 43.3516 31.7925C43.0914 31.2731 42.8312 30.7536 42.519 30.2341C40.9056 27.2731 39.1362 24.6757 37.5749 22.6497C37.2626 22.286 37.0024 21.9224 36.7422 21.6107C34.5564 18.9094 32.891 17.4029 32.891 17.4029C32.891 17.4029 31.2257 18.9614 29.0399 21.6107C28.7797 21.9224 28.4674 22.286 28.2072 22.6497C26.5939 24.7276 24.8244 27.2731 23.2631 30.2341C23.0029 30.7536 22.6906 31.2731 22.4304 31.7925C20.8691 34.9614 19.6201 38.4938 18.9436 42.2861C18.6834 40.6757 18.5272 39.0133 18.5272 37.299C18.5272 35.325 18.7874 33.4029 19.1517 31.5328V31.4809C19.1517 31.4289 19.0476 31.377 19.0476 31.377C19.0476 31.325 18.9436 31.325 18.9436 31.2731C18.9436 30.8055 19.2038 30.3899 19.3079 29.9224C19.516 29.0912 19.9844 28.2601 19.9844 27.4809H20.0885C20.9732 24.7276 22.2743 22.1821 23.5233 19.8964H23.6274H23.3152C23.6795 19.2211 24.1478 18.5458 24.1478 17.9224H24.356C28.3633 11.4289 32.891 7.37695 32.891 7.37695C32.891 7.37695 37.3667 11.4289 41.322 17.8185L41.4261 17.8705C41.4261 18.4938 42.1026 19.1692 42.4669 19.8445C43.7159 22.1302 44.8609 24.6757 45.7456 27.4289H45.5895C45.8497 28.2081 46.1099 29.0393 46.1099 29.8705C46.1099 30.338 46.4742 30.7536 46.5262 31.2211C46.5262 31.2731 46.6303 31.377 46.6303 31.4289C46.9946 33.351 47.2549 35.325 47.2549 37.299Z" fill="#E2B8AF"/>
<path d="M56.9868 40.5715C56.2582 41.5586 55.4255 42.4936 54.5928 43.3767C59.3287 34.4417 57.247 25.0391 57.247 25.0391C57.247 25.0391 53.604 26.078 49.0763 28.3637C48.5558 28.6235 48.0354 28.8832 47.515 29.1949C47.1507 29.4027 46.7343 29.6105 46.37 29.8183C45.3812 30.3897 44.3924 31.0131 43.4036 31.7404C43.1434 31.2209 42.8832 30.7014 42.5709 30.1819C43.5597 29.1949 44.6006 28.2599 45.6414 27.3767C46.5782 26.6495 47.515 25.9741 48.4518 25.3508C49.3885 24.7274 50.2733 24.2079 51.158 23.6884C56.6225 20.5715 61.5145 19.1689 61.5145 19.1689C61.5145 19.1689 64.1687 30.9092 56.9868 40.5715Z" fill="#E2B8AF"/>
<path d="M23.211 30.2342C22.9508 30.7537 22.6906 31.2731 22.4304 31.7926C21.4416 31.1173 20.5048 30.4939 19.516 29.9225C19.0997 29.6627 18.7354 29.455 18.319 29.2472C17.7986 28.9355 17.2782 28.6757 16.7577 28.416C12.23 26.1303 8.58701 25.0913 8.58701 25.0913C8.58701 25.0913 6.5053 34.4939 11.2412 43.429C10.3565 42.5459 9.57582 41.6108 8.84722 40.6238C1.66532 30.9095 4.3195 19.2212 4.3195 19.2212C4.3195 19.2212 8.95131 20.6238 14.5199 23.6887H14.3638C15.4046 24.2082 16.3414 24.7277 17.2261 25.3511C18.1629 25.9744 19.0476 26.6498 20.0885 27.429C21.1293 28.3121 22.2743 29.2472 23.211 30.2342Z" fill="#E2B8AF"/>
<path d="M46.6302 31.2729C46.6302 31.3249 46.6823 31.4288 46.6823 31.4807C46.5782 31.5846 46.4741 31.7405 46.318 31.8444C46.4741 31.6366 46.5782 31.4288 46.6302 31.2729Z" fill="#E2B8AF"/>
<path d="M51.21 23.7403C50.7417 25.2988 50.0651 26.8572 49.0763 28.4157C48.5559 28.6754 48.0354 28.9351 47.515 29.2468C47.9834 27.9481 48.2956 26.5975 48.5038 25.4027C49.2324 20.9351 48.4518 17.4027 48.4518 17.4027C48.4518 17.4027 45.7455 18.1819 42.3628 19.8442C40.8535 20.5715 39.2402 21.5066 37.6269 22.5975C37.3146 22.2338 37.0544 21.8702 36.7942 21.5585C38.1473 20.1559 39.7086 18.9092 41.2178 17.8702C46.4221 14.3377 51.8346 12.7793 51.8346 12.7793C51.8346 12.7793 52.9795 17.9222 51.21 23.7403Z" fill="#E2B8AF"/>
<path d="M19.2558 31.377C19.3078 31.5328 19.4119 31.6886 19.516 31.8445C19.4119 31.7406 19.3078 31.6367 19.2037 31.5328V31.4808C19.2037 31.4289 19.2558 31.377 19.2558 31.377Z" fill="#E2B8AF"/>
<path d="M29.0918 21.5585C28.8316 21.8702 28.5194 22.2338 28.2592 22.5975C26.6458 21.5066 25.0325 20.5715 23.5233 19.8442C20.1405 18.1819 17.4863 17.4027 17.4863 17.4027C17.4863 17.4027 16.9659 20.9351 17.4863 25.4027C17.4863 26.6494 17.9547 27.9481 18.4231 29.2468C17.9026 28.9351 17.3302 28.6754 16.8097 28.4157C15.8209 26.8572 15.1444 25.2988 14.676 23.7403C12.9065 17.9222 14.0515 12.7793 14.0515 12.7793C14.0515 12.7793 19.4639 14.3377 24.6682 17.8702C26.2295 18.9092 27.7387 20.1559 29.0918 21.5585Z" fill="#E2B8AF"/>
<path d="M0 36.6758C0.312257 51.8446 25.6571 37.4031 32.9431 47.8446C31.7461 32.9875 6.50535 45.3511 0 36.6758Z" fill="#848786"/>
<path d="M65.8862 36.6758C65.574 51.7927 40.2291 37.4031 32.9431 47.7927C34.1401 32.9875 59.3809 45.3511 65.8862 36.6758Z" fill="#848786"/>
<path d="M79.7816 20.1559C79.5734 20 79.5214 19.7922 79.5214 19.5844C79.5214 19.4286 79.5734 19.2208 79.6255 19.013C79.6775 18.7533 79.6775 18.5974 79.6775 18.4935C79.6775 16.9351 79.5734 13.974 79.4173 9.61041C79.2612 5.87015 79.1571 2.90912 79.1571 0.779246C79.1571 0.623402 79.2091 0.519506 79.3653 0.41561C79.4694 0.311714 79.6255 0.259766 79.7816 0.259766C79.9898 0.259766 80.1459 0.311714 80.302 0.467558C80.4582 0.623402 80.5623 0.779246 80.5623 0.987038C80.5623 2.026 80.6143 3.58444 80.7184 5.66236C80.8225 7.94808 80.8225 9.50652 80.8225 10.3377L80.8745 10.6494V10.9091V11.1169V11.2208C80.9266 12.7273 80.9266 14.9611 80.9266 17.974V18.6494H82.9042C83.2685 18.9091 83.4766 19.1689 83.4766 19.4286C83.4766 19.6364 83.4246 19.7922 83.2685 19.9481C83.1644 20.1039 83.0083 20.1559 82.8001 20.1559C82.7481 20.1559 82.644 20.1559 82.5399 20.1039L82.4358 20.052C82.3317 20.052 82.1756 20.1039 81.9674 20.1039H81.5511C81.447 20.1039 81.2909 20.052 81.1347 20.052C80.9786 20.2598 80.7184 20.3637 80.4061 20.3637C80.198 20.3637 79.9898 20.3117 79.7816 20.1559Z" fill="#616161"/>
<path d="M94.6138 20.3637C94.2495 20.0521 93.8852 19.6365 93.625 19.117C93.1045 18.1819 92.7402 16.8832 92.5321 15.2728C92.3759 14.13 92.2198 12.8313 92.1678 11.3767V10.0261V8.62348C92.1678 8.15595 92.1157 7.63647 92.1157 7.01309C92.1157 5.97413 92.1678 5.03907 92.2198 4.25985C92.2718 3.42868 92.48 2.59751 92.7402 1.81829C93.0004 1.09102 93.4168 0.623484 93.9372 0.311796C94.2495 0.155952 94.5617 0.104004 94.874 0.104004C95.8108 0.104004 96.5394 0.46764 97.0598 1.19491C97.6323 2.02608 98.0486 2.9092 98.2047 3.89621C98.4649 5.09102 98.6211 6.28582 98.6731 7.37673C98.7252 8.62348 98.7772 9.76634 98.7772 10.8573V12.3118C98.7772 12.6235 98.7252 13.143 98.6731 13.9741C98.6211 14.5975 98.569 15.1689 98.569 15.5845V15.6884C98.4649 16.156 98.4129 16.7274 98.4129 17.4027C98.4129 17.8702 98.3088 18.3897 98.1006 18.9092C97.8925 19.4287 97.5802 19.8443 97.2159 20.2079C96.8516 20.6235 96.3832 20.8313 95.9149 20.8313C95.4465 20.8313 94.9781 20.6754 94.6138 20.3637ZM96.8516 18.4417C97.0598 17.8702 97.2159 17.1949 97.32 16.3637C97.4241 15.5326 97.4761 14.5975 97.5802 13.5585C97.6323 13.091 97.6323 12.5196 97.6323 11.8443V9.45465C97.5802 8.51959 97.4761 7.37673 97.32 5.97413C97.1639 4.77933 96.9037 3.74037 96.5394 2.8053C96.3832 2.38972 96.1751 2.02608 95.9149 1.81829C95.6546 1.55855 95.3944 1.45465 95.0822 1.45465C94.6658 1.45465 94.3015 1.76634 94.1454 2.44167C93.8852 3.16894 93.729 3.94816 93.625 4.77933C93.5209 5.71439 93.4688 6.54556 93.4168 7.37673L93.3647 8.2079C93.3647 8.46764 93.3647 8.77933 93.3647 9.19491V9.29881C93.3647 10.4417 93.4688 11.8962 93.7291 13.5585C93.9893 15.8443 94.4056 17.5066 94.926 18.4417C95.2903 19.065 95.6546 19.3248 96.0189 19.3248C96.2791 19.3767 96.5914 19.065 96.8516 18.4417Z" fill="#616161"/>
<path d="M109.81 19.8962C109.654 19.6364 109.602 19.3247 109.602 18.9611C109.602 18.3897 109.654 17.7143 109.706 16.8832L109.758 16.2078L109.81 14.8572C109.81 14.2338 109.758 12.8832 109.602 10.8052C109.498 8.72732 109.394 7.37667 109.394 6.7533C109.394 6.70135 109.394 6.59745 109.394 6.44161C109.394 6.28576 109.394 6.07797 109.394 5.76628C109.394 5.40265 109.394 4.98706 109.394 4.51953C109.394 3.27278 109.29 2.44161 109.134 2.12992C109.03 2.12992 108.821 2.18187 108.457 2.18187L107.729 2.23382C107.52 2.23382 107.312 2.18187 107.156 2.02602C107 1.92213 106.896 1.71434 106.896 1.50654C106.896 1.29875 107.104 1.14291 107.52 0.987064C108.145 0.779271 109.134 0.623427 110.591 0.571479C111.163 0.519531 111.528 0.519531 111.632 0.519531C111.84 0.519531 112.048 0.571479 112.204 0.727323C112.36 0.883168 112.464 1.03901 112.464 1.2468C112.464 1.4546 112.412 1.61044 112.256 1.76628C112.1 1.87018 111.944 1.97408 111.684 1.97408H111.215C111.059 1.97408 110.903 1.92213 110.747 1.92213H110.487C110.591 3.11693 110.643 4.15589 110.643 5.09096V6.7533C110.643 7.27278 110.643 7.79226 110.643 8.41564C110.643 9.2468 110.695 10.2338 110.747 11.3767C110.851 12.8312 110.851 13.8182 110.851 14.3377C110.851 15.013 110.903 15.7923 110.955 16.6754C111.007 17.6104 111.059 18.3897 111.059 19.013C111.059 19.8442 110.799 20.2598 110.331 20.2598C110.175 20.2598 109.966 20.1559 109.81 19.8962Z" fill="#616161"/>
<path d="M124.018 19.1689C123.341 18.2338 122.873 17.039 122.613 15.6884C122.301 14.2338 122.092 12.6234 122.04 10.9611C121.936 9.4546 121.936 7.79226 121.936 6.02602V3.79226C121.936 3.16888 121.936 2.54551 121.936 1.87018C121.78 1.71434 121.728 1.55849 121.728 1.3507C121.728 1.14291 121.78 0.935116 121.988 0.779272C122.144 0.623427 122.301 0.519531 122.509 0.519531C123.133 0.519531 123.446 1.14291 123.446 2.33771C123.446 3.11693 123.498 4.62343 123.55 6.85719C123.654 9.09096 123.654 10.5975 123.654 11.3767C123.758 11.5845 123.81 12.052 123.914 12.7273C124.018 13.4026 124.018 13.9741 124.018 14.3897C124.018 14.7533 124.07 15.2208 124.226 15.7923C124.33 16.3637 124.538 16.9351 124.747 17.5065C124.955 18.1299 125.267 18.5975 125.631 19.013C125.996 19.3767 126.36 19.5845 126.776 19.5845C127.036 19.5845 127.245 19.5325 127.401 19.3767C127.557 19.2208 127.661 19.013 127.713 18.7013C127.817 18.2338 127.869 17.7663 127.869 17.2988V12.2598C127.869 11.6364 127.817 10.8052 127.713 9.81823C127.609 8.72732 127.557 7.89615 127.557 7.37667V7.22083C127.557 6.96109 127.557 6.70135 127.557 6.49356L127.505 5.76628C127.505 5.29875 127.505 4.57148 127.453 3.58447C127.401 2.70135 127.349 1.97408 127.349 1.3507C127.349 1.14291 127.453 0.987064 127.661 0.883168C127.869 0.727323 128.077 0.675375 128.338 0.675375L128.962 1.2468V1.55849C128.962 1.76628 128.91 2.02602 128.858 2.28577C128.806 2.7533 128.754 3.06499 128.754 3.11693C128.754 4.67538 128.858 6.85719 129.014 9.61044C129.17 12.5195 129.274 14.7533 129.274 16.3637C129.274 17.2468 129.17 17.9741 129.014 18.6494C128.91 19.065 128.754 19.3767 128.598 19.5845C128.442 19.8442 128.181 20.052 127.869 20.2078C127.557 20.3637 127.193 20.4676 126.724 20.4676C125.527 20.5715 124.642 20.1039 124.018 19.1689Z" fill="#616161"/>
<path d="M139.11 20.3119C138.85 20.1561 138.694 20.0002 138.694 19.7924C138.694 19.5846 138.746 19.4288 138.85 19.2729C138.954 19.169 139.11 19.0652 139.319 19.0652C139.475 19.0652 139.735 19.1171 140.047 19.2729C140.411 19.4288 140.62 19.4807 140.724 19.4807C141.036 19.4807 141.348 19.3249 141.608 19.0652C141.869 18.8054 142.077 18.3898 142.233 17.9223C142.545 17.0392 142.701 16.26 142.701 15.5846C142.701 14.8574 142.597 14.0781 142.337 13.247C142.129 12.4158 141.765 11.6366 141.4 10.8574L140.984 10.0262C140.568 9.14307 140.203 8.46775 139.995 8.00022C139.735 7.48074 139.579 6.96126 139.371 6.38983C139.11 5.55866 139.006 4.77944 139.006 4.00022C139.006 3.37684 139.11 2.80541 139.319 2.23398C139.527 1.66255 139.839 1.19502 140.307 0.831384C140.724 0.4158 141.296 0.208008 141.921 0.208008C142.233 0.208008 142.545 0.311904 142.805 0.467748C143.118 0.623592 143.326 0.883333 143.43 1.14307L143.014 1.66255C142.545 1.66255 142.233 1.55866 142.025 1.40281C141.713 1.45476 141.452 1.61061 141.192 1.87035C140.984 2.13009 140.776 2.44177 140.672 2.80541C140.568 3.1171 140.516 3.48074 140.516 3.79242C140.516 4.46775 140.62 5.14307 140.776 5.8184C140.984 6.49372 141.192 7.16905 141.504 7.74048L143.326 11.3768C143.638 12.0002 143.846 12.6755 144.002 13.4548C144.159 14.234 144.263 15.0132 144.263 15.7924C144.263 16.9353 144.002 18.0262 143.43 19.0132C143.118 19.5327 142.753 19.9483 142.285 20.26C141.817 20.5716 141.296 20.7275 140.724 20.7275C140.099 20.6755 139.579 20.5716 139.11 20.3119Z" fill="#616161"/>
<path d="M79.8857 47.325C79.7816 47.1692 79.7296 46.9614 79.7296 46.7017L79.7816 42.338C79.8337 40.2081 79.8337 38.5978 79.8337 37.4549C79.8337 33.403 79.6255 30.338 79.1571 28.2081C79.4173 27.7926 79.7296 27.6367 80.1459 27.6367C80.7704 27.6367 81.3949 27.7926 81.9154 28.0523C82.4358 28.312 82.9042 28.7276 83.2164 29.1952C83.893 30.1822 84.2053 31.325 84.2053 32.5718C84.2053 33.8705 83.945 35.0133 83.3726 36.0523C82.8001 37.0913 82.0195 37.8705 80.9786 38.4419L81.0306 41.0393L81.0827 42.39C81.0827 42.7017 81.0827 43.1172 81.0827 43.6367C81.1347 44.7796 81.1347 45.7146 81.1347 46.4419C81.1347 46.7536 81.0827 47.0133 80.9266 47.2211C80.7704 47.4289 80.5623 47.4809 80.302 47.4809C80.198 47.5328 80.0418 47.4809 79.8857 47.325ZM82.4358 35.1172C82.7481 34.4419 82.9042 33.6107 82.9042 32.7276C82.9042 32.312 82.8521 31.8445 82.8001 31.2211C82.7481 31.0133 82.644 30.8056 82.5399 30.5978C82.3838 30.39 82.3317 30.2861 82.2797 30.2341C82.1756 30.0783 81.8633 29.8185 81.3429 29.4549L80.6663 28.9874C80.6663 29.8705 80.7184 31.2211 80.8225 33.0913L80.9786 37.1952C81.6552 36.5198 82.1235 35.8445 82.4358 35.1172Z" fill="#616161"/>
<path d="M93.625 47.6366C93.3648 47.4808 93.2087 47.3249 93.2087 47.1171C93.2087 46.9093 93.2607 46.7535 93.3648 46.5977C93.4689 46.4938 93.625 46.3899 93.7811 46.3899C93.9373 46.3899 94.1975 46.4418 94.5097 46.5977C94.874 46.7535 95.0822 46.8054 95.1863 46.8054C95.4986 46.8054 95.8108 46.6496 96.071 46.3899C96.3312 46.1301 96.5394 45.7145 96.6955 45.247C97.0078 44.3639 97.1639 43.5847 97.1639 42.9093C97.1639 42.1821 97.0598 41.4028 96.7996 40.5717C96.5915 39.7405 96.2272 38.9613 95.8629 38.1821L95.4465 37.3509C95.0302 36.4678 94.6659 35.7925 94.4577 35.3249C94.1975 34.8054 94.0414 34.286 93.8332 33.7145C93.573 32.8834 93.4689 32.1041 93.4689 31.3249C93.4689 30.7015 93.573 30.1301 93.7811 29.5587C93.9893 28.9873 94.3016 28.5197 94.77 28.1561C95.1863 27.7405 95.7588 27.5327 96.3833 27.5327C96.6955 27.5327 97.0078 27.6366 97.268 27.7925C97.5803 27.9483 97.7884 28.208 97.8925 28.4678L97.4762 28.9873C97.0078 28.9873 96.6955 28.8834 96.4874 28.7275C96.1751 28.7795 95.9149 28.9353 95.6547 29.1951C95.4465 29.4548 95.2383 29.7665 95.1343 30.1301C95.0302 30.4418 94.9781 30.8054 94.9781 31.1171C94.9781 31.7925 95.0822 32.4678 95.2383 33.1431C95.4465 33.8184 95.6547 34.4938 95.9669 35.0652L97.7884 38.7015C98.1007 39.3249 98.3089 40.0002 98.465 40.7795C98.6211 41.5587 98.7252 42.3379 98.7252 43.1171C98.7252 44.26 98.465 45.3509 97.8925 46.3379C97.5803 46.8574 97.216 47.273 96.7476 47.5847C96.2792 47.8964 95.7588 48.0522 95.1863 48.0522C94.6138 48.0003 94.0414 47.8964 93.625 47.6366Z" fill="#616161"/>
<path d="M109.862 47.5327C109.758 47.4288 109.654 47.2729 109.654 47.1171L109.706 44.6236C109.758 43.4807 109.758 42.6495 109.758 42.1301C109.758 41.6106 109.706 40.8833 109.55 39.8963C109.394 38.9093 109.29 38.182 109.29 37.6625C109.29 36.9872 109.186 36.2599 109.03 35.4288C108.821 34.5976 108.613 33.7664 108.301 32.9872C108.041 32.2599 107.781 31.4288 107.624 30.5976C107.416 29.7664 107.364 28.9872 107.364 28.3638C107.364 28.2599 107.416 28.156 107.572 28.0521C107.729 27.9482 107.833 27.9482 107.989 27.9482C108.197 27.9482 108.353 28.156 108.509 28.5197C108.717 28.9872 108.926 29.6106 109.082 30.3898C109.29 31.221 109.394 31.6885 109.394 31.8443L109.706 33.6106L109.966 34.7534C110.018 34.4937 110.07 34.1301 110.07 33.6625C110.175 32.208 110.279 31.0132 110.435 30.0781C110.539 29.4028 110.695 28.9353 110.851 28.5716C111.007 28.208 111.215 28.0002 111.476 28.0002C111.944 28.0002 112.152 28.1041 112.152 28.2599C112.152 29.2469 111.944 30.7015 111.528 32.6236C111.111 34.5456 110.903 36.0002 110.903 36.9872L110.851 37.4028C110.799 37.6625 110.799 37.8184 110.851 37.8703V38.2859C110.851 39.0132 110.851 40.156 110.903 41.7145L110.955 45.143L111.007 45.7145L111.059 46.3378V46.9612C111.059 47.169 110.955 47.3249 110.799 47.4807C110.643 47.6365 110.435 47.6885 110.175 47.6885C110.175 47.7404 110.018 47.6885 109.862 47.5327Z" fill="#616161"/>
<path d="M124.382 47.481C123.966 47.2732 123.602 46.9615 123.341 46.5979C123.081 46.2342 122.873 45.7667 122.665 45.1953C122.457 44.6238 122.301 44.0524 122.196 43.429C121.988 42.3901 121.832 41.0914 121.78 39.429C121.78 39.0134 121.728 38.3381 121.728 37.4031V35.7927C121.728 35.3251 121.78 34.8576 121.78 34.3381C121.78 33.2992 121.832 32.5199 121.936 31.9485C121.884 31.6888 121.884 31.429 121.884 31.1693C121.884 30.1303 122.249 29.2992 123.029 28.6758C123.81 28.0524 124.799 27.7407 125.996 27.7407C126.464 27.7407 126.88 27.8446 127.245 28.1044C127.609 28.3641 127.817 28.6238 127.817 28.9875C127.817 29.1433 127.765 29.2992 127.609 29.4031C127.453 29.507 127.297 29.5589 127.089 29.5589C126.932 29.5589 126.724 29.5589 126.516 29.507C126.308 29.455 126.204 29.4031 126.152 29.2992H125.839V29.2472C125.215 29.2472 124.642 29.4031 124.226 29.6628C123.914 29.8706 123.654 30.2342 123.498 30.7537C123.446 30.9615 123.393 31.1693 123.341 31.481C123.289 31.7927 123.289 32.0524 123.289 32.2602C123.289 32.416 123.289 32.6758 123.289 33.0914L123.341 33.9745L123.393 34.8576C123.393 35.1173 123.341 35.429 123.289 35.7407C123.185 36.1563 123.185 36.468 123.185 36.6238V37.2472C123.185 37.9225 123.237 38.8576 123.289 40.0005C123.289 40.9875 123.393 41.9745 123.602 42.9615C123.758 43.8966 124.07 44.6758 124.486 45.2992C124.903 45.9745 125.475 46.2862 126.152 46.2862C126.464 46.2862 126.828 46.1303 127.245 45.8186C127.713 45.507 128.025 45.3511 128.233 45.3511C128.494 45.3511 128.702 45.455 128.962 45.7147C128.962 46.3381 128.702 46.8576 128.233 47.1693C127.765 47.481 127.245 47.6888 126.62 47.7407C126.256 47.7927 125.996 47.7927 125.787 47.7927C125.267 47.8446 124.799 47.7407 124.382 47.481Z" fill="#616161"/>
<path d="M141.713 47.5849C141.608 47.429 141.556 47.2212 141.556 46.9615C141.556 43.3251 141.504 40.3122 141.348 37.8186C140.932 37.7667 140.62 37.7147 140.464 37.7147C139.735 37.7147 139.267 37.7667 138.954 37.9225C138.954 38.9096 139.006 40.3641 139.162 42.2862C139.319 44.3641 139.371 45.8186 139.371 46.7018C139.371 46.8576 139.319 47.0135 139.214 47.1693C139.11 47.3251 139.006 47.3771 138.85 47.3771C138.642 47.3771 138.434 46.9615 138.226 46.1823C137.965 44.9875 137.705 42.5459 137.549 38.8057C137.445 36.2602 137.341 33.507 137.341 30.5979C137.341 30.0784 137.341 29.2992 137.341 28.3122C137.341 28.0005 137.497 27.8446 137.809 27.8446C137.965 27.8446 138.174 27.8966 138.33 27.9485C138.538 28.0524 138.642 28.1563 138.746 28.2083C138.694 28.7797 138.642 29.4031 138.642 30.1303C138.642 30.8576 138.694 31.7407 138.746 32.7797C138.798 33.9745 138.798 34.8576 138.798 35.481V35.9485C138.798 36.1044 138.746 36.2602 138.746 36.416C138.746 36.5719 138.746 36.8316 138.798 37.0914C138.902 37.0914 139.058 37.0914 139.319 37.0394C139.579 37.0394 139.787 36.9875 140.047 36.9875C140.62 36.9355 141.036 36.8836 141.296 36.8836C141.296 35.3771 141.296 33.9745 141.244 32.7277L141.192 28.416V27.7407C141.4 27.7407 141.608 27.7927 141.765 27.8446C141.921 27.9485 142.077 28.0005 142.129 28.1563C142.285 28.3641 142.389 28.6758 142.389 29.1433V29.7147C142.389 31.2212 142.493 34.0264 142.649 38.2342C142.805 42.0264 142.857 44.8836 142.857 46.8057C142.857 47.0654 142.805 47.2732 142.649 47.429C142.493 47.6368 142.337 47.6888 142.129 47.6888C141.973 47.7927 141.817 47.7407 141.713 47.5849Z" fill="#616161"/>
<path d="M152.433 46.5978C152.433 46.1822 152.694 45.9744 153.214 45.9744H153.526C153.578 45.9744 153.682 46.0264 153.734 46.0264C153.891 46.0264 153.995 45.9744 154.047 45.9225C154.099 45.8186 154.151 45.6627 154.151 45.4549C154.151 44.0004 154.047 41.9744 153.891 39.429C153.734 36.7796 153.682 34.8056 153.682 33.4549C153.682 32.9874 153.682 32.5199 153.682 32.1562V30.8575C153.682 30.2861 153.682 29.8186 153.63 29.4549C153.422 29.5069 153.266 29.5588 153.058 29.5588C152.642 29.5588 152.485 29.351 152.485 28.9354C152.485 28.7277 152.589 28.5718 152.85 28.416C153.11 28.2601 153.422 28.1562 153.839 28.0523C154.567 27.9484 155.192 27.8965 155.66 27.8965C155.868 27.8965 156.024 27.9484 156.18 28.1043C156.337 28.2601 156.389 28.416 156.389 28.5718C156.389 28.7796 156.337 28.9354 156.232 29.0393C156.128 29.1952 155.972 29.2471 155.816 29.2471C155.712 29.2471 155.608 29.2471 155.556 29.1952H155.348C155.192 29.1952 155.035 29.2471 154.983 29.2991C154.931 29.351 154.879 29.5069 154.879 29.7147C154.879 31.5328 154.983 34.0783 155.192 37.2991C155.4 40.6757 155.504 43.2212 155.504 44.8835V45.8705C155.608 45.8705 155.816 45.8186 156.024 45.8186C156.753 45.8186 157.117 46.1302 157.117 46.7017V46.8575L156.493 47.2731C156.493 47.2731 156.441 47.2731 156.337 47.2731C156.232 47.2731 156.076 47.2731 155.816 47.2731C155.244 47.3251 154.879 47.3251 154.723 47.3251C153.162 47.377 152.433 47.1173 152.433 46.5978Z" fill="#616161"/>
<path d="M171.013 47.2729C170.909 47.169 170.804 47.0132 170.804 46.7534V43.3768C170.596 43.221 170.18 43.0651 169.555 42.9612C168.931 42.8573 168.358 42.7534 167.786 42.7534C167.578 43.1171 167.474 43.5327 167.37 44.0521L167.266 44.5716C167.266 44.6755 167.214 44.9353 167.109 45.3508C167.005 45.7664 166.901 46.1301 166.797 46.4417C166.693 46.7534 166.589 46.9612 166.485 47.169C165.808 47.169 165.444 47.0132 165.34 46.6495C165.548 46.3898 165.756 45.5586 165.964 44.208L166.797 39.4807C167.161 37.2469 167.526 35.3249 167.838 33.7145C168.15 32.1041 168.515 30.8054 168.879 29.7145C169.295 28.5197 169.66 27.9482 170.024 27.9482C170.388 27.9482 170.648 28.0002 170.856 28.156C170.856 28.8314 171.013 30.4937 171.325 33.143C171.689 35.7404 171.845 37.5067 171.845 38.4417C171.845 39.3768 171.949 40.6755 172.106 42.3898C172.262 44.156 172.366 45.5067 172.366 46.5456C172.366 47.1171 172.053 47.4288 171.533 47.4288C171.325 47.4288 171.117 47.3768 171.013 47.2729ZM170.804 41.7664C170.752 40.9872 170.648 40.0521 170.544 38.9612C170.128 35.0651 169.972 32.6755 169.972 31.7924V31.5846C169.816 31.7404 169.555 32.5197 169.243 33.9223C168.931 35.3249 168.671 36.8314 168.41 38.3898C168.15 40.0002 167.994 41.0391 167.994 41.5586C168.723 41.7664 169.503 41.8703 170.284 41.8703C170.388 41.8184 170.596 41.8184 170.804 41.7664Z" fill="#616161"/>
<path d="M183.659 47.2209C183.503 46.9611 183.451 46.6494 183.451 46.2858C183.451 45.7144 183.503 45.039 183.555 44.2079L183.607 43.5326L183.659 42.1819C183.659 41.5585 183.607 40.2079 183.451 38.13C183.347 36.052 183.295 34.7014 183.295 34.078C183.295 34.0261 183.295 33.9222 183.295 33.7663C183.295 33.6105 183.295 33.4027 183.295 33.091C183.295 32.7274 183.347 32.3118 183.347 31.8442C183.347 30.5975 183.243 29.7663 183.087 29.4546C182.982 29.4546 182.774 29.5066 182.41 29.5066L181.681 29.5585C181.473 29.5585 181.265 29.5066 181.109 29.3507C180.953 29.2468 180.849 29.039 180.849 28.8313C180.849 28.6235 181.057 28.4676 181.473 28.3118C182.098 28.104 183.087 27.9481 184.544 27.8962C185.116 27.8442 185.481 27.8442 185.585 27.8442C185.793 27.8442 186.001 27.8962 186.157 28.052C186.313 28.2079 186.417 28.3637 186.417 28.5715C186.417 28.7793 186.365 28.9351 186.209 29.091C186.053 29.1949 185.897 29.2988 185.637 29.2988H185.168C185.012 29.2988 184.856 29.2468 184.7 29.2468H184.44C184.544 30.4416 184.648 31.4806 184.648 32.4157L184.596 34.078C184.596 34.5975 184.596 35.117 184.596 35.7403C184.596 36.5715 184.648 37.5585 184.7 38.7014C184.804 40.1559 184.804 41.1429 184.804 41.6624C184.804 42.3377 184.856 43.117 184.908 44.0001C184.96 44.9351 185.012 45.7144 185.012 46.3377C185.012 47.1689 184.752 47.5845 184.231 47.5845C184.023 47.5845 183.815 47.4806 183.659 47.2209Z" fill="#616161"/>
<path d="M199.74 46.9615V46.9096C199.688 45.9745 199.532 44.9875 199.272 43.8446C199.012 42.7018 198.647 41.3511 198.127 39.7927C197.763 38.5979 197.45 37.507 197.19 36.5719V46.7537C197.19 47.0134 197.138 47.2212 197.034 47.3771C196.93 47.481 196.774 47.5849 196.462 47.5849C196.253 47.5849 196.097 47.5329 195.993 47.3771C195.889 47.2732 195.785 47.0654 195.785 46.8576V46.6498L195.837 39.0134C195.889 36.7797 195.889 34.2342 195.889 31.429V28.2602C195.889 28.0524 195.941 27.8966 195.993 27.8446C196.097 27.7927 196.253 27.7407 196.514 27.7407C196.93 27.7407 197.346 27.8446 197.711 28.0005C198.075 28.1563 198.387 28.416 198.647 28.6758C199.168 29.2992 199.532 30.0264 199.688 30.8576C199.74 31.2212 199.792 31.5849 199.792 32.0524C199.792 32.3122 199.792 32.5719 199.74 32.8836C199.688 33.1953 199.688 33.4031 199.636 33.455C199.584 33.6109 199.532 33.8706 199.428 34.2342C199.324 34.5979 199.22 34.8057 199.168 34.9096L198.856 35.6368L198.595 36.3122C198.595 36.9355 198.699 37.7147 198.908 38.6498C199.116 39.5849 199.324 40.468 199.584 41.2992C199.74 41.8706 200.053 42.8057 200.521 44.1563L201.25 46.442V46.494C201.25 46.8057 201.197 47.0135 201.197 47.2212C201.145 47.481 200.937 47.6368 200.625 47.6368C200.365 47.6888 200.053 47.429 199.74 46.9615ZM198.023 34.3381L198.387 32.1044C198.387 32.0005 198.387 31.8966 198.387 31.7407C198.387 31.2212 198.283 30.6498 198.127 30.0264C198.023 29.7147 197.867 29.455 197.711 29.2472C197.554 29.0394 197.398 28.9355 197.19 28.8836L197.138 31.481C197.086 32.6238 197.086 33.5589 197.086 34.1823C197.086 34.8057 197.086 35.1693 197.086 35.3771C197.398 35.1173 197.659 34.8057 198.023 34.3381Z" fill="#616161"/>
<path d="M211.554 47.5327C211.45 47.4288 211.346 47.2729 211.346 47.1171L211.398 44.6236C211.45 43.4807 211.502 42.6495 211.502 42.1301C211.502 41.6106 211.398 40.8833 211.242 39.8963C211.086 38.9093 210.982 38.182 210.982 37.6625C210.982 36.9872 210.877 36.2599 210.721 35.4288C210.513 34.5976 210.305 33.7664 209.993 32.9872C209.733 32.2599 209.472 31.4288 209.316 30.5976C209.108 29.7664 209.056 28.9872 209.056 28.3638C209.056 28.2599 209.108 28.156 209.264 28.0521C209.42 27.9482 209.524 27.9482 209.68 27.9482C209.889 27.9482 210.045 28.156 210.201 28.5197C210.409 28.9872 210.617 29.6106 210.773 30.3898C210.982 31.221 211.086 31.6885 211.086 31.8443L211.398 33.6106L211.658 34.7534C211.71 34.4937 211.762 34.1301 211.762 33.6625C211.866 32.208 212.022 31.0132 212.126 30.0781C212.231 29.4028 212.387 28.9353 212.543 28.5716C212.699 28.208 212.907 28.0002 213.167 28.0002C213.636 28.0002 213.844 28.1041 213.844 28.2599C213.844 29.2469 213.636 30.7015 213.219 32.6236C212.803 34.5456 212.595 36.0002 212.595 36.9872L212.543 37.4028C212.491 37.6625 212.491 37.8184 212.543 37.8703V38.2859C212.543 39.0132 212.543 40.156 212.595 41.7145L212.647 45.143L212.855 45.7145L212.907 46.3378V46.9612C212.907 47.169 212.803 47.3249 212.647 47.4807C212.491 47.6365 212.283 47.6885 212.022 47.6885C211.866 47.7404 211.71 47.6885 211.554 47.5327Z" fill="#616161"/>
</svg>
