<svg width="168" height="455" viewBox="0 0 168 455" fill="none" xmlns="http://www.w3.org/2000/svg">
<path d="M58.3081 371.276C58.3081 371.276 79.836 282.229 140.465 240.41C142.223 239.094 144.712 240.703 144.42 242.896C142.223 260.442 130.8 318.345 75.589 384.436L58.3081 371.276Z" fill="#EFE3DC"/>
<path d="M75.5891 351.683C75.4426 351.683 75.2962 351.683 75.2962 351.537C75.0033 351.39 75.0033 350.952 75.1497 350.659C77.0535 347.735 129.335 263.805 129.775 262.928C129.921 262.635 130.361 262.635 130.653 262.782C130.946 262.928 130.946 263.366 130.8 263.659C128.603 267.168 78.0787 348.466 76.1749 351.39C76.0284 351.683 75.882 351.683 75.5891 351.683Z" fill="#333333"/>
<path d="M5.14762 278.427C5.14762 278.427 -16.5267 87.7574 36.9268 1.63443C38.5377 -0.997508 42.0525 -0.266413 43.3705 2.51175C54.0612 24.2984 53.0361 173.442 19.7924 287.054L5.14762 278.427Z" fill="#EFE3DC"/>
<path d="M14.081 246.405C13.7881 246.405 13.4952 246.113 13.4952 245.82C13.4952 235.146 34.1443 37.8968 35.0229 29.5623C35.0229 29.2699 35.3158 28.9774 35.6087 28.9774C35.9016 28.9774 36.1945 29.2699 36.1945 29.5623C36.0481 31.7556 14.6668 235.293 14.6668 245.82C14.6668 246.113 14.5203 246.405 14.081 246.405Z" fill="#333333"/>
<path d="M14.2274 449.942C14.2274 449.942 -15.7944 265.706 88.0371 124.897C91.5519 120.218 98.8743 121.534 100.632 127.09C112.055 165.692 134.315 288.662 24.7717 454.036L14.2274 449.942Z" fill="#C6D7D0"/>
<path d="M32.6799 401.397C32.5334 401.397 32.387 401.397 32.2405 401.251C31.9477 400.959 31.9477 400.666 32.2405 400.374C34.7302 396.718 67.6809 246.551 84.8153 167.739C84.8153 167.447 85.2546 167.154 85.5475 167.301C85.8404 167.301 86.1333 167.739 85.9869 168.032C80.8612 191.573 36.0482 398.327 33.1192 401.251C32.9728 401.397 32.8263 401.397 32.6799 401.397Z" fill="#333333"/>
<path d="M19.6459 444.678C19.6459 444.678 57.7223 321.269 160.382 288.809C163.751 287.785 167.705 292.172 166.972 296.266C161.993 324.632 137.976 408.123 24.4787 452.281L19.6459 444.678Z" fill="#C6D7D0"/>
<path d="M45.4208 423.915C45.1279 423.915 44.9815 423.769 44.835 423.476C44.6886 423.184 44.9815 422.892 45.2744 422.745C50.5465 421.283 113.226 352.706 145.591 316.737C145.738 316.444 146.177 316.444 146.47 316.737C146.763 316.883 146.763 317.321 146.47 317.614C142.662 321.854 52.5968 422.014 45.5673 424.061C45.5673 423.915 45.4208 423.915 45.4208 423.915Z" fill="#333333"/>
</svg>
