<svg width="54" height="54" viewBox="0 0 54 54" fill="none" xmlns="http://www.w3.org/2000/svg">
<g clip-path="url(#clip0)">
<path d="M52.1145 21.9589C51.562 21.0309 51.04 20.1542 50.7565 19.2809C50.4554 18.3534 50.3543 17.3033 50.2473 16.1914C50.0762 14.4148 49.8995 12.5776 48.8444 11.1279C47.7783 9.66301 46.0783 8.92758 44.4344 8.2163C43.4163 7.77586 42.4548 7.35978 41.6788 6.7951C40.9175 6.24108 40.2344 5.4623 39.5111 4.63785C38.3227 3.28321 37.0939 1.88248 35.3452 1.31474C33.6722 0.771468 31.8866 1.16729 30.1597 1.54993C29.1001 1.78481 28.0044 2.0276 27 2.0276C25.9957 2.0276 24.8999 1.78471 23.8403 1.54993C22.1134 1.16729 20.3277 0.771468 18.6547 1.31484C16.9061 1.88258 15.6773 3.28331 14.4889 4.63795C13.7657 5.4623 13.0824 6.24108 12.3212 6.7951C12.0533 6.99012 11.7476 7.17848 11.3867 7.37096C11.0012 7.57652 10.8555 8.05567 11.061 8.44116C11.2666 8.82664 11.7457 8.9723 12.1313 8.76674C12.5576 8.53935 12.9244 8.3128 13.2521 8.07412C14.1557 7.41653 14.9297 6.53428 15.6782 5.68114C16.7739 4.43239 17.8086 3.25283 19.1434 2.81935C20.4068 2.40929 21.9084 2.74205 23.4981 3.09442C24.6409 3.34765 25.8227 3.60953 27.0002 3.60953C28.1778 3.60953 29.3594 3.34765 30.5023 3.09431C32.0922 2.74205 33.594 2.40929 34.8569 2.81925C36.1917 3.25262 37.2266 4.43218 38.3222 5.68104C39.0707 6.53417 39.8446 7.41642 40.7483 8.07402C41.6659 8.74185 42.7541 9.21266 43.8066 9.66797C45.3222 10.3237 46.7538 10.9431 47.5656 12.0585C48.3664 13.159 48.5152 14.7055 48.6729 16.3428C48.7833 17.4904 48.8975 18.677 49.2522 19.7692C49.5905 20.8111 50.1829 21.8059 50.7557 22.768C51.6103 24.2044 52.418 25.5608 52.418 27C52.418 28.4391 51.6103 29.7956 50.7551 31.2318C50.1824 32.1939 49.59 33.1887 49.2518 34.2304C48.8971 35.3226 48.783 36.5092 48.6725 37.6569C48.5149 39.2941 48.3661 40.8407 47.5651 41.9412C46.7533 43.0566 45.3218 43.6759 43.8061 44.3316C42.7537 44.7869 41.6654 45.2578 40.7479 45.9256C39.8443 46.5832 39.0703 47.4654 38.3218 48.3186C37.2261 49.5673 36.1914 50.7469 34.8566 51.1803C33.5934 51.5904 32.0918 51.2576 30.5019 50.9052C29.359 50.652 28.1773 50.3901 26.9999 50.3901C25.8223 50.3901 24.6407 50.652 23.4978 50.9052C21.908 51.2576 20.4064 51.5903 19.1431 51.1803C17.8083 50.7469 16.7734 49.5673 15.6779 48.3185C14.9294 47.4653 14.1555 46.5831 13.2518 45.9255C12.3343 45.2577 11.2459 44.7868 10.1936 44.3315C8.67797 43.6758 7.24634 43.0564 6.43454 41.9411C5.63372 40.8406 5.4849 39.2941 5.32723 37.6568C5.2168 36.5092 5.10258 35.3226 4.74799 34.2304C4.40975 33.1887 3.81744 32.1938 3.24464 31.2318C2.38971 29.7956 1.58203 28.4391 1.58203 27C1.58203 25.5608 2.38971 24.2044 3.24485 22.7682C3.81765 21.8062 4.40997 20.8113 4.7482 19.7696C5.10289 18.6773 5.21701 17.4906 5.32754 16.343C5.48511 14.7057 5.63393 13.1592 6.43486 12.0587C6.89629 11.4248 7.58753 10.8998 8.67628 10.3568C9.06725 10.1618 9.22609 9.68674 9.03108 9.29587C8.83607 8.9049 8.36104 8.74607 7.97017 8.94108C7.07621 9.387 5.94844 10.0386 5.15563 11.128C4.10052 12.5777 3.92375 14.4148 3.75268 16.1915C3.64574 17.3034 3.54459 18.3535 3.24348 19.2811C2.95998 20.1544 2.43802 21.031 1.88546 21.959C0.9585 23.5157 0 25.1256 0 27C0 28.8745 0.9585 30.4843 1.88546 32.0412C2.43802 32.9692 2.95998 33.8457 3.24348 34.719C3.54459 35.6465 3.64563 36.6967 3.75268 37.8084C3.92365 39.5851 4.10052 41.4223 5.15563 42.8721C6.22171 44.3369 7.92165 45.0723 9.56559 45.7836C10.5837 46.2241 11.5453 46.6401 12.3212 47.2048C13.0824 47.7589 13.7656 48.5375 14.4889 49.362C15.6773 50.7166 16.9062 52.1175 18.6548 52.6851C19.244 52.8764 19.847 52.9513 20.4566 52.9513C21.5781 52.9513 22.7216 52.6978 23.8403 52.45C24.8999 52.2151 25.9957 51.9723 27 51.9723C28.0044 51.9723 29.1001 52.2151 30.1597 52.45C31.8866 52.8326 33.6722 53.2285 35.3453 52.6851C37.0939 52.1173 38.3227 50.7166 39.511 49.362C40.2343 48.5375 40.9175 47.7589 41.6788 47.2047C42.4547 46.6401 43.4163 46.2241 44.4344 45.7835C46.0783 45.0722 47.7783 44.3368 48.8444 42.872C49.8995 41.4222 50.0762 39.585 50.2473 37.8084C50.3543 36.6966 50.4554 35.6464 50.7565 34.7189C51.04 33.8456 51.562 32.9691 52.1145 32.0411C53.0415 30.4842 54 28.8744 54 27C54 25.1256 53.0415 23.5157 52.1145 21.9589Z" fill="#557571"/>
<path d="M7.59946 20.6964C7.37481 21.3883 6.95578 22.0918 6.51228 22.8367C5.75048 24.1162 4.96274 25.4392 4.96274 26.9999C4.96274 28.5606 5.75048 29.8836 6.51228 31.1632C6.95578 31.9081 7.3747 32.6117 7.59946 33.3036C7.83855 34.0399 7.91966 34.8833 8.00562 35.7762C8.1461 37.2364 8.29144 38.7464 9.17084 39.9547C10.0591 41.1753 11.4562 41.7798 12.8073 42.3643C13.6248 42.718 14.3969 43.052 15.0124 43.5C15.6161 43.9394 16.1646 44.5645 16.7452 45.2264C17.7219 46.3398 18.7319 47.491 20.1886 47.964C20.6837 48.1248 21.1879 48.1875 21.6958 48.1875C22.6193 48.1875 23.5552 47.9801 24.471 47.7771C25.3612 47.5798 26.2021 47.3935 26.9999 47.3935C27.7977 47.3935 28.6386 47.5798 29.5288 47.7771C30.9484 48.0918 32.416 48.4171 33.8112 47.964C35.2678 47.491 36.2778 46.3398 37.2545 45.2264C37.8351 44.5646 38.3837 43.9394 38.9873 43.5C39.6028 43.052 40.3749 42.718 41.1924 42.3643C42.5435 41.7797 43.9406 41.1753 44.8289 39.9547C45.7083 38.7464 45.8535 37.2365 45.9941 35.7763C46.0801 34.8834 46.1613 34.0399 46.4004 33.3037C46.625 32.6117 47.0439 31.9081 47.4875 31.1632C48.2493 29.8837 49.0371 28.5607 49.0371 27C49.0371 25.4394 48.2493 24.1163 47.4875 22.8368C47.044 22.0919 46.6251 21.3883 46.4004 20.6964C46.1613 19.9601 46.0801 19.1166 45.9941 18.2237C45.8536 16.7635 45.7083 15.2536 44.8289 14.0453C43.9406 12.8247 42.5435 12.2203 41.1924 11.6357C40.3749 11.282 39.6028 10.948 38.9873 10.5001C38.3836 10.0607 37.8351 9.43556 37.2545 8.77364C36.2778 7.66021 35.2678 6.50902 33.8112 6.03599C32.4159 5.583 30.9483 5.90827 29.5288 6.22288C28.6386 6.42021 27.7977 6.60658 26.9999 6.60658C26.2021 6.60658 25.3612 6.42021 24.471 6.22288C23.0515 5.90827 21.5837 5.583 20.1886 6.03599C18.7319 6.50891 17.7219 7.66021 16.7452 8.77364C16.1646 9.43546 15.6161 10.0607 15.0124 10.5001C14.3969 10.948 13.6248 11.2821 12.8073 11.6357C11.4562 12.2203 10.0591 12.8247 9.17084 14.0453C8.29144 15.2536 8.14621 16.7635 8.00562 18.2237C7.91966 19.1165 7.83855 19.9599 7.59946 20.6964ZM9.58037 18.3752C9.70609 17.0689 9.82485 15.8351 10.45 14.976C11.0839 14.105 12.2262 13.6108 13.4356 13.0875C14.2962 12.7152 15.1861 12.3302 15.9434 11.779C16.6894 11.2361 17.3224 10.5146 17.9346 9.81683C18.8087 8.82036 19.6344 7.87916 20.6773 7.54061C21.6622 7.22093 22.8603 7.48629 24.1287 7.76736C25.063 7.9744 26.0291 8.1885 27 8.1885C27.971 8.1885 28.9371 7.9744 29.8713 7.76736C31.1396 7.48618 32.3375 7.22061 33.3228 7.54061C34.3656 7.87916 35.1914 8.82036 36.0655 9.81683C36.6776 10.5146 37.3106 11.2361 38.0566 11.779C38.8139 12.3302 39.7038 12.7152 40.5645 13.0875C41.7738 13.6108 42.916 14.1049 43.5501 14.976C44.1752 15.8351 44.2939 17.0689 44.4197 18.3752C44.5099 19.3136 44.6034 20.2839 44.896 21.1849C45.1753 22.0454 45.6599 22.8591 46.1285 23.6461C46.8108 24.7921 47.4554 25.8746 47.4554 26.9999C47.4554 28.1253 46.8108 29.2078 46.1285 30.3537C45.6599 31.1406 45.1753 31.9544 44.896 32.8149C44.6034 33.7159 44.5099 34.6863 44.4197 35.6246C44.2939 36.931 44.1752 38.1648 43.5501 39.0238C42.9161 39.8948 41.7739 40.3891 40.5645 40.9123C39.7038 41.2846 38.8139 41.6697 38.0566 42.2208C37.3106 42.7637 36.6776 43.4853 36.0655 44.183C35.1914 45.1795 34.3656 46.1205 33.3228 46.4592C32.3377 46.7791 31.1397 46.5135 29.8713 46.2325C28.9371 46.0254 27.971 45.8113 27 45.8113C26.0291 45.8113 25.063 46.0254 24.1287 46.2325C22.8605 46.5135 21.6623 46.7791 20.6773 46.4592C19.6344 46.1207 18.8087 45.1795 17.9346 44.183C17.3224 43.4852 16.6894 42.7637 15.9434 42.2208C15.1861 41.6697 14.2962 41.2847 13.4356 40.9123C12.2263 40.3891 11.084 39.8949 10.45 39.0238C9.82485 38.1647 9.70609 36.9308 9.58037 35.6246C9.49009 34.6863 9.39675 33.7161 9.10418 32.815C8.82479 31.9545 8.34027 31.1408 7.87167 30.3538C7.18929 29.2078 6.54477 28.1254 6.54477 26.9999C6.54477 25.8746 7.18929 24.7921 7.87167 23.6461C8.34016 22.8591 8.82479 22.0453 9.10418 21.1849C9.39664 20.2839 9.49009 19.3136 9.58037 18.3752Z" fill="#557571"/>
<path d="M24.1506 37.4864C24.1044 37.4864 24.0583 37.4857 24.012 37.4841C22.8425 37.4445 21.7429 36.9057 20.995 36.0059L17.0681 31.281C16.1977 30.2336 16.3415 28.6733 17.389 27.8027L18.4898 26.8878C19.5374 26.0173 21.0974 26.1612 21.9681 27.2086L23.9465 29.589C24.0576 29.7228 24.1994 29.7469 24.274 29.7495C24.3478 29.752 24.4914 29.7375 24.6115 29.6115C24.6181 29.6045 24.6249 29.5977 24.6318 29.5909L34.7364 19.7321C35.1903 19.2614 35.7997 18.9938 36.4539 18.9778C37.1125 18.9614 37.7398 19.2036 38.2175 19.6586L39.2539 20.646C40.24 21.5853 40.278 23.1518 39.3387 24.1379C39.3332 24.1437 39.3276 24.1493 39.322 24.1549L33.9525 29.4622C33.6417 29.7694 33.1408 29.7663 32.8339 29.4556C32.5268 29.1449 32.5297 28.644 32.8403 28.337L38.2001 23.0393C38.5307 22.6844 38.5148 22.1267 38.1627 21.7913L37.1262 20.8039C36.9545 20.6403 36.7292 20.5528 36.4922 20.5591C36.2551 20.5649 36.0345 20.6626 35.8709 20.8343C35.8641 20.8413 35.8574 20.8481 35.8505 20.8549L25.7456 30.714C25.3476 31.1252 24.7905 31.3501 24.2203 31.3301C23.6424 31.3106 23.0991 31.0444 22.7297 30.5998L20.7513 28.2193C20.4384 27.8428 19.8774 27.7911 19.501 28.1039L18.4 29.0189C18.0235 29.3318 17.9718 29.8927 18.2846 30.2692L22.2115 34.9941C22.671 35.5471 23.3468 35.8781 24.0653 35.9024C24.7833 35.9273 25.4804 35.6422 25.9763 35.1216C25.9818 35.1158 25.9874 35.1102 25.993 35.1046L30.4278 30.7211C30.7387 30.4139 31.2395 30.417 31.5466 30.7277C31.8537 31.0384 31.8507 31.5393 31.5401 31.8463L27.1133 36.2219C26.3388 37.0304 25.2663 37.4864 24.1506 37.4864Z" fill="#557571"/>
</g>
<defs>
<clipPath id="clip0">
<rect width="54" height="54" fill="white"/>
</clipPath>
</defs>
</svg>
