<svg width="626" height="433" viewBox="0 0 626 433" fill="none" xmlns="http://www.w3.org/2000/svg">
<path d="M500.594 368.542C569.64 368.542 625.612 360.552 625.612 350.696C625.612 340.84 569.64 332.85 500.594 332.85C431.549 332.85 375.576 340.84 375.576 350.696C375.576 360.552 431.549 368.542 500.594 368.542Z" fill="#DDDDDD"/>
<path d="M563.103 162.389C557.731 176.725 542.592 227.531 568.573 283.214H578.34C578.34 283.214 594.162 212.514 566.814 162.097C565.935 160.634 563.689 160.732 563.103 162.389Z" fill="#EFE3DC"/>
<path d="M572.968 277.07C572.772 277.07 572.577 276.875 572.577 276.68L565.252 185.014C565.252 184.819 565.349 184.624 565.643 184.624C565.838 184.624 566.033 184.721 566.033 185.014L573.358 276.68C573.358 276.875 573.261 277.07 572.968 277.07Z" fill="#333333"/>
<path d="M574.628 279.216C590.649 279.216 603.636 277.382 603.636 275.12C603.636 272.858 590.649 271.024 574.628 271.024C558.607 271.024 545.62 272.858 545.62 275.12C545.62 277.382 558.607 279.216 574.628 279.216Z" fill="#333333"/>
<path d="M583.418 284.384C583.418 284.384 581.074 249.863 600.804 234.357C602.073 233.382 603.929 234.162 604.124 235.723C605.101 244.109 605.785 266.831 588.595 285.944L583.418 284.384Z" fill="#EFE3DC"/>
<path d="M589.962 273.072H589.865C589.669 272.975 589.572 272.779 589.572 272.584C589.865 271.512 597.385 246.645 598.655 243.329C598.753 243.134 598.948 243.037 599.143 243.134C599.339 243.232 599.436 243.427 599.339 243.622C598.069 246.84 590.353 272.487 590.255 272.779C590.255 272.975 590.06 273.072 589.962 273.072Z" fill="#333333"/>
<path d="M585.958 187.744C578.437 200.129 558.708 238.843 574.628 281.361H583.321C583.321 281.361 606.762 240.013 590.158 188.232C589.572 186.379 586.935 185.989 585.958 187.744Z" fill="#CAE8D5"/>
<path d="M578.34 274.827C578.047 274.827 577.949 274.632 577.949 274.437L585.274 208.613C585.274 208.418 585.47 208.223 585.665 208.223C585.86 208.223 586.056 208.418 586.056 208.613L578.73 274.437C578.73 274.73 578.535 274.827 578.34 274.827Z" fill="#333333"/>
<path d="M551.383 199.641C558.317 210.466 575.995 242.256 571.893 280.873L560.661 282.726C560.661 282.726 534.388 257.079 547.671 200.129C547.964 198.568 550.504 198.178 551.383 199.641Z" fill="#C6D7D0"/>
<path d="M564.177 274.925C563.982 274.925 563.884 274.827 563.787 274.632L549.918 221.875C549.82 221.68 550.015 221.485 550.211 221.388C550.406 221.29 550.601 221.485 550.699 221.68L564.568 274.437C564.666 274.632 564.47 274.827 564.275 274.925C564.275 274.925 564.275 274.925 564.177 274.925Z" fill="#333333"/>
<path d="M552.75 346.21C552.75 346.99 562.517 348.746 574.628 348.746C586.739 348.746 596.506 346.99 596.506 346.21L603.636 275.12C603.636 277.363 590.646 279.216 574.628 279.216C558.61 279.216 545.62 277.363 545.62 275.12L552.75 346.21Z" fill="#E2B8AF"/>
<path d="M495.906 368.347C495.711 368.347 495.515 368.152 495.515 367.957V302.912C495.515 302.717 495.711 302.522 495.906 302.522C496.101 302.522 496.297 302.717 496.297 302.912V367.957C496.297 368.152 496.101 368.347 495.906 368.347Z" fill="#333333"/>
<path d="M537.611 355.962C537.416 355.962 537.22 355.767 537.22 355.572L530.677 285.749C530.677 285.554 530.774 285.359 531.067 285.359C531.263 285.359 531.458 285.457 531.458 285.749L538.002 355.572C538.002 355.767 537.904 355.962 537.611 355.962Z" fill="#333333"/>
<path d="M445.313 358.107C445.215 358.107 445.215 358.107 445.313 358.107C445.02 358.107 444.922 357.912 444.922 357.62L455.08 295.403C455.08 295.208 455.275 295.013 455.568 295.111C455.764 295.111 455.959 295.306 455.861 295.598L445.703 357.815C445.606 357.912 445.508 358.107 445.313 358.107Z" fill="#333333"/>
<path d="M420.895 344.65C420.895 344.65 414.937 361.033 413.179 363.373C411.714 365.226 414.156 369.322 417.477 369.322C420.798 369.322 425.876 366.006 427.341 361.715C428.807 357.425 431.444 344.845 431.444 344.845L426.658 342.212L420.895 344.65Z" fill="#EDAF8C"/>
<path d="M413.179 363.373C413.179 363.373 410.445 368.347 412.984 370.59C415.523 372.833 422.165 371.175 425.681 364.934C425.583 364.934 416.598 369.809 413.179 363.373Z" fill="#333333"/>
<path d="M450.587 297.744L503.133 306.716L538.783 285.749L549.82 210.661H495.906L493.366 268.781L450.587 292.966V297.744Z" fill="#DDDDDD"/>
<path d="M529.407 259.029C529.407 259.029 536.244 284.092 511.631 288.675C500.203 290.82 486.237 292.478 464.944 289.943L443.75 338.994C441.504 339.189 439.355 338.604 437.695 338.019C436.034 337.434 434.96 336.751 434.96 336.751L429.588 346.21C422.946 347.186 420.993 344.65 420.993 344.65L425.095 326.902C425.095 326.902 432.713 291.795 435.253 283.896C437.792 275.998 445.41 273.755 445.41 273.755C445.41 273.755 447.266 260.297 450.196 252.301C454.005 241.769 490.534 243.329 490.534 243.329L529.407 259.029Z" fill="#F4F4F4"/>
<path d="M502.938 172.336C502.938 172.336 497.176 180.82 502.938 188.622L516.026 197.106L522.472 199.154C522.472 199.154 523.84 191.157 520.128 187.256C516.417 183.356 512.51 179.455 514.854 173.896C517.198 168.338 517.589 155.271 506.552 157.123L502.938 172.336Z" fill="#333333"/>
<path d="M495.32 176.627C495.32 176.627 503.231 177.115 506.65 167.46C510.068 157.806 504.892 147.079 499.227 144.446C493.464 141.813 495.32 176.627 495.32 176.627Z" fill="#333333"/>
<path d="M487.311 240.306C479.497 231.042 476.177 221.29 476.177 221.29C463.089 234.845 446.192 236.503 436.522 238.161C426.755 239.819 397.552 241.086 397.552 241.086C395.013 238.843 395.403 233.968 395.794 231.92C395.892 231.237 395.989 230.847 395.989 230.847C395.989 230.847 436.229 218.95 442.187 217.487C448.145 216.024 454.982 210.563 462.893 204.225C470.805 197.886 482.427 191.645 482.427 191.645C490.534 186.964 503.817 185.891 503.817 185.891L525.695 242.842C525.695 242.842 530.188 252.301 531.165 258.932C531.165 258.932 512.705 261.858 500.594 257.567C488.483 253.276 490.729 250.35 490.046 249.18L487.311 240.306Z" fill="#557571"/>
<path d="M397.454 240.989C394.915 238.746 395.306 233.87 395.696 231.822C395.794 231.139 395.892 230.749 395.892 230.749C395.892 230.749 397.454 230.749 397.943 232.31C398.236 233.187 398.529 234.357 399.115 236.99C399.31 237.771 399.798 239.819 399.212 240.306C398.724 240.794 397.454 240.989 397.454 240.989Z" fill="#333333"/>
<path d="M503.133 186.769C503.133 186.769 501.864 194.473 495.32 197.983C495.32 197.983 486.041 204.615 481.841 202.664C477.446 200.519 479.009 195.155 480.376 193.693C480.376 193.595 488.581 187.939 503.133 186.769Z" fill="#333333"/>
<path d="M479.204 180.625C479.204 180.625 479.79 183.063 480.376 186.476C481.06 190.572 481.646 196.228 480.962 201.104C480.962 201.104 480.474 203.347 485.358 203.249C490.143 203.152 499.422 198.178 502.45 189.304C502.45 189.304 497.664 184.428 496.004 176.432L483.404 178.772L479.204 180.625Z" fill="#EDAF8C"/>
<path d="M494.441 178.285L483.306 178.675L479.204 180.528C479.204 180.528 479.79 182.966 480.376 186.379C480.376 186.476 489.85 186.866 494.441 178.285Z" fill="#333333"/>
<path d="M475.004 159.269C475.004 159.269 472.953 166.68 474.223 174.579C475.102 179.65 477.642 182.283 479.595 182.771C481.646 183.258 493.952 186.281 499.617 168.923C499.617 168.923 503.817 169.021 504.012 165.315C504.208 161.512 499.715 162.877 499.715 162.877L499.129 156.246L487.995 148.932L480.865 151.76L475.004 159.269Z" fill="#EDAF8C"/>
<path d="M499.91 165.608C499.91 165.608 501.668 164.925 502.352 165.413C503.036 165.9 500.301 166.778 499.91 166.68C499.617 166.583 499.91 165.608 499.91 165.608Z" fill="#333333"/>
<path d="M481.939 171.654C481.158 171.556 480.572 171.263 480.279 170.873C479.986 170.483 479.986 169.898 480.083 169.216C480.279 168.338 482.33 163.17 482.427 162.975C482.525 162.779 482.72 162.682 482.916 162.779C483.111 162.877 483.209 163.072 483.111 163.267C482.427 165.12 480.962 168.728 480.865 169.411C480.767 169.898 480.767 170.191 480.865 170.386C481.06 170.581 481.353 170.776 481.939 170.873C482.134 170.873 482.33 171.068 482.33 171.263C482.33 171.556 482.134 171.654 481.939 171.654Z" fill="#333333"/>
<path d="M491.119 172.219C493.414 172.552 495.407 171.915 495.57 170.796C495.733 169.677 494.004 168.499 491.709 168.166C489.414 167.833 487.421 168.471 487.258 169.59C487.095 170.709 488.824 171.886 491.119 172.219Z" fill="#DD8E7C"/>
<path d="M474.125 164.925C474.028 164.925 474.028 164.925 474.125 164.925C473.93 166.193 473.93 167.558 473.93 169.021C476.177 169.411 477.935 168.923 478.13 167.85C478.13 166.68 476.372 165.413 474.125 164.925Z" fill="#DD8E7C"/>
<path d="M486.139 152.345C486.139 152.345 480.962 158.684 475.005 159.366C475.005 159.366 474.321 155.368 478.032 148.542C481.744 141.716 493.073 140.936 499.227 144.349L500.106 162.682C500.106 162.78 488.971 163.852 486.139 152.345Z" fill="#333333"/>
<path d="M464.944 290.333C464.847 290.333 464.847 290.333 464.749 290.333C464.554 290.235 464.456 290.04 464.554 289.845C469.437 278.533 471.488 266.343 471.488 266.246C471.488 266.051 471.684 265.856 471.977 265.953C472.172 265.953 472.367 266.148 472.27 266.441C472.27 266.538 470.219 278.825 465.237 290.235C465.237 290.235 465.042 290.333 464.944 290.333Z" fill="#333333"/>
<path d="M471.391 269.171C471.195 269.171 471.098 269.074 471 268.879C470.902 268.684 471.098 268.489 471.293 268.391C473.246 267.806 489.069 263.223 489.167 263.223C489.362 263.125 489.557 263.32 489.655 263.515C489.753 263.71 489.557 263.905 489.362 264.003C489.167 264.003 473.344 268.684 471.488 269.171H471.391Z" fill="#333333"/>
<path d="M443.652 338.994C441.406 339.189 439.257 338.604 437.597 338.019C435.936 337.434 434.862 336.751 434.862 336.751C434.862 336.751 422.165 358.302 420.895 359.18C419.625 360.155 426.56 363.276 426.56 363.276C426.56 363.276 436.034 357.62 438.574 352.841C441.113 348.161 443.652 338.994 443.652 338.994Z" fill="#EDAF8C"/>
<path d="M420.895 359.278C420.895 359.278 417.379 363.373 418.063 364.933C418.649 366.494 421.579 369.029 426.267 366.786C431.053 364.543 436.425 358.692 440.039 349.818C440.039 349.818 430.272 362.691 427.341 361.813C423.728 360.545 420.895 359.278 420.895 359.278Z" fill="#333333"/>
<path d="M434.374 248.595L470.512 263.515L500.399 248.595L470.512 239.818L434.374 248.595Z" fill="#EECDB8"/>
<path d="M484.088 239.818L482.427 240.599C482.427 240.599 476.86 242.061 472.074 243.719C468.949 244.012 464.456 244.499 463.382 244.694C462.014 244.889 462.112 246.547 465.433 246.547C461.721 248.79 459.377 252.008 460.061 252.691C460.94 253.568 461.721 254.641 464.749 254.934C467.777 255.226 475.297 252.983 480.767 251.618C486.334 250.253 488.288 248.302 488.288 248.302L484.088 239.818Z" fill="#EDAF8C"/>
<path d="M460.549 253.666C460.451 253.666 460.354 253.666 460.256 253.568C460.061 253.373 460.158 253.178 460.256 252.983C460.451 252.886 463.967 249.473 466.898 248.498C467.093 248.4 467.288 248.498 467.386 248.79C467.484 248.985 467.386 249.18 467.093 249.278C464.456 250.155 460.842 253.471 460.842 253.568C460.744 253.568 460.647 253.666 460.549 253.666Z" fill="#333333"/>
<path d="M462.014 254.544C461.917 254.544 461.721 254.446 461.721 254.349C461.624 254.154 461.624 253.959 461.819 253.764C462.014 253.666 465.628 251.326 467.191 250.838C467.386 250.74 467.582 250.935 467.679 251.131C467.777 251.326 467.582 251.521 467.386 251.618C465.921 252.106 462.21 254.349 462.21 254.446C462.112 254.544 462.112 254.544 462.014 254.544Z" fill="#333333"/>
<path d="M465.335 247.035C465.14 247.035 465.042 246.937 464.945 246.84C464.847 246.645 464.945 246.45 465.14 246.352C465.238 246.352 468.07 245.182 469.73 244.792C469.926 244.792 470.121 244.889 470.219 245.084C470.219 245.279 470.121 245.474 469.926 245.572C468.265 245.864 465.433 247.035 465.433 247.035C465.433 246.937 465.433 247.035 465.335 247.035Z" fill="#333333"/>
<path d="M503.72 185.891C503.72 185.891 502.548 195.838 506.357 208.028C507.138 210.563 508.212 213.489 509.384 216.414C513.682 227.239 519.444 238.941 519.444 238.941C519.444 238.941 495.711 236.113 484.088 239.916C484.088 239.916 485.846 246.157 487.995 248.498C487.995 248.498 491.315 249.083 495.515 250.155C504.208 252.301 518.858 255.616 526.477 256.006C527.844 256.104 529.016 255.909 530.091 255.616C537.807 253.568 537.807 243.427 537.416 240.111C536.928 236.308 529.798 203.054 524.816 195.74C519.933 188.329 509.677 185.404 503.72 185.891Z" fill="#557571"/>
<path d="M447.95 251.228L442.383 252.886L457.131 259.322L461.135 257.177L447.95 251.228Z" fill="#333333"/>
<path d="M397.943 232.31C397.943 232.31 393.743 232.992 389.445 230.847C385.246 228.799 379.581 227.141 376.944 226.361C374.306 225.581 373.818 225.678 373.623 226.264C373.427 226.946 375.479 228.214 376.26 228.701C377.041 229.189 377.823 229.969 378.799 230.847C378.799 230.847 373.134 231.042 368.837 231.724C364.539 232.407 359.558 233.09 359.461 233.772C359.363 234.455 361.023 234.553 363.563 234.65C366.102 234.748 369.618 234.943 369.618 234.943C369.618 234.943 370.302 235.625 369.325 235.625C368.349 235.723 364.051 236.308 362.098 236.503C360.144 236.698 359.07 237.283 359.168 237.771C359.265 238.258 360.73 238.453 364.051 238.258C367.372 238.063 370.302 237.673 370.204 238.063C370.107 238.356 369.716 238.746 367.372 239.038C365.028 239.331 360.633 240.306 360.047 240.501C358.679 240.989 358.777 241.769 360.437 242.061C362.098 242.256 368.153 241.574 369.423 241.379C370.693 241.184 371.083 241.964 370.302 242.061C369.618 242.256 364.735 243.719 364.051 244.012C363.367 244.207 362 245.474 364.442 245.377C365.809 245.377 371.669 243.914 372.939 243.817C374.209 243.719 381.436 243.427 385.246 242.354C389.055 241.281 389.836 240.209 390.91 240.306C392.082 240.404 397.357 240.014 398.919 240.111C400.677 240.501 397.943 232.31 397.943 232.31Z" fill="#EDAF8C"/>
<path d="M375.869 240.989C375.772 240.989 375.674 240.989 375.674 240.891C372.939 239.039 371.474 234.163 371.376 233.968C371.279 233.772 371.474 233.577 371.669 233.48C371.865 233.382 372.06 233.577 372.158 233.772C372.158 233.772 373.623 238.648 376.162 240.306C376.358 240.404 376.358 240.696 376.26 240.891C376.162 240.989 376.065 240.989 375.869 240.989Z" fill="#333333"/>
<path d="M383.292 234.065C379.874 233.675 378.506 231.139 378.506 231.042C378.409 230.847 378.506 230.652 378.702 230.554C378.897 230.457 379.092 230.554 379.19 230.749C379.288 230.847 380.46 232.992 383.39 233.382C383.585 233.382 383.78 233.577 383.683 233.772C383.683 233.87 383.487 234.065 383.292 234.065Z" fill="#333333"/>
<path d="M527.16 256.299C526.965 256.299 526.77 256.299 526.574 256.299C518.761 256.007 503.72 252.496 495.515 250.448C495.32 250.35 495.222 250.155 495.222 249.96C495.32 249.765 495.515 249.668 495.711 249.668C503.915 251.716 518.858 255.129 526.672 255.421C527.942 255.519 529.114 255.324 530.188 255.031C530.384 254.934 530.579 255.129 530.677 255.324C530.774 255.519 530.579 255.714 530.384 255.811C529.309 256.202 528.332 256.299 527.16 256.299Z" fill="#333333"/>
<path d="M484.088 240.306C483.892 240.306 483.795 240.209 483.697 240.014C483.599 239.819 483.697 239.624 483.99 239.526C494.441 236.113 514.756 237.966 518.761 238.356C517.491 235.82 512.705 225.776 508.994 216.512C508.896 216.317 508.994 216.122 509.189 216.024C509.384 215.927 509.58 216.024 509.677 216.219C513.877 226.946 519.64 238.551 519.737 238.648C519.835 238.746 519.835 238.941 519.737 239.038C519.64 239.136 519.542 239.233 519.347 239.233C519.151 239.233 495.613 236.503 484.186 240.209C484.186 240.306 484.186 240.306 484.088 240.306Z" fill="#333333"/>
<path d="M476.177 221.68C475.981 221.68 475.786 221.485 475.786 221.29C475.688 219.73 475.395 218.17 475.102 217.877C474.321 217.877 474.125 217.487 474.125 216.902C474.125 216.707 474.028 216.414 472.953 216.414C472.758 216.414 472.563 216.219 472.563 216.024C472.563 215.829 472.758 215.634 472.953 215.634C473.539 215.634 474.711 215.634 474.907 216.707C474.907 216.902 474.907 216.999 475.004 217.097C475.004 217.097 475.102 217.097 475.297 217.097C475.59 217.097 476.274 217.097 476.665 221.29C476.567 221.485 476.372 221.68 476.177 221.68Z" fill="#333333"/>
<path d="M451.661 219.925C451.564 219.925 451.466 219.925 451.368 219.828C449.708 218.17 446.485 217.292 446.387 217.292C446.192 217.194 446.094 216.999 446.094 216.804C446.192 216.609 446.387 216.512 446.582 216.512C446.68 216.512 450.099 217.487 451.857 219.34C452.052 219.535 452.052 219.73 451.857 219.925C451.857 219.828 451.759 219.925 451.661 219.925Z" fill="#333333"/>
<path d="M449.61 222.655C449.415 222.655 449.317 222.558 449.22 222.363C448.829 221.193 446.289 218.755 445.313 217.974C445.117 217.877 445.117 217.584 445.313 217.389C445.41 217.194 445.703 217.194 445.899 217.389C445.996 217.487 449.415 220.51 450.001 222.07C450.099 222.265 450.001 222.46 449.806 222.558C449.708 222.655 449.708 222.655 449.61 222.655Z" fill="#333333"/>
<path d="M524.328 242.842C524.23 242.842 524.133 242.744 524.035 242.647C522.082 240.111 519.347 239.233 519.347 239.233C519.152 239.136 519.054 238.941 519.054 238.746C519.152 238.551 519.347 238.453 519.542 238.453C519.64 238.453 522.472 239.429 524.621 242.159C524.719 242.354 524.719 242.549 524.523 242.744C524.523 242.842 524.426 242.842 524.328 242.842Z" fill="#333333"/>
<path d="M420.798 360.545C420.7 360.545 420.7 360.545 420.602 360.448C420.407 360.35 420.309 360.058 420.505 359.96L427.83 347.185C427.927 346.99 428.22 346.893 428.318 347.088C428.513 347.185 428.611 347.478 428.416 347.575L421.091 360.35C421.091 360.545 420.895 360.545 420.798 360.545Z" fill="#333333"/>
<path d="M434.862 337.141C434.764 337.141 434.764 337.141 434.862 337.141C434.569 337.141 434.471 336.946 434.471 336.654L444.922 273.657C444.922 273.462 445.117 273.267 445.41 273.365C445.606 273.365 445.801 273.56 445.703 273.852L435.253 336.849C435.155 337.044 434.96 337.141 434.862 337.141Z" fill="#333333"/>
<path d="M43.9786 353.523C56.0076 353.523 65.759 352.344 65.759 350.89C65.759 349.436 56.0076 348.257 43.9786 348.257C31.9495 348.257 22.1981 349.436 22.1981 350.89C22.1981 352.344 31.9495 353.523 43.9786 353.523Z" fill="#333333"/>
<path d="M47.7877 416.129C67.1528 416.129 82.8513 413.728 82.8513 410.766C82.8513 407.804 67.1528 405.402 47.7877 405.402C28.4226 405.402 12.7241 407.804 12.7241 410.766C12.7241 413.728 28.4226 416.129 47.7877 416.129Z" fill="#DDDDDD"/>
<path d="M44.9553 342.406C44.9553 342.406 -2.70785 283.018 5.78947 212.22C6.08248 209.88 9.01259 208.807 10.673 210.465C22.4911 221.874 55.113 261.076 49.5458 341.723L44.9553 342.406Z" fill="#EFE3DC"/>
<path d="M43.9786 323.975C43.7832 323.975 43.6855 323.878 43.5879 323.683C35.5789 292.574 15.1658 234.552 14.9705 233.967C14.8728 233.771 14.9705 233.576 15.1658 233.479C15.3612 233.381 15.5565 233.479 15.6542 233.674C15.8495 234.259 36.2626 292.282 44.2716 323.39C44.3692 323.585 44.1739 323.78 43.9786 323.878C44.0762 323.975 43.9786 323.975 43.9786 323.975Z" fill="#333333"/>
<path d="M50.1318 355.083C50.1318 355.083 34.7975 295.012 3.05472 271.316C1.88267 270.438 0.31995 271.511 0.710631 272.876C4.03142 286.431 16.9239 332.849 43.0995 355.181C43.0018 355.083 46.225 356.546 50.1318 355.083Z" fill="#C6D7D0"/>
<path d="M42.3182 348.16C42.2205 348.16 42.0252 348.062 41.9275 347.965C37.337 339.286 9.98929 287.991 9.69628 287.504C9.59861 287.309 9.69628 287.114 9.89162 287.016C10.087 286.919 10.2823 287.016 10.38 287.211C10.673 287.699 38.0207 338.993 42.6112 347.672C42.7089 347.867 42.6112 348.062 42.4158 348.16H42.3182Z" fill="#333333"/>
<path d="M0.905664 314.223C3.7381 321.147 13.6028 342.309 32.0625 355.864C32.0625 355.864 49.2524 359.569 47.9827 355.864C40.3644 335.092 10.3797 317.539 2.17538 313.053C1.39402 312.663 0.612653 313.443 0.905664 314.223Z" fill="#EFE3DC"/>
<path d="M40.0717 354.986C39.974 354.986 39.8764 354.986 39.7787 354.888C35.3835 350.988 13.3101 326.608 12.4311 325.633C12.3334 325.438 12.3334 325.243 12.4311 325.048C12.6264 324.95 12.8218 324.95 13.0171 325.048C13.2124 325.341 35.9696 350.403 40.3647 354.303C40.5601 354.401 40.5601 354.693 40.3647 354.888C40.2671 354.986 40.1694 354.986 40.0717 354.986Z" fill="#333333"/>
<path d="M43.2949 355.083C43.2949 355.083 31.3791 277.167 57.8477 238.94C58.6291 237.77 60.5825 237.965 61.0708 239.33C64.587 249.667 76.5027 302.229 55.6013 353.23L43.2949 355.083Z" fill="#CAE8D5"/>
<path d="M49.8388 326.218C49.6434 326.218 49.4481 326.023 49.4481 325.828C49.7411 319.099 56.1873 258.833 56.285 258.151C56.285 257.956 56.4803 257.761 56.6757 257.761C56.871 257.761 57.0663 257.956 57.0663 258.151C56.9687 258.736 50.5225 319.002 50.2294 325.731C50.2294 326.023 50.0341 326.218 49.8388 326.218Z" fill="#333333"/>
<path d="M47.2017 352.451C47.2017 352.451 39.2904 320.757 57.8477 299.693C58.5314 298.913 59.7035 299.303 59.8988 300.181C61.6569 307.982 66.6381 335.19 55.2106 353.816L47.8853 355.766L47.2017 352.451Z" fill="#EFE3DC"/>
<path d="M50.8155 350.89C50.5225 350.89 50.4248 350.695 50.4248 350.403L56.578 309.64C56.578 309.445 56.7733 309.25 57.0664 309.348C57.2617 309.348 57.457 309.543 57.3594 309.835L51.2062 350.598C51.2062 350.695 51.0108 350.89 50.8155 350.89Z" fill="#333333"/>
<path d="M65.759 350.89C65.759 352.353 55.992 353.523 43.9786 353.523C31.9651 353.523 22.1981 352.353 22.1981 350.89C22.1981 350.89 25.4212 393.505 32.6488 411.059C32.6488 411.059 48.9597 413.692 62.2429 411.059L65.759 350.89Z" fill="#E2B8AF"/>
<path d="M133.444 432.122C181.291 432.122 220.078 427.232 220.078 421.2C220.078 415.168 181.291 410.278 133.444 410.278C85.5981 410.278 46.811 415.168 46.811 421.2C46.811 427.232 85.5981 432.122 133.444 432.122Z" fill="#DDDDDD"/>
<path d="M157.667 406.475C157.667 406.475 158.936 410.181 165.773 413.301C172.61 416.422 178.275 417.007 179.447 418.47C180.619 419.932 173.099 422.175 165.48 421.688C157.862 421.2 147.607 415.349 147.607 415.349C147.607 415.349 148.388 407.743 148.583 406.28C148.779 404.817 157.667 406.475 157.667 406.475Z" fill="#EDAF8C"/>
<path d="M176.712 416.909C176.712 416.909 181.401 421.298 164.504 420.322C164.504 420.322 159.62 419.347 156.202 417.397C152.783 415.447 147.607 415.154 147.607 415.154C147.607 415.154 146.337 420.81 147.118 421.785C147.9 422.76 156.397 423.053 165.676 423.54C174.954 424.028 189.898 422.565 176.712 416.909Z" fill="#333333"/>
<path d="M144.481 413.301C144.481 413.301 145.751 417.007 152.588 420.127C159.425 423.248 165.09 423.833 166.262 425.296C167.434 426.759 159.913 429.002 152.295 428.514C144.677 428.026 134.421 422.175 134.421 422.175C134.421 422.175 135.203 414.569 135.398 413.106C135.593 411.643 144.481 413.301 144.481 413.301Z" fill="#EDAF8C"/>
<path d="M163.527 423.736C163.527 423.736 168.215 428.124 151.318 427.149C151.318 427.149 146.435 426.174 143.016 424.223C139.598 422.273 134.421 421.98 134.421 421.98C134.421 421.98 133.151 427.636 133.933 428.612C134.714 429.587 143.211 429.879 152.49 430.367C161.769 430.854 176.712 429.392 163.527 423.736Z" fill="#333333"/>
<path d="M114.301 309.738C114.301 309.738 140.379 318.222 147.509 341.918L148.193 403.062C148.193 403.062 135.203 415.057 129.928 420.615C129.928 420.615 123.091 425.491 97.0135 425.491C70.9355 425.491 57.2617 417.982 57.2617 417.982V328.656C57.2617 328.656 57.5547 314.028 66.7357 309.835C75.819 305.544 114.301 309.738 114.301 309.738Z" fill="#557571"/>
<path d="M58.0431 286.431C58.0431 286.431 58.0431 265.952 68.6891 252.202C78.2608 239.72 82.363 225.58 87.9302 219.046C93.3997 212.61 102.581 211.635 110.004 214.56C117.427 217.486 119.478 224.605 117.134 230.456L110.785 243.913C110.785 243.913 108.539 263.417 111.762 281.262L90.7626 281.067L58.0431 286.431Z" fill="#333333"/>
<path d="M143.211 336.262C143.211 336.262 137.351 327.681 132.468 324.073C127.584 320.464 117.036 312.371 116.548 310.615C116.059 308.86 113.129 283.505 110.492 275.509C108.148 268.585 106.292 260.589 98.4785 256.688L93.888 265.27L103.46 326.023L141.844 339.968L143.211 336.262Z" fill="#DDDDDD"/>
<path d="M113.129 312.273C113.031 312.273 112.934 312.273 112.836 312.175C112.641 312.078 112.641 311.785 112.738 311.59C112.836 311.493 114.399 309.542 115.961 308.86C116.157 308.762 116.352 308.86 116.45 309.055C116.548 309.25 116.45 309.445 116.255 309.542C114.887 310.128 113.324 311.98 113.324 312.078C113.324 312.175 113.227 312.273 113.129 312.273Z" fill="#333333"/>
<path d="M113.129 309.542C113.031 309.542 112.934 309.445 112.836 309.347C112.738 309.152 112.738 308.957 112.934 308.762C113.031 308.762 114.203 307.885 116.059 307.885C116.254 307.885 116.45 308.08 116.45 308.275C116.45 308.47 116.254 308.665 116.059 308.665C114.399 308.665 113.324 309.445 113.324 309.445C113.324 309.445 113.227 309.542 113.129 309.542Z" fill="#333333"/>
<path d="M109.027 322.122C109.027 322.122 146.923 336.555 153.467 339.675C160.011 342.796 161.769 346.014 160.792 353.815C159.815 361.617 156.885 399.454 157.569 406.475C157.569 406.475 153.369 408.718 147.509 407.255C147.509 407.255 146.044 400.916 144.09 394.285C142.821 389.994 141.649 384.533 141.649 384.533C141.649 384.533 142.137 406.475 145.556 413.789C145.556 413.789 141.16 417.202 133.835 415.739L119.868 379.17L91.3486 331.386L101.897 322.122H109.027Z" fill="#EECDB8"/>
<path d="M141.746 384.924C141.551 384.924 141.356 384.729 141.356 384.534C141.356 384.534 141.649 378.195 142.137 366.493C142.625 355.376 141.844 350.695 139.207 348.745C136.57 346.794 114.692 334.799 114.399 334.604C114.203 334.507 114.106 334.214 114.203 334.117C114.301 333.922 114.496 333.824 114.692 333.922C115.571 334.409 136.863 346.112 139.598 348.062C142.528 350.207 143.309 354.791 142.821 366.395C142.332 378.097 142.137 384.436 142.137 384.436C142.137 384.729 141.942 384.924 141.746 384.924Z" fill="#333333"/>
<path d="M96.0367 329.924C96.0367 329.924 101.702 325.34 106.976 324.268C112.152 323.097 112.348 323.585 112.152 323.097C111.957 322.61 109.515 320.659 108.245 317.734C106.976 314.808 106.585 307.007 105.804 302.424C105.022 297.84 103.557 290.527 103.557 285.358C103.557 280.19 100.92 263.612 97.9901 259.223L79.9212 259.516L75.233 307.202L84.0233 326.901L96.0367 329.924Z" fill="#F4F4F4"/>
<path d="M106.292 321.732C106.194 321.732 105.999 321.635 105.999 321.537C103.557 317.929 99.6506 307.592 99.4553 307.104C99.3576 306.909 99.4553 306.714 99.6506 306.617C99.846 306.519 100.041 306.617 100.139 306.812C100.139 306.909 104.241 317.539 106.585 321.05C106.683 321.245 106.683 321.44 106.487 321.635C106.487 321.635 106.39 321.732 106.292 321.732Z" fill="#333333"/>
<path d="M80.2142 258.736C80.2142 258.736 85.2931 268.683 92.423 268.488C99.5529 268.293 98.5762 261.856 98.5762 261.369C98.5762 261.076 99.0646 257.858 99.9436 255.03C100.334 253.665 100.725 252.495 101.213 251.617L87.0511 240.695L80.8979 253.86L80.2142 258.736Z" fill="#EDAF8C"/>
<path d="M87.0511 240.695L101.213 251.617C100.725 252.495 100.53 253.762 100.237 255.03C100.237 255.03 90.9579 253.86 87.0511 240.695Z" fill="#333333"/>
<path d="M88.7115 234.649C88.7115 234.649 84.3164 242.45 88.9069 246.059C91.4463 248.009 96.5251 252.592 100.432 252.885C104.339 253.177 110.492 248.984 112.836 241.963C114.496 236.697 117.036 233.381 117.036 228.993L114.301 220.411L101.409 219.241L92.9113 230.456C92.9113 230.456 89.4929 227.53 87.7348 229.676C85.9767 231.723 88.7115 234.649 88.7115 234.649Z" fill="#EDAF8C"/>
<path d="M90.9579 232.113C90.9579 232.113 89.4929 229.968 88.5161 230.943C87.5394 231.918 89.4929 233.674 89.9812 233.381C90.4696 233.089 90.9579 232.113 90.9579 232.113Z" fill="#333333"/>
<path d="M92.9113 230.456C92.9113 230.456 103.655 232.601 112.641 225.092C112.641 225.092 113.91 229.676 117.231 230.456L117.72 227.335L114.789 219.241L97.9902 217.486L92.6183 225.775L92.9113 230.456Z" fill="#333333"/>
<path d="M107.073 242.84C106.78 242.84 106.39 242.743 105.999 242.645C105.804 242.548 105.706 242.353 105.706 242.158C105.804 241.963 105.999 241.865 106.194 241.865C106.78 242.06 107.269 242.06 107.562 241.865C107.855 241.67 108.05 241.378 108.05 240.988C108.246 240.207 109.808 235.137 109.808 234.941C109.906 234.746 110.101 234.649 110.297 234.649C110.492 234.746 110.59 234.941 110.59 235.137C110.004 236.892 108.929 240.5 108.832 241.085C108.734 241.768 108.343 242.255 107.953 242.45C107.757 242.84 107.464 242.84 107.073 242.84Z" fill="#333333"/>
<path d="M97.5175 241.888C100.2 242.5 102.627 241.889 102.939 240.524C103.252 239.159 101.331 237.556 98.6486 236.945C95.9666 236.333 93.5392 236.944 93.2269 238.309C92.9146 239.674 94.8355 241.277 97.5175 241.888Z" fill="#DD8E7C"/>
<path d="M112.836 241.963C111.371 242.255 110.394 242.841 110.199 243.816C110.004 244.498 110.394 245.278 110.98 245.961C111.664 244.693 112.348 243.426 112.836 241.963Z" fill="#DD8E7C"/>
<path d="M88.7115 234.649C88.7115 234.649 88.5162 244.596 84.6094 250.154C80.7026 255.713 76.0144 260.686 70.6425 264.587C65.2707 268.488 59.8988 279.507 59.8988 279.507C59.8988 279.507 64.587 263.124 68.6891 259.516C72.7913 255.908 79.7259 240.695 79.7259 240.695L88.7115 234.649Z" fill="#333333"/>
<path d="M115.668 346.697C115.668 346.697 118.403 347.672 122.798 367.956C127.194 388.239 134.03 415.739 134.03 415.739L120.845 418.177L97.2088 364.055L96.1344 338.993L115.668 346.697Z" fill="#557571"/>
<path d="M107.464 338.993C107.464 338.993 113.324 342.406 115.473 344.064C117.622 345.722 119.673 349.232 119.087 353.523C119.087 353.523 116.938 350.402 114.985 349.427C113.031 348.452 104.925 344.844 101.799 341.431L107.464 338.993Z" fill="#EDAF8C"/>
<path d="M82.1676 253.177C82.1676 253.177 71.2286 262.929 68.2985 264.587C65.3684 266.245 56.0897 273.851 58.3361 295.305C60.5825 316.759 63.0243 320.952 68.1031 328.656C73.182 336.262 98.0879 342.309 99.846 342.504C101.604 342.699 106.878 340.846 108.636 339.871C108.636 339.871 105.413 335.775 102.776 333.824C100.139 331.874 85.6838 319.684 85.0001 318.514C84.3164 317.344 81.8746 317.734 81.8746 317.734C81.8746 317.734 83.6327 317.246 84.0234 316.564C84.4141 315.881 83.3397 315.589 83.3397 315.589C83.3397 315.589 83.6327 314.418 83.3397 313.833C83.0467 313.151 82.8513 304.862 82.8513 302.911C82.8513 300.961 82.363 276.094 82.363 269.755C82.363 263.417 82.1676 253.177 82.1676 253.177Z" fill="#DDDDDD"/>
<path d="M83.1443 312.956C82.949 312.956 82.8513 312.858 82.7536 312.663C81.4839 308.567 79.2375 285.163 79.1398 284.09C79.1398 283.895 79.2375 283.7 79.5305 283.7C79.7259 283.7 79.9212 283.798 79.9212 284.09C79.9212 284.285 82.1676 308.47 83.4373 312.468C83.535 312.663 83.4373 312.858 83.1443 312.956C83.242 312.956 83.242 312.956 83.1443 312.956Z" fill="#333333"/>
<path d="M76.0144 316.954C75.9167 316.954 75.7214 316.856 75.6237 316.759C75.526 316.564 75.6237 316.369 75.819 316.271C78.3585 314.906 83.242 315.199 83.4373 315.296C83.6327 315.296 83.828 315.491 83.828 315.686C83.828 315.881 83.6327 316.076 83.4373 316.076C83.3397 316.076 78.5538 315.784 76.2097 317.051C76.2097 316.954 76.1121 316.954 76.0144 316.954Z" fill="#333333"/>
<g clip-path="url(#clip0)">
<path d="M167.146 291.173C167.013 291.135 166.881 291.098 166.785 290.928C166.558 290.721 166.5 290.419 166.707 290.191C170.433 281.506 171.128 266.818 164.096 253.68C140.86 240.713 126.933 220.056 125.739 196.824C123.849 156.222 162.806 121.372 212.506 119.02C262.207 116.668 304.219 147.79 306.146 188.259C307.042 207.973 298.574 226.918 282.148 241.622C265.721 256.327 243.559 264.984 219.512 266.1C210.551 266.444 201.718 265.823 193.183 264.141C189.817 282.229 167.92 290.961 167.618 291.019C167.543 291.284 167.411 291.247 167.146 291.173ZM246.488 124.273C236.019 121.332 224.536 119.967 212.664 120.495C163.833 122.805 125.46 157.104 127.308 196.835C128.349 219.596 142.086 239.912 165.094 252.673C165.226 252.71 165.322 252.88 165.322 252.88C172.259 265.848 171.978 280.08 168.707 289.178C173.783 286.884 189.631 278.313 192.007 263.238C192.044 263.106 192.119 262.841 192.288 262.745C192.458 262.65 192.628 262.554 192.893 262.629C201.56 264.348 210.488 265.139 219.619 264.699C243.364 263.642 265.356 255.08 281.444 240.566C297.494 226.185 305.849 207.638 304.975 188.359C303.412 158.297 279.351 133.506 246.488 124.273Z" fill="#557571"/>
<path d="M413.812 175.001C413.68 174.963 413.68 174.963 413.812 175.001C413.187 174.682 399.472 168.539 397.815 156.625C392.146 157.465 386.53 157.605 380.667 157.103C364.91 155.681 350.532 149.352 340.241 139.163C329.95 128.973 324.773 116.356 325.986 103.388C328.465 76.7508 356.88 57.5429 389.491 60.5506C422.101 63.5583 446.518 87.5907 444.039 114.228C442.628 129.43 432.926 142.59 417.265 150.497C412.346 158.847 412.404 168.308 414.508 174.051C414.566 174.354 414.492 174.619 414.284 174.847C414.247 174.98 413.945 175.038 413.812 175.001ZM398.49 155.24C398.622 155.278 398.622 155.278 398.755 155.315C398.85 155.485 398.945 155.655 399.04 155.824C400.006 165.111 409.22 170.991 412.802 172.999C411.075 166.933 411.509 157.753 416.221 149.632C416.259 149.499 416.428 149.404 416.428 149.404C431.712 141.819 441.34 128.925 442.602 114.254C444.99 88.4494 420.992 64.9638 389.213 62.0468C357.435 59.1298 329.604 77.7863 327.216 103.59C325.983 116.124 330.969 128.401 341.069 138.251C351.17 148.1 365.283 154.355 380.605 155.797C386.468 156.3 392.386 156.102 398.055 155.261C398.225 155.166 398.357 155.203 398.49 155.24Z" fill="#557571"/>
<path d="M207.99 246.549C206.93 246.251 205.87 245.953 204.81 245.655C193.393 242.019 181.947 235.941 168.956 226.71C164.082 223.194 158.562 218.924 156.098 212.937C155.447 211.18 155.004 209.195 154.636 206.945C153.795 200.269 154.995 193.451 157.86 186.814C158.138 185.318 158.378 183.954 158.655 182.458C158.746 181.625 159.007 180.696 159.098 179.863L159.541 177.269C161.056 168.822 162.646 160.109 167.818 153.405C172.99 146.701 180.369 143.336 185.657 141.816C193.135 139.624 200.925 139.379 206.863 139.616C212.404 139.742 217.472 140.021 222.466 140.565C223.373 140.391 224.28 140.216 225.32 140.079C230.309 139.62 235.44 141.205 239.569 142.794C240.724 143.262 242.012 143.767 243.263 144.404C244.853 144.851 246.311 145.26 247.864 145.84C253.885 147.817 259.086 152.713 262.176 159.019C265.609 166.138 266.003 174.405 263.104 182.178C268.778 191.499 271.735 202.348 271.384 213.268C290.188 215.546 311.978 212.795 328.832 205.222C353.669 194.168 373.848 181.376 397.21 152.162C415.963 128.666 421.578 110.208 414.351 95.727C410.214 87.5524 403.078 81.3977 394.349 78.3729C385.582 75.4808 376.244 76.1489 367.942 80.2564C360.111 84.2102 354.202 90.9936 351.457 99.2382C348.675 107.615 349.317 116.526 353.264 124.36C357.02 131.855 363.472 137.389 371.311 140.02C379.283 142.689 387.751 142.063 395.11 138.263C402.261 134.691 407.549 128.591 409.975 120.973C412.534 113.391 411.933 105.352 408.367 98.1961C401.426 84.2251 384.29 78.5524 370.29 85.6386C356.969 92.3431 351.685 108.604 358.283 121.763C361.41 127.937 366.59 132.397 373.104 134.657C379.655 136.783 386.517 136.278 392.65 133.278C398.48 130.337 402.733 125.378 404.919 119.123C406.935 112.963 406.529 106.266 403.593 100.433C397.816 88.935 383.955 84.3257 372.464 90.1133C361.615 95.652 357.189 108.862 362.718 119.718C365.178 124.702 369.543 128.504 374.901 130.296C380.26 132.087 385.949 131.682 390.968 129.085C395.78 126.716 399.242 122.537 400.96 117.438C402.678 112.34 402.202 106.911 399.8 102.229C397.493 97.7171 393.584 94.3292 388.755 92.6865C383.927 91.0438 378.804 91.4651 374.295 93.776C365.446 98.3023 361.823 109.162 366.209 117.979C370.404 126.456 380.761 129.795 389.233 125.592C393.063 123.663 396.036 120.205 397.457 116.168C398.782 111.961 398.442 107.572 396.516 103.739C394.685 100.077 391.459 97.3101 387.559 95.928C383.62 94.6785 379.405 94.9253 375.744 96.7591C372.253 98.4975 369.525 101.595 368.349 105.272C367.136 109.081 367.455 113.034 369.19 116.527C372.661 123.513 381.162 126.33 388.011 122.816C391.163 121.269 393.514 118.495 394.748 115.121C395.85 111.709 395.589 108.058 394.044 104.905C392.462 101.885 389.956 99.6069 386.681 98.5436C383.405 97.4802 380.059 97.6851 377.041 99.2699C371.04 102.307 368.726 109.528 371.625 115.494C374.466 121.158 381.415 123.396 387.075 120.55C392.396 117.895 394.694 111.242 391.911 105.88C389.356 100.726 383.07 98.674 378.051 101.271C373.202 103.773 371.26 109.667 373.625 114.482C375.894 119.126 381.518 120.992 386.197 118.586C390.537 116.371 392.33 111.007 390.118 106.665C389.108 104.663 387.381 103.177 385.298 102.448C383.215 101.72 380.871 101.92 378.871 102.933C378.569 102.991 378.304 102.916 378.208 102.746C378.15 102.444 378.225 102.179 378.395 102.083C380.697 101.013 383.211 100.717 385.559 101.52C387.907 102.323 389.861 104.017 391.1 106.225C393.597 111.077 391.618 117.104 386.636 119.568C381.485 122.128 375.331 120.113 372.776 114.959C370.126 109.635 372.254 103.077 377.575 100.422C383.235 97.5757 390.014 99.9094 392.893 105.441C395.829 111.274 393.514 118.495 387.552 121.399C381.382 124.532 373.94 122.012 370.813 115.838C367.628 109.362 370.129 101.478 376.602 98.2879C379.923 96.645 383.571 96.3819 387.111 97.5197C390.652 98.6575 393.385 101.143 395.063 104.333C396.798 107.826 397.022 111.609 395.846 115.286C394.67 118.963 392.111 121.965 388.657 123.57C381.166 127.333 372.172 124.234 368.378 116.872C366.453 113.039 366.208 108.82 367.496 104.746C368.783 100.671 371.682 97.4783 375.38 95.5119C379.38 93.4873 383.898 93.1823 388.064 94.6388C392.267 95.9627 395.721 98.9365 397.609 102.902C399.725 107.074 399.991 111.728 398.591 116.2C397.059 120.636 394.049 124.226 389.916 126.214C380.935 130.703 369.952 127.045 365.471 118.058C360.705 108.562 364.477 97.1714 373.968 92.3961C378.779 90.027 384.204 89.5475 389.298 91.2646C394.391 92.9818 398.528 96.5769 400.93 101.259C403.39 106.243 403.925 111.974 402.132 117.338C400.339 122.702 396.708 126.977 391.556 129.537C386.235 132.192 380.376 132.692 374.752 130.826C369.128 128.96 364.631 125.121 361.981 119.797C356.299 108.469 360.948 94.4629 372.27 88.7707C378.1 85.8292 384.659 85.3822 390.813 87.3971C396.967 89.4121 401.92 93.6657 404.856 99.4994C407.887 105.503 408.351 112.502 406.261 118.927C404.17 125.352 399.54 130.635 393.54 133.672C387.2 136.899 379.904 137.426 373.257 135.129C366.441 132.928 361.07 128.128 357.848 121.784C351.002 107.983 356.472 91.0586 370.265 84.2005C384.738 76.9608 402.403 82.7823 409.63 97.263C413.291 104.588 413.95 112.93 411.317 120.777C408.684 128.624 403.189 134.951 395.868 138.619C388.207 142.477 379.436 143.162 371.2 140.418C362.963 137.675 356.416 131.972 352.432 124.27C348.427 116.132 347.727 106.92 350.546 98.4098C353.403 89.7673 359.349 82.8512 367.519 78.7066C375.992 74.5037 385.632 73.7774 394.664 76.744C403.695 79.7106 410.926 86.0352 415.254 94.5495C422.671 109.37 417.077 128.263 398.08 152.12C374.643 181.599 354.332 194.354 329.325 205.503C312.338 213.039 290.209 215.981 271.272 213.666C271.206 215.937 270.912 218.001 270.581 220.198C269.567 226.353 267.451 231.34 264.631 235.27C260.494 240.834 253.798 244.821 245.148 247.113C233.76 250.497 220.977 250.197 207.99 246.549ZM183.777 235.024C191.169 239.247 198.159 242.356 205.108 244.594C219.006 249.071 232.679 249.764 244.862 246.603C250.717 245.1 258.796 241.788 263.836 235.047C266.618 231.249 268.564 226.358 269.637 220.505C269.968 218.309 270.262 216.245 270.328 213.973C266.336 213.424 262.418 212.61 258.708 211.568C256.832 215.191 254.596 218.57 252.642 221.455C252.116 222.309 251.495 222.993 250.969 223.847C249.3 227.243 246.704 230.377 243.557 232.928C239.184 236.279 233.805 238.631 226.948 240.14C212.496 243.235 197.021 241.32 183.777 235.024ZM158.825 186.942C157.939 192.131 157.318 197.395 158.002 202.596C159.58 213.772 167.453 224.427 179.736 231.599C192.113 238.94 206.893 241.804 221.105 240.072C220.537 240.056 220.103 240.077 219.535 240.061C211.858 239.907 204.267 237.918 197.244 235.945C187.475 233.058 177.193 229.453 169.374 222.677C166.053 219.741 162.044 215.18 161.907 209.56C161.779 205.947 163.485 202.419 164.872 199.517C165.866 197.506 166.992 195.533 168.081 193.692C169.041 183.658 173.687 173.229 181.476 163.825C180.701 164.037 179.927 164.249 179.248 164.63C176.171 165.912 173.306 167.97 170.009 171.051C165.132 175.691 161.297 181.197 158.825 186.942ZM157.012 191.871C155.633 196.778 155.087 201.777 155.712 206.675C155.948 208.888 156.429 210.74 157.079 212.497C159.448 218.315 164.74 222.377 169.482 225.856C170.43 226.552 171.283 227.078 172.099 227.736C163.618 220.774 158.193 212.095 156.925 202.866C156.399 199.14 156.573 195.468 157.012 191.871ZM169.311 193.895C168.855 198.06 169.137 202.146 170.024 206.116C172.952 219.103 183.645 230.407 197.182 234.64C209.791 238.611 224.645 236.631 236.944 229.496C239.697 227.836 242.016 226.198 243.938 224.448C244.521 223.897 245.105 223.345 245.557 222.756C239.942 227.476 232.028 229.689 224.93 227.981C223.87 227.683 222.81 227.385 221.787 226.955C213.34 228.016 204.296 226.62 195.318 222.953C182.609 217.809 174.421 208.783 173.377 198.758C172.785 192.724 174.822 187 177.128 182.353C174.288 185.848 171.638 189.683 169.311 193.895ZM251.938 215.819C249.909 218.97 247.54 222.312 244.621 225.069C242.662 226.952 240.343 228.59 237.457 230.212C228.384 235.534 217.788 238.139 207.82 237.485C211.738 238.299 215.597 238.811 219.568 238.925C225.374 239.125 233.652 238.159 240.646 233.112C244.398 230.445 247.408 226.854 250.021 223.152C250.977 221.274 251.536 219.284 251.793 217.353C251.772 216.918 251.789 216.35 251.938 215.819ZM168.015 195.964C167.244 197.178 166.57 198.563 165.895 199.947C164.508 202.849 162.876 206.112 163.042 209.593C163.158 214.777 166.902 219.264 170.128 222.03C175.536 226.698 182.092 229.828 188.833 232.294C178.845 226.626 171.337 217.218 168.91 206.519C168.214 202.889 167.878 199.503 168.015 195.964ZM180.553 178.306C177.567 183.335 173.609 190.809 174.417 198.621C175.44 208.21 183.304 216.859 195.748 221.93C203.968 225.241 212.275 226.716 220.044 226.036C218.566 225.191 217.124 224.214 215.721 223.104C214.337 222.429 212.992 221.622 211.683 220.682C207.927 217.766 205.488 213.217 204.788 208.584C204.05 208.663 203.483 208.647 202.783 208.593C202.386 208.482 201.818 208.465 201.458 208.221C198.319 208.198 195.462 207.681 192.886 206.672C185.556 203.754 179.055 195.344 181.344 186.685C182.516 182.006 186.11 177.864 192.032 174.089C198.839 169.705 206.599 167.019 214.442 166.074C209.407 164.659 204.259 163.643 199 163.024C192.304 167.01 186.143 172.148 180.553 178.306ZM223.903 226.548C224.301 226.659 224.699 226.771 225.096 226.883C233.784 229.037 243.619 225.074 248.542 217.728C249.801 215.791 251.188 212.89 250.534 210.13C246.513 216.299 241.068 220.923 235.254 223.297C233.8 223.89 232.384 224.351 230.873 224.642C228.947 225.389 226.926 225.966 224.943 226.41C224.678 226.336 224.338 226.527 223.903 226.548ZM219.224 224.374C220.077 224.9 220.93 225.426 221.99 225.724C222.897 225.549 223.937 225.412 224.843 225.238C225.013 225.142 225.278 225.217 225.448 225.121C223.274 225.226 221.212 224.933 219.224 224.374ZM216.246 222.25C220.566 224.179 225.73 224.628 230.603 223.564C238.136 220.672 244.6 215.475 248.165 208.892C248.446 208.399 248.691 208.038 248.84 207.507C247.531 206.567 246.392 205.532 245.291 204.364C243.017 203.296 240.557 202.891 238.098 202.486L237.7 202.374C233.878 201.73 229.658 200.974 225.418 199.783C223.024 201.686 220.138 203.308 216.854 204.818C213.91 206.138 211.078 207.06 208.225 207.546C208.187 207.679 208.283 207.849 208.283 207.849C209.119 213.522 212.109 218.655 216.246 222.25ZM205.827 208.447C206.469 212.777 208.718 216.987 212.341 219.865C212.437 220.035 212.702 220.109 212.797 220.279C209.89 216.887 207.943 212.619 207.338 208.156C207.376 208.023 207.376 208.023 207.28 207.853C206.904 208.177 206.432 208.33 205.827 208.447ZM216.923 166.914C208.454 167.54 199.825 170.268 192.508 174.938C186.926 178.522 183.369 182.532 182.272 186.946C180.131 195.074 186.347 202.974 193.28 205.78C195.23 206.471 197.218 207.03 199.317 207.19C197.648 206.006 196.431 204.233 195.76 202.041C194.687 198.734 195.163 195.004 195.643 192.277C196.604 186.822 199.494 177.044 207.643 172.464C212.397 169.793 218.389 169.329 224.352 171.005C227.532 171.898 231.719 173.79 233.475 177.718C233.914 178.7 234.221 179.644 234.32 180.817C234.535 182.595 234.486 184.298 234.134 186.06C237.915 185.834 242.321 185.927 246.317 187.479C245.476 185.382 244.54 183.116 243.058 181.268C241.347 179.214 239.09 177.578 236.891 176.245C230.692 172.356 224.004 169.19 216.923 166.914ZM224.186 172.103C218.488 170.502 212.629 171.003 208.215 173.483C200.405 177.872 197.627 187.253 196.704 192.574C196.223 195.302 195.822 198.767 196.799 201.903C197.47 204.095 199.201 206.585 201.682 207.425C202.684 207.421 203.686 207.416 204.725 207.279C204.7 205.84 204.676 204.402 204.916 203.039C202.245 201.859 199.967 199.788 199.387 196.763C199.25 195.723 199.114 194.683 199.354 193.319C199.995 188.491 203.134 183.934 207.341 181.681C211.379 179.524 216.331 179.198 220.593 180.825C220.932 180.634 221.367 180.613 221.706 180.422C225.011 179.347 227.715 179.391 229.649 180.65C231.488 181.739 232.689 184.08 232.718 186.521C232.85 186.558 233.02 186.463 233.02 186.463C233.372 184.701 233.459 182.865 233.206 181.22C233.069 180.18 232.763 179.235 232.456 178.29C230.965 174.437 226.572 172.773 224.186 172.103ZM249.958 208.108C249.676 208.601 249.564 208.999 249.32 209.36C247.594 212.452 245.411 215.131 242.567 217.623C245.507 215.301 248.103 212.166 250.206 208.75C250.111 208.58 250.016 208.41 249.958 208.108ZM205.976 203.337C205.773 204.568 205.703 205.836 205.802 207.009C206.237 206.988 206.841 206.871 207.314 206.718C207.314 206.718 207.314 206.718 207.483 206.622C207.479 205.619 207.475 204.616 207.603 203.651C206.866 203.73 206.336 203.581 205.976 203.337ZM252.857 214.074C252.824 215.21 252.886 216.515 252.72 217.613C252.629 218.446 252.406 219.242 252.182 220.038C254.062 217.418 255.884 214.495 257.515 211.233C256.588 210.972 255.66 210.711 254.902 210.355C254.621 210.849 254.339 211.342 254.058 211.835C253.834 212.631 253.345 213.353 252.857 214.074ZM208.494 204.044C208.44 204.744 208.386 205.445 208.427 206.315C209.276 205.838 210.03 205.191 210.991 204.316C210.026 204.188 209.326 204.135 208.494 204.044ZM212.465 204.158C211.674 204.937 210.92 205.584 210.204 206.099C212.357 205.559 214.453 204.716 216.718 203.778C218.039 203.148 219.19 202.612 220.378 201.945C217.906 203.11 215.281 203.804 212.635 204.062C212.597 204.195 212.465 204.158 212.465 204.158ZM206.104 202.371C206.634 202.52 207.032 202.631 207.562 202.78C207.562 202.78 207.562 202.78 207.599 202.648C208.117 199.788 209.599 197.056 211.839 194.68C211.707 194.643 211.479 194.436 211.346 194.398C209.839 195.692 208.559 197.193 207.545 198.769C206.945 199.888 206.477 201.044 206.104 202.371ZM251.867 212.508C251.776 213.341 251.552 214.137 251.292 215.065C251.536 214.705 251.78 214.344 252.025 213.983C251.909 213.378 251.888 212.943 251.867 212.508ZM212.692 195.206C210.622 197.486 209.177 200.086 208.527 202.908L208.489 203.041C209.587 203.206 210.721 203.239 211.856 203.271C211.893 203.139 212.026 203.176 212.063 203.043C213.852 201.256 215.413 199.262 216.879 197.098C215.591 196.593 214.303 196.088 213.052 195.45C212.957 195.28 212.825 195.243 212.692 195.206ZM219.176 181.286C215.466 180.243 211.346 180.66 207.95 182.568C203.913 184.725 201.018 188.921 200.451 193.484C200.248 194.715 200.253 195.718 200.464 196.493C200.928 198.913 202.845 200.74 205.119 201.808C205.491 200.481 205.959 199.325 206.597 198.073C207.516 196.328 208.928 194.864 210.435 193.57C209.98 193.156 209.599 192.476 209.35 191.834C208.928 190.284 209.677 188.634 211.503 186.715C213.706 184.471 216.365 182.642 219.214 181.153C219.309 181.323 219.309 181.323 219.176 181.286ZM183.327 163.343C183.12 163.571 182.875 163.932 182.668 164.16C175.538 172.747 171.02 182.211 169.584 191.396C172.702 186.404 176.143 181.79 179.737 177.647C182.967 172.258 186.652 167.283 190.963 162.626C188.524 162.657 185.915 162.782 183.327 163.343ZM217.939 197.395C216.548 199.294 215.119 201.326 213.5 203.017C217.053 202.585 220.432 201.244 223.297 199.187C221.575 198.703 219.757 198.049 217.939 197.395ZM252.554 209.553C252.596 210.423 252.77 211.331 252.811 212.201C253.018 211.973 253.093 211.707 253.3 211.479C253.581 210.986 253.826 210.625 254.107 210.132C253.842 210.058 253.577 209.983 253.312 209.909C252.952 209.664 252.819 209.627 252.554 209.553ZM219.746 141.089C215.679 140.805 211.348 140.447 206.772 140.449C200.929 140.382 193.177 140.494 185.831 142.724C180.675 144.281 173.503 147.418 168.538 153.894C163.536 160.503 161.984 169.082 160.506 177.397L160.063 179.991C159.972 180.824 159.711 181.753 159.62 182.586C159.583 182.719 159.508 182.984 159.471 183.117C161.91 178.507 165.314 174.025 169.401 170.164C172.734 166.95 175.769 164.798 178.978 163.553C180.262 163.055 181.509 162.689 182.755 162.324C189.736 154.268 197.223 149.502 204.971 148.387C205.708 148.308 206.445 148.229 207.315 148.187C208.748 147.158 210.313 146.167 211.878 145.175C214.16 143.67 216.876 142.143 219.746 141.089ZM263.245 184.221C263.788 191.958 263.312 200.268 260.244 208.135C259.888 208.894 259.495 209.785 259.139 210.544C262.717 211.549 266.369 212.289 270.361 212.838C270.584 202.883 268.236 192.921 263.245 184.221ZM255.428 209.501C256.356 209.762 257.114 210.118 258.041 210.379C258.435 209.487 258.791 208.729 259.184 207.837C262.534 199.476 262.798 190.392 261.932 182.278C261.609 181.901 261.456 181.428 261.133 181.051C257.804 176.109 253.72 171.813 249.186 168.107C251.356 171.579 252.884 175.299 253.638 179.232C253.717 179.97 253.928 180.744 254.006 181.482C258.591 188.065 260.215 196.535 258.107 203.528C257.378 205.613 256.517 207.661 255.428 209.501ZM252.322 208.343C252.683 208.587 253.08 208.699 253.478 208.81C253.743 208.885 254.14 208.997 254.368 209.204C255.362 207.193 256.318 205.315 256.915 203.193C258.798 196.996 257.672 189.81 253.978 183.621C254.118 185.664 254.052 187.935 253.949 190.339C253.879 191.607 253.713 192.705 253.68 193.841C254.442 195.2 254.864 196.749 254.947 198.49C254.997 201.366 253.743 204.305 252.579 206.411C252.335 206.772 252.26 207.037 252.016 207.398C252.339 207.775 252.397 208.077 252.322 208.343ZM250.711 207.461C250.844 207.498 250.977 207.535 250.939 207.668C250.977 207.535 251.146 207.44 251.184 207.307C251.163 206.872 251.01 206.4 250.989 205.965C250.877 206.362 250.596 206.856 250.484 207.254C250.521 207.121 250.616 207.291 250.711 207.461ZM245.986 203.414C246.119 203.452 246.119 203.452 245.986 203.414C247.502 204.126 248.678 205.029 249.684 206.027C250.041 205.269 250.264 204.473 250.62 203.714C249.788 199.044 248.653 194.432 247.216 189.878C247.158 189.576 246.967 189.236 246.909 188.933C246.777 188.896 246.644 188.859 246.512 188.822C242.553 187.137 237.977 187.14 234.064 187.328C233.765 188.389 233.467 189.45 232.999 190.607C236.847 192.69 239.717 196.215 242.528 199.438C243.725 200.776 244.885 202.246 245.986 203.414ZM218.465 196.541C220.415 197.232 222.366 197.923 224.353 198.482C226.37 196.902 228.196 194.982 229.662 192.818C230.151 192.096 230.507 191.338 230.825 190.712C227.852 189.59 224.883 189.472 222.2 189.863C221.131 192.139 219.931 194.377 218.465 196.541ZM232.606 191.498C231.894 193.015 230.917 194.458 229.844 195.731C228.942 196.909 227.774 198.012 226.643 198.982C230.656 199.966 234.441 200.743 238.131 201.351L238.528 201.462C240.288 201.814 242.218 202.069 244.036 202.723C243.257 201.932 242.516 201.008 241.907 200.122C238.963 196.862 236.188 193.506 232.606 191.498ZM213.483 194.426C213.483 194.426 213.616 194.463 213.483 194.426C214.866 195.101 216.154 195.606 217.574 196.148C218.833 194.212 219.997 192.106 221.028 189.963C220.725 190.021 220.423 190.079 220.121 190.137C219.479 190.386 218.8 190.768 218.158 191.017C216.291 192.067 214.858 193.095 213.483 194.426ZM251.718 203.88C251.834 204.485 251.95 205.09 252.066 205.695C253.059 203.684 254.202 201.143 254.21 198.569C254.206 197.566 254.032 196.659 253.688 195.847C253.171 198.707 252.558 201.397 251.718 203.88ZM212.137 193.619C212.27 193.656 212.365 193.826 212.497 193.863C213.081 193.312 213.665 192.76 214.249 192.209C213.533 192.723 212.816 193.237 212.137 193.619ZM220.729 181.865C217.52 183.11 214.654 185.167 212.282 187.506C210.7 189.065 210.158 190.487 210.427 191.564C210.58 192.036 210.866 192.546 211.321 192.96C213.677 191.189 216.489 189.833 219.682 189.155C220.324 188.906 220.966 188.657 221.607 188.408C222.001 187.517 222.431 186.493 222.692 185.565C222.879 184.902 223.197 184.276 223.044 183.803C222.928 183.198 222.245 182.577 221.127 181.977C221.127 181.977 220.862 181.902 220.729 181.865ZM248.16 189.571C249.348 193.483 250.5 197.527 251.216 201.592C251.887 199.205 252.425 196.78 252.773 194.015C251.688 192.279 249.998 190.66 248.16 189.571ZM222.145 181.404C223.264 182.004 224.042 182.796 224.216 183.703C224.427 184.478 224.166 185.406 223.848 186.032C223.661 186.696 223.305 187.454 222.986 188.08C226.084 187.233 229.069 186.784 231.848 186.563C231.877 184.424 230.866 182.423 229.293 181.408C227.587 180.357 225.185 180.254 222.145 181.404C222.183 181.271 222.183 181.271 222.145 181.404ZM231.72 187.528C229.678 187.67 227.297 188.003 224.974 188.639C226.978 188.629 229.041 188.922 231.086 189.783C231.48 188.892 231.666 188.229 231.72 187.528ZM232.759 187.391C232.647 187.789 232.668 188.224 232.556 188.622C232.668 188.224 232.78 187.826 232.892 187.428C232.892 187.428 232.892 187.428 232.759 187.391ZM192.267 162.563C188.992 166.08 186.114 169.707 183.426 173.675C187.758 169.454 192.338 165.875 197.166 162.938C195.899 162.868 194.801 162.703 193.534 162.633C193.232 162.691 192.665 162.675 192.267 162.563ZM247.7 188.154C249.576 189.11 251.568 190.672 252.918 192.482C252.972 191.781 253.063 190.948 253.117 190.248C253.311 187.011 253.224 184.268 252.93 181.752C252.702 181.545 252.644 181.242 252.416 181.035C248.043 175.227 241.123 170.851 232.907 168.542C228.667 167.351 224.24 166.823 219.664 166.826C225.913 169.01 231.806 171.954 237.512 175.56C239.807 177.064 242.101 178.567 243.906 180.791C245.845 183.053 246.839 185.622 247.7 188.154ZM205.58 149.273C205.447 149.236 205.277 149.332 205.145 149.294C197.964 150.426 191.062 154.64 184.436 161.938C186.987 161.509 189.559 161.516 191.865 161.449C195.969 157.02 200.698 152.911 205.58 149.273ZM233.338 167.519C241.289 169.752 248.076 174.092 252.656 179.672C252.694 179.539 252.561 179.502 252.598 179.369C251.729 174.832 249.724 170.261 246.701 166.264C241.069 162.392 234.704 159.602 228.136 158.043C223.821 157.117 219.925 156.738 216.276 157.001C211.286 157.46 206.094 159.149 200.528 162.165C206.185 162.896 211.73 164.024 217.088 165.816C222.608 165.506 228.037 166.029 233.338 167.519ZM207.621 149.131C202.437 152.827 197.538 157.032 193.228 161.688C193.36 161.726 193.53 161.63 193.662 161.667C195.364 161.716 197.029 161.898 198.694 162.079C204.843 158.512 210.678 156.573 216.235 156.131C220.053 155.772 223.95 156.151 228.53 157.152C234.302 158.487 239.814 160.751 244.8 163.869C243.052 161.947 241.135 160.121 238.878 158.485C232.505 153.689 224.21 150.643 214.959 149.476C212.197 149.129 209.795 149.027 207.621 149.131ZM247.492 165.484C253.124 169.356 257.89 174.273 261.771 179.799C261.361 176.679 260.781 173.654 260.259 170.931C258.809 163.369 256.527 155.715 251.04 150.31C248.572 147.899 245.748 146.247 242.811 144.993C242.811 144.993 242.811 144.993 242.679 144.956C236.451 143.206 229.809 141.912 222.28 141.229C218.578 142.192 215.05 144.063 212.127 145.818C211.071 146.523 210.015 147.228 208.996 147.8C210.735 147.717 212.702 147.84 214.764 148.133C224.185 149.205 232.575 152.421 239.214 157.291C242.514 159.793 245.305 162.58 247.492 165.484ZM248.038 146.747C249.383 147.555 250.655 148.627 251.889 149.833C257.641 155.313 259.849 163.231 261.394 170.964C261.915 173.686 262.495 176.711 262.943 179.699C264.88 172.802 264.321 165.633 261.364 159.364C258.37 153.228 253.624 148.746 248.038 146.747ZM234.119 141.835C231.734 141.165 229.142 140.723 226.57 140.716C229.73 141.175 232.757 141.596 235.709 142.282C235.179 142.133 234.649 141.984 234.119 141.835Z" fill="#CC2B77"/>
</g>
<defs>
<clipPath id="clip0">
<rect width="287.677" height="283.265" fill="white" transform="translate(178.03) rotate(15.6917)"/>
</clipPath>
</defs>
</svg>
