<svg width="65" height="66" viewBox="0 0 65 66" fill="none" xmlns="http://www.w3.org/2000/svg">
<path d="M50.8014 28.2252C43.1082 28.2252 36.8494 34.4743 36.8494 42.1555C36.8494 44.6997 37.5365 47.0864 38.7345 49.1413L34.5869 52.3623V28.7251C41.3914 27.8032 46.6535 21.9653 46.6535 14.9224C46.6535 7.24123 40.3947 0.992188 32.7014 0.992188C25.0082 0.992188 18.7494 7.24123 18.7494 14.9224C18.7494 21.9653 24.0114 27.8032 30.816 28.7251V52.3623L26.6684 49.1413C27.8664 47.0864 28.5535 44.6997 28.5535 42.1555C28.5535 34.4743 22.2947 28.2252 14.6015 28.2252C6.90823 28.2252 0.649414 34.4743 0.649414 42.1555C0.649414 49.8367 6.90823 56.0857 14.6015 56.0857C18.3917 56.0857 21.833 54.5682 24.3501 52.1107L30.816 57.1319V61.4821H24.657C23.6158 61.4821 22.7716 62.325 22.7716 63.3646C22.7716 64.4042 23.6158 65.2471 24.657 65.2471H40.7459C41.7871 65.2471 42.6313 64.4042 42.6313 63.3646C42.6313 62.325 41.7871 61.4821 40.7459 61.4821H34.5869V57.1319L41.0528 52.1107C43.5699 54.5682 47.0112 56.0857 50.8014 56.0857C58.4947 56.0857 64.7535 49.8367 64.7535 42.1555C64.7535 34.4743 58.4947 28.2252 50.8014 28.2252ZM14.6015 52.3208C8.98747 52.3208 4.42024 47.7607 4.42024 42.1555C4.42024 36.5502 8.98747 31.9901 14.6015 31.9901C20.2155 31.9901 24.7827 36.5502 24.7827 42.1555C24.7827 47.7607 20.2155 52.3208 14.6015 52.3208ZM22.5202 14.9224C22.5202 9.31721 27.0874 4.75712 32.7014 4.75712C38.3155 4.75712 42.8827 9.31721 42.8827 14.9224C42.8827 20.5277 38.3155 25.0878 32.7014 25.0878C27.0874 25.0878 22.5202 20.5277 22.5202 14.9224ZM50.8014 52.3208C45.1874 52.3208 40.6202 47.7607 40.6202 42.1555C40.6202 36.5502 45.1874 31.9901 50.8014 31.9901C56.4154 31.9901 60.9827 36.5502 60.9827 42.1555C60.9827 47.7607 56.4154 52.3208 50.8014 52.3208Z" fill="#557571"/>
</svg>
