<svg width="61" height="61" viewBox="0 0 61 61" fill="none" xmlns="http://www.w3.org/2000/svg">
<path d="M0.867631 27.8465C5.9919 32.1289 17.9023 38.8955 30.2937 38.8955C41.8769 38.8955 53.781 29.1184 60.0222 20.4274C60.2397 20.1247 60.3635 19.7453 60.354 19.3465C60.3375 18.6848 60.0688 18.35 59.6165 17.9259C59.0311 17.3772 58.2675 16.7069 57.3296 15.9714L59.9978 12.4993C60.593 11.7246 60.4518 10.6108 59.6824 10.0115C58.9127 9.41226 57.8065 9.55437 57.2112 10.3291L54.4528 13.9189C52.9036 12.9138 51.0842 11.8831 48.9993 10.9335L51.0123 6.38356C51.4082 5.48894 51.0087 4.44052 50.12 4.0421C49.2309 3.64332 48.1899 4.04588 47.7941 4.94049L45.7307 9.60426C43.9031 8.94704 41.915 8.37129 39.7675 7.92735L40.6931 2.76124C40.8658 1.79734 40.2297 0.875066 39.2723 0.701156C38.3143 0.527246 37.3988 1.16779 37.226 2.13157L36.291 7.34993C34.3975 7.10982 32.3986 6.9748 30.2934 6.9748C30.2459 6.9748 30.1988 6.9761 30.1513 6.97634L29.8073 1.65819C29.744 0.68094 28.9076 -0.0602173 27.935 0.00386101C26.9642 0.0674664 26.2285 0.911361 26.2917 1.88873L26.6338 7.17626C24.6179 7.40136 22.6572 7.81669 20.7539 8.41739L18.7233 3.68281C18.3375 2.7837 17.301 2.36944 16.4078 2.75769C15.5147 3.14595 15.1033 4.18964 15.489 5.08875L17.4548 9.67189C15.5952 10.504 13.7969 11.5261 12.0649 12.74L9.02635 9.28127C8.38212 8.54768 7.26886 8.47899 6.53984 9.12793C5.81117 9.77687 5.74306 10.8975 6.38753 11.6311L9.27131 14.9134C5.84922 17.8472 3.01194 21.3451 0.713091 25.1935C0.470476 25.5997 0.23749 25.889 0.231736 26.4615C0.225747 26.9998 0.469654 27.5146 0.867631 27.8465ZM30.2937 10.5213C40.5875 10.5213 49.694 14.0665 56.1905 19.6063C53.0434 23.4955 42.6702 35.0873 30.6927 35.3415C37.3078 35.1286 42.624 29.6455 42.624 22.935C42.624 16.0901 37.0926 10.5213 30.2937 10.5213C23.4947 10.5213 17.9633 16.0901 17.9633 22.935C17.9633 29.78 23.4947 35.3487 30.2937 35.3487C21.1236 35.3487 11.4893 31.2739 4.33294 26.047C10.2394 16.7485 19.173 10.5213 30.2937 10.5213ZM30.2937 31.802C25.4373 31.802 21.4863 27.8243 21.4863 22.935C21.4863 18.0458 25.4373 14.0681 30.2937 14.0681C35.1501 14.0681 39.1011 18.0458 39.1011 22.935C39.1011 27.8243 35.1501 31.802 30.2937 31.802Z" fill="#557571"/>
<path d="M30.2936 17.6149C27.3798 17.6149 25.0092 20.0015 25.0092 22.935C25.0092 25.8686 27.3798 28.2552 30.2936 28.2552C33.2075 28.2552 35.5781 25.8686 35.5781 22.935C35.5781 20.0015 33.2075 17.6149 30.2936 17.6149ZM30.2936 24.7084C29.3223 24.7084 28.5321 23.9129 28.5321 22.935C28.5321 21.9572 29.3223 21.1617 30.2936 21.1617C31.2649 21.1617 32.0551 21.9572 32.0551 22.935C32.0551 23.9129 31.2649 24.7084 30.2936 24.7084Z" fill="#557571"/>
<path d="M28.6629 43.8996C27.8058 46.0118 25.0092 53.0699 25.0092 55.2106C25.0092 58.1441 27.3798 60.5308 30.2936 60.5308C33.2075 60.5308 35.5781 58.1441 35.5781 55.2106C35.5781 53.0699 32.7814 46.0118 31.9243 43.8996C31.3292 42.4335 29.2587 42.4317 28.6629 43.8996ZM32.0551 55.2113C32.0547 56.1889 31.2648 56.9841 30.2936 56.9841C29.3223 56.9841 28.5321 56.1886 28.5321 55.2118C28.5415 54.533 29.3081 52.1526 30.2937 49.4652C31.2787 52.1515 32.0453 54.5315 32.0551 55.2113Z" fill="#557571"/>
</svg>
