<svg width="49" height="61" viewBox="0 0 49 61" fill="none" xmlns="http://www.w3.org/2000/svg">
<path d="M34.8701 16.6819H33.3299C32.3668 16.6819 31.5794 15.9149 31.5555 14.9537C31.4997 12.7172 29.6303 10.8977 27.3881 10.8977C25.1458 10.8977 23.2764 12.7172 23.2207 14.9537C23.1968 15.9151 22.4093 16.6819 21.4462 16.6819H19.906C18.2421 16.6819 16.8884 18.0334 16.8884 19.6947C16.8884 21.356 18.2421 22.7075 19.906 22.7075H34.87C36.5339 22.7075 37.8876 21.356 37.8876 19.6947C37.8877 18.0334 36.5341 16.6819 34.8701 16.6819Z" fill="#557571"/>
<path d="M42.5879 6.80509C38.5203 2.74391 33.1328 0.507324 27.4176 0.507324C21.7024 0.507324 16.3148 2.74391 12.2474 6.80509C8.17996 10.8663 5.93976 16.2454 5.93976 21.9516V26.3866L0.586381 36.4187C0.293264 36.968 0.310305 37.6306 0.630994 38.1642C0.951801 38.6978 1.52951 39.0243 2.1529 39.0243H5.93964V43.3955C5.93964 49.5196 10.9297 54.502 17.0634 54.502H23.6898V59.2277C23.6898 60.2065 24.4846 61 25.4649 61H47.1202C48.1005 61 48.8953 60.2065 48.8953 59.2277V21.9516C48.8955 16.2454 46.6553 10.8661 42.5879 6.80509ZM34.8702 26.2519H27.6817L26.3553 28.9515H29.3726C29.9837 28.9515 30.5519 29.2653 30.8765 29.7822C31.201 30.2991 31.2367 30.9465 30.9705 31.4956L28.4748 36.6456C28.1683 37.2779 27.5351 37.6463 26.8757 37.6463C26.6164 37.6463 26.353 37.5894 26.1039 37.469C25.2214 37.0427 24.8522 35.9829 25.2791 35.1017L26.5419 32.4959H23.5074C22.8945 32.4959 22.3251 32.1803 22.0009 31.6611C21.6768 31.1418 21.6438 30.4923 21.9137 29.943L23.7275 26.2517H19.9059C16.2845 26.2517 13.3383 23.3101 13.3383 19.6943C13.3383 16.0786 16.2845 13.137 19.9059 13.137H19.9107C20.2576 11.7835 20.9701 10.5456 21.9946 9.54641C23.4449 8.13191 25.3602 7.35283 27.388 7.35283C29.4158 7.35283 31.3312 8.13191 32.7815 9.54641C33.806 10.5456 34.5186 11.7835 34.8654 13.137H34.87C38.4915 13.137 41.4376 16.0786 41.4376 19.6943C41.4378 23.3103 38.4916 26.2519 34.8702 26.2519Z" fill="#557571"/>
</svg>
