<svg width="59" height="52" viewBox="0 0 59 52" fill="none" xmlns="http://www.w3.org/2000/svg">
<path d="M44.924 24.4586C41.9274 24.4472 38.9992 25.4256 36.6179 27.2344C34.6012 28.7702 33.0402 30.8179 32.1059 33.1727C32.0717 33.1499 32.0376 33.1158 32.0034 33.0931C30.6703 32.2626 29.1207 31.8189 27.5484 31.8189H23.0022V30.3742C24.3353 29.794 25.5544 28.9636 26.5799 27.917C27.9472 26.5518 28.9612 24.8795 29.5309 23.048C29.679 23.1504 29.8613 23.2073 30.0436 23.2073C31.7641 23.1959 33.1542 21.7852 33.1428 20.0675C33.1314 18.3724 31.7641 17.0073 30.0664 16.9732V15.0734C30.7614 15.3464 31.502 15.4829 32.2427 15.4829C34.3277 15.4829 36.2647 14.4022 37.3357 12.6161C38.0877 11.3875 38.3498 9.93137 38.0991 8.50936C38.1333 8.28184 38.0877 8.05431 37.9624 7.86092C37.951 7.84955 37.951 7.83817 37.9396 7.82679C37.575 6.62093 36.8344 5.56295 35.8317 4.80075C35.695 4.69837 35.5241 4.57323 35.3304 4.45947C32.9946 3.06021 30.0208 3.41287 28.0839 5.32405C27.161 3.93617 25.9646 2.76444 24.5518 1.8771C22.6262 0.659862 20.4044 4.87703e-05 18.1256 4.87703e-05C14.1492 -0.0113273 10.4234 1.96811 8.21296 5.26717C8.08762 5.38093 7.99647 5.52882 7.9395 5.68809C7.1989 6.89395 6.67478 8.21358 6.40133 9.60146C6.37854 9.64697 6.36715 9.69247 6.35575 9.74935C6.20763 10.466 6.13927 11.2055 6.13927 11.9336V16.9732C4.41879 16.9959 3.04013 18.4179 3.06292 20.1357C3.08571 21.8421 4.47576 23.2073 6.18485 23.2073C6.36715 23.2073 6.54945 23.1504 6.69757 23.048C7.76859 26.4722 10.3208 29.2252 13.6478 30.5562V31.8189H9.15865C4.49855 31.8188 0.658813 35.6298 0.658813 40.2826V46.1982C0.658813 46.6987 1.11457 47.0628 1.6159 47.0628H34.3619C36.9939 50.2481 40.8108 52 44.9126 52C52.5238 52 58.7106 45.8228 58.7106 38.2236C58.7334 30.6243 52.5351 24.4586 44.924 24.4586ZM6.18485 21.3871C5.46703 21.3871 4.89734 20.8069 4.89734 20.1016C4.88594 19.7603 5.02267 19.4304 5.26194 19.1801C5.48982 18.9412 5.80885 18.7933 6.13927 18.8047V19.4873C6.13927 20.1357 6.19624 20.7728 6.31018 21.4098C6.2646 21.3983 6.23042 21.3871 6.18485 21.3871ZM27.6509 39.7366C28.0953 39.7366 28.5282 39.9072 28.8473 40.2258L28.8587 40.2371C29.5195 40.8969 29.5195 41.9663 28.8587 42.6261L28.8473 42.6375C28.175 43.2973 27.104 43.2973 26.4432 42.6261C26.1241 42.3076 25.9532 41.8753 25.9532 41.4316C25.9532 40.4989 26.7166 39.7366 27.6509 39.7366ZM30.9551 19.18C31.4679 19.6806 31.4679 20.4996 30.9665 21.0002C30.7273 21.2505 30.3854 21.387 30.0436 21.387C29.9981 21.387 29.9639 21.387 29.9183 21.3983C30.0208 20.7613 30.0664 20.1242 30.0664 19.4758V18.7932C30.3968 18.8046 30.7273 18.9412 30.9551 19.18ZM35.7861 11.6945C34.8518 13.2303 33.0288 13.9811 31.2856 13.5602L36.3444 10.0905C36.2761 10.6479 36.0824 11.194 35.7861 11.6945ZM36.0824 8.0542L30.0664 12.1723V11.9562C30.0664 11.558 30.055 11.1712 30.0094 10.7845L35.2734 6.7687C35.6266 7.14411 35.9001 7.57641 36.0824 8.0542ZM33.6783 5.71084L29.6448 8.78238C29.4739 8.17945 29.2688 7.59927 29.0068 7.03047C30.1234 5.63121 32.0034 5.09642 33.6783 5.71084ZM10.9589 4.80075C12.8503 2.90095 15.4367 1.8316 18.1256 1.84297C18.3535 1.84297 18.5928 1.85435 18.8207 1.86573C15.9152 4.59599 12.8275 5.21029 10.5829 5.19892C10.7082 5.0624 10.8335 4.92578 10.9589 4.80075ZM9.31816 6.95072C9.72834 6.99622 10.1841 7.01898 10.674 7.01898C13.4883 7.01898 17.442 6.14302 20.9855 2.2524C21.6122 2.43442 22.216 2.67331 22.7971 2.98047C20.4728 6.54118 17.3053 8.65713 13.3858 9.26007C11.7223 9.51034 10.036 9.48759 8.38386 9.18043C8.60035 8.40686 8.91938 7.65604 9.31816 6.95072ZM7.96229 11.9562C7.96229 11.6263 7.99647 11.2964 8.01926 10.9779C9.03331 11.1599 10.0588 11.2623 11.0956 11.2623C11.9501 11.2623 12.7933 11.194 13.6364 11.0689C16.747 10.5911 21.0539 8.95291 24.3125 3.97019C25.4519 4.84615 26.3976 5.961 27.0698 7.23512C27.104 7.33751 27.1496 7.43989 27.2179 7.5309C27.9016 8.90741 28.2434 10.4318 28.232 11.9676V12.3771C26.0672 10.6366 25.3607 8.21347 25.3494 8.17934C25.2582 7.8153 24.962 7.55365 24.5974 7.49677C24.2214 7.43989 23.8568 7.62191 23.6631 7.94044C19.5727 15.0164 10.5829 13.8105 7.96229 13.3099V11.9562ZM8.42944 22.4904C8.1218 21.5235 7.96229 20.511 7.96229 19.4872V15.1643C9.35234 15.4031 10.7652 15.5283 12.178 15.5397C12.8275 15.5397 13.5225 15.5169 14.2175 15.4487C18.5358 15.0391 21.9768 13.2758 24.2669 10.3294C25.167 12.0813 26.5457 13.5488 28.2434 14.5613V19.4872C28.2548 22.1719 27.1952 24.7543 25.281 26.6427C23.3782 28.5425 20.8032 29.6005 18.1142 29.6005C17.0204 29.6005 15.938 29.4299 14.9012 29.0772C11.8134 28.0421 9.39792 25.5962 8.42944 22.4904ZM17.2027 45.2427H2.49323V40.2827C2.49323 36.7789 5.22776 33.9121 8.75986 33.6846V34.7767C6.77733 35.209 5.36449 36.9382 5.3417 38.9631V43.6956C5.3417 44.1961 5.79745 44.5715 6.29878 44.5715H7.64326C8.14459 44.5715 8.55477 44.162 8.55477 43.6614C8.55477 43.1609 8.14459 42.7514 7.64326 42.7514H7.16472V38.9631C7.17611 37.598 8.28132 36.5059 9.64859 36.4945H9.68277C11.05 36.4945 12.1666 37.598 12.178 38.9631V42.74H11.3691C10.8677 42.74 10.4576 43.1495 10.4576 43.6501C10.4576 44.1506 10.8677 44.5602 11.3691 44.5602H13.0667C13.5681 44.5602 14.0124 44.1847 14.0124 43.6842V38.9518C14.001 36.9268 12.5768 35.1749 10.5943 34.754V33.6391H14.2175L17.2027 36.6652V45.2427ZM15.4823 32.3763V31.1249C16.3482 31.3183 17.2255 31.4093 18.1142 31.4207C19.1511 31.4207 20.1765 31.2842 21.1792 31.0225V32.3763L18.3421 35.2203L15.4823 32.3763ZM19.0144 45.2426V37.1201L22.4781 33.639H26.7622V38.0415C25.224 38.4625 24.153 39.8503 24.1416 41.4316C24.1416 43.3769 25.7253 44.9468 27.6623 44.9468C29.6107 44.9468 31.183 43.3656 31.183 41.4316C31.183 40.4988 30.8184 39.6115 30.1576 38.9516C29.7246 38.5193 29.1777 38.2008 28.5852 38.0415V33.7414C29.4625 33.8665 30.2943 34.1737 31.0349 34.6515C31.2058 34.7652 31.3653 34.8676 31.5248 34.9928C31.2628 36.0507 31.1374 37.1315 31.1374 38.2236C31.1374 40.7491 31.8097 43.2063 33.0744 45.254L19.0144 45.2426ZM44.9924 50.1912C44.9696 50.1912 44.9468 50.1912 44.924 50.1912C41.5059 50.2026 38.2586 48.7464 35.9912 46.1868C35.9912 45.7545 35.695 45.3905 35.2734 45.2995C33.0516 42.2735 32.3794 38.3942 33.4618 34.7994C34.2024 32.3649 35.6836 30.2262 37.7117 28.6904C39.7854 27.1205 42.3148 26.2673 44.924 26.2787C51.5439 26.2559 56.9218 31.5913 56.9332 38.2008C56.9446 44.8103 51.6122 50.1798 44.9924 50.1912Z" fill="#557571"/>
</svg>
