<svg width="55" height="66" viewBox="0 0 55 66" fill="none" xmlns="http://www.w3.org/2000/svg">
<path d="M54.313 13.6432C54.313 10.9359 52.3459 8.68255 49.7752 8.25571C49.08 5.6522 46.7399 3.7225 44.0007 3.62346C42.4711 1.53672 40.0803 0.312012 37.468 0.312012C34.0847 0.312012 31.1096 2.39618 29.903 5.49465C27.2509 5.57843 25.0141 7.34596 24.2121 9.76818C19.1781 10.4818 14.539 12.934 11.0756 16.7322C7.39681 20.7666 5.37085 25.9731 5.37085 31.3926C5.37085 32.7247 4.19272 35.1724 2.21952 37.9403C0.383954 40.5152 0.646979 42.3276 1.19087 43.3948C1.76433 44.5197 3.18331 45.8384 6.661 46.0971V51.7105C6.661 55.5073 9.75677 58.5962 13.562 58.5962C16.8883 58.5962 18.7199 58.7204 19.5002 59.3993C20.2643 60.064 20.5052 61.7398 20.7045 64.8009C20.7485 65.4755 21.3046 66 21.9762 66H40.2497C40.6022 66 40.9389 65.853 41.1798 65.5941C41.4208 65.3352 41.5443 64.9872 41.5214 64.6331C41.3598 62.1532 41.2926 60.3252 41.3034 58.7062C41.3082 57.9977 40.7415 57.4194 40.0376 57.4147C40.0347 57.4147 40.0318 57.4147 40.029 57.4147C39.3291 57.4147 38.7595 57.9836 38.7548 58.6891C38.7457 60.0559 38.7893 61.5562 38.8949 63.4342H23.1625C22.9405 60.6426 22.566 58.6755 21.1666 57.4581C19.6363 56.1266 17.2727 56.0305 13.562 56.0305C11.1621 56.0305 9.20969 54.0927 9.20969 51.7108V49.9918C9.99571 49.9918 11.2165 50.4174 12.3956 51.1028C12.5963 51.2194 12.8153 51.275 13.0316 51.275C13.472 51.275 13.9003 51.0448 14.1363 50.6332C14.4883 50.0196 14.2794 49.2349 13.6699 48.8807C12.7352 48.3374 10.9126 47.4258 9.20969 47.4258V44.8597C9.20969 44.1512 8.63916 43.5767 7.93534 43.5767C5.56391 43.5767 3.89032 43.071 3.45844 42.2236C3.15247 41.6231 3.45564 40.6074 4.29008 39.4369C5.94584 37.1142 7.91941 33.8334 7.91941 31.393C7.91941 22.8986 13.4113 15.6268 21.2204 13.0813C20.9979 13.6033 20.874 14.1776 20.874 14.7807C20.874 17.1647 22.8006 19.1041 25.1686 19.1041H29.3983L27.7366 26.1122C27.6519 26.4695 27.7234 26.8464 27.9331 27.147C28.1429 27.4479 28.4705 27.6435 28.8332 27.6847L30.8513 27.9141L29.5458 34.1232C29.4245 34.7006 29.7098 35.2867 30.2375 35.5438C30.4151 35.6303 30.6044 35.672 30.7921 35.672C31.1621 35.6719 31.5249 35.5096 31.7733 35.2084L40.384 24.7631C40.6664 24.4206 40.7523 23.955 40.6107 23.5333C40.4693 23.1115 40.1206 22.7937 39.6897 22.6936L37.5658 22.2002L38.8074 19.1039H42.1857C45.0788 22.566 46.6667 26.9076 46.6667 31.3928C46.6667 34.9269 45.6849 38.3893 43.8274 41.4058C42.6312 43.3482 41.6944 45.1501 40.9629 46.9143C40.6919 47.5682 40.9986 48.3195 41.6482 48.5924C41.8086 48.6598 41.9748 48.6917 42.1385 48.6917C42.6373 48.6917 43.111 48.395 43.315 47.9026C43.9935 46.2658 44.8697 44.5829 45.9935 42.7578C48.1013 39.3349 49.2154 35.405 49.2154 31.3928C49.2154 26.9929 47.8705 22.7172 45.3887 19.1039H48.8891C51.88 19.1036 54.313 16.6541 54.313 13.6432ZM23.4228 14.7801C23.4228 13.8109 24.2061 13.0225 25.1687 13.0225C25.8725 13.0225 26.443 12.448 26.443 11.7396C26.443 9.7093 28.0838 8.05749 30.1004 8.05749C30.2773 8.05749 30.4566 8.07057 30.6335 8.09636C31.2817 8.19117 31.8951 7.77562 32.053 7.13594C32.6714 4.62878 34.8982 2.87793 37.468 2.87793C39.4363 2.87793 41.2215 3.89095 42.2435 5.58792C42.4957 6.00668 42.9616 6.24492 43.447 6.20053C43.5593 6.1904 43.6712 6.18527 43.7794 6.18527C45.6727 6.18527 47.2739 7.67119 47.4246 9.56817C47.4775 10.2348 48.0305 10.7487 48.6949 10.7487H48.8892C50.4744 10.7487 51.7643 12.0472 51.7643 13.6432C51.7643 15.2392 50.4745 16.5377 48.8892 16.5377H25.1686C24.2061 16.5377 23.4228 15.7492 23.4228 14.7801ZM34.6956 23.705C34.8679 24.0379 35.1761 24.2781 35.5393 24.3625L37.1026 24.7256L33.1081 29.571L33.6355 27.0631C33.7099 26.7091 33.6325 26.3402 33.4223 26.0467C33.2121 25.7535 32.8887 25.5629 32.5317 25.5225L30.5503 25.2972L32.0187 19.1036H36.059L34.6441 22.6322C34.5046 22.9801 34.5233 23.3722 34.6956 23.705Z" fill="#557571"/>
<path d="M12.0779 33.0464C11.3741 33.0464 10.804 33.6209 10.804 34.3293C10.804 35.0378 11.375 35.6123 12.0788 35.6123C12.7826 35.6123 13.3531 35.0378 13.3531 34.3293C13.3531 33.6209 12.7826 33.0464 12.0788 33.0464H12.0779Z" fill="#557571"/>
<path d="M40.5081 51.661H40.5072C39.8035 51.661 39.2334 52.2355 39.2334 52.944C39.2334 53.6524 39.8043 54.2269 40.5081 54.2269C41.2119 54.2269 41.7825 53.6524 41.7825 52.944C41.7825 52.2355 41.2119 51.661 40.5081 51.661Z" fill="#557571"/>
<path d="M16.8668 29.8389C16.8668 29.1304 16.2962 28.5559 15.5924 28.5559C15.1066 28.5559 14.498 28.2943 13.8536 28.0175C13.0414 27.6685 12.1211 27.2729 11.114 27.2729C10.4102 27.2729 9.83966 27.8475 9.83966 28.5559C9.83966 29.2644 10.4102 29.8389 11.114 29.8389C11.5999 29.8389 12.2085 30.1005 12.853 30.3773C13.665 30.7263 14.5854 31.1218 15.5924 31.1218C16.2962 31.1218 16.8668 30.5473 16.8668 29.8389Z" fill="#557571"/>
</svg>
