<svg width="56" height="56" viewBox="0 0 56 56" fill="none" xmlns="http://www.w3.org/2000/svg">
<path d="M52.6529 7.63221C52.3804 4.79777 49.9626 2.57323 47.0299 2.57323C46.3927 2.57323 45.7679 2.67923 45.1753 2.88506C43.9777 1.67014 42.3401 0.97522 40.5745 0.97522C37.015 0.97522 34.1191 3.84269 34.1191 7.36726C34.1191 7.57745 34.1299 7.78732 34.1511 7.99624C32.6668 8.82177 31.6984 10.3847 31.6984 12.1613C31.6984 14.8047 33.8703 16.9553 36.5399 16.9553H51.0646C53.7342 16.9553 55.9061 14.8047 55.9061 12.1613C55.9061 10.0685 54.5448 8.28463 52.6529 7.63221Z" fill="#557571"/>
<path d="M50.2576 20.1514C49.3664 20.1514 48.6438 20.8669 48.6438 21.7494V26.0108C48.6438 26.8933 49.3664 27.6088 50.2576 27.6088C51.1489 27.6088 51.8715 26.8933 51.8715 26.0108V21.7494C51.8715 20.8669 51.1489 20.1514 50.2576 20.1514Z" fill="#557571"/>
<path d="M43.8022 20.1514C42.9109 20.1514 42.1884 20.8669 42.1884 21.7494V26.0108C42.1884 26.8933 42.9109 27.6088 43.8022 27.6088C44.6935 27.6088 45.4161 26.8933 45.4161 26.0108V21.7494C45.4161 20.8669 44.6935 20.1514 43.8022 20.1514Z" fill="#557571"/>
<path d="M37.3469 20.1514C36.4556 20.1514 35.733 20.8668 35.733 21.7494V26.0107C35.733 26.8932 36.4556 27.6087 37.3469 27.6087C38.2381 27.6087 38.9607 26.8932 38.9607 26.0107V21.7494C38.9607 20.8668 38.2381 20.1514 37.3469 20.1514Z" fill="#557571"/>
<path d="M8.31694 26.5986C8.90105 26.213 9.66988 26.2456 10.2185 26.6789C12.5051 28.4848 15.1983 29.8184 18.0071 30.5356C22.2596 31.6213 25.9848 31.1401 28.369 30.541C28.512 30.4998 28.6536 30.4592 28.7936 30.4192V26.5433C28.7936 21.954 25.0363 18.2336 20.4016 18.2336H9.21209C4.57733 18.2336 0.820068 21.954 0.820068 26.5433V31.5474L8.31694 26.5986Z" fill="#557571"/>
<path d="M17.2012 33.6305C14.3361 32.899 11.5762 31.6133 9.1528 29.8879L0.820068 35.3885V41.6711C0.820068 49.32 7.08213 55.5206 14.8068 55.5206C22.5314 55.5206 28.7935 49.32 28.7935 41.6711V33.7282C26.0357 34.3746 21.9002 34.8302 17.2012 33.6305ZM7.00649 40.3927C6.11522 40.3927 5.39264 39.6772 5.39264 38.7947C5.39264 37.9122 6.11522 37.1967 7.00649 37.1967H9.80383C10.6951 37.1967 11.4177 37.9122 11.4177 38.7947C11.4177 39.6772 10.6951 40.3927 9.80383 40.3927H7.00649ZM18.5724 49.4481C18.2821 49.6638 17.9424 49.7678 17.6054 49.7678C17.1147 49.7678 16.6301 49.5471 16.313 49.1285C15.7546 48.3913 14.8452 48.3828 14.8068 48.3828C13.8774 48.3828 13.3241 49.0975 13.3009 49.128C12.7657 49.8329 11.7539 49.9763 11.0414 49.4467C10.329 48.9173 10.1837 47.9173 10.7179 47.2114C10.9738 46.8734 12.3734 45.1868 14.8068 45.1868C15.2335 45.1868 17.436 45.2844 18.8952 47.2109C19.43 47.917 19.2854 48.9187 18.5724 49.4481ZM22.607 40.3927H19.8097C18.9184 40.3927 18.1958 39.6772 18.1958 38.7947C18.1958 37.9122 18.9184 37.1967 19.8097 37.1967H22.607C23.4983 37.1967 24.2209 37.9122 24.2209 38.7947C24.2209 39.6772 23.4983 40.3927 22.607 40.3927Z" fill="#557571"/>
</svg>
