<svg width="55" height="54" viewBox="0 0 55 54" fill="none" xmlns="http://www.w3.org/2000/svg">
<path d="M36.8797 31.4486C36.1759 31.4486 35.6034 32.0251 35.6034 32.7336C35.6034 33.4422 36.1759 34.0186 36.8797 34.0186C37.5836 34.0186 38.1562 33.4421 38.1562 32.7336C38.1562 32.0251 37.5836 31.4486 36.8797 31.4486Z" fill="#557571"/>
<path d="M44.1993 34.0186C44.9031 34.0186 45.4756 33.4421 45.4756 32.7336C45.4756 32.0251 44.9031 31.4486 44.1993 31.4486C43.4955 31.4486 42.9229 32.0251 42.9229 32.7336C42.9229 33.4421 43.4955 34.0186 44.1993 34.0186Z" fill="#557571"/>
<path d="M10.8164 31.4486C10.1125 31.4486 9.54004 32.0251 9.54004 32.7336C9.54004 33.4422 10.1125 34.0186 10.8164 34.0186C11.5202 34.0186 12.0928 33.4421 12.0928 32.7336C12.0928 32.0251 11.5202 31.4486 10.8164 31.4486Z" fill="#557571"/>
<path d="M18.1361 34.0186C18.8399 34.0186 19.4124 33.4421 19.4124 32.7336C19.4124 32.0251 18.8399 31.4486 18.1361 31.4486C17.4323 31.4486 16.8597 32.0251 16.8597 32.7336C16.8596 33.4421 17.4323 34.0186 18.1361 34.0186Z" fill="#557571"/>
<path d="M50.4336 43.4743C51.5001 42.6788 52.3461 41.2738 52.956 39.2777C53.084 38.8593 52.8507 38.4158 52.4351 38.2871C52.0203 38.1587 51.5791 38.393 51.4512 38.8115C51.0512 40.1206 50.3523 41.7341 49.2343 42.3716C47.9006 41.2816 46.3622 40.4361 44.6867 39.9043C47.9344 38.3404 50.1832 34.9998 50.1832 31.1401V29.5366C50.1832 29.1507 49.9072 28.8209 49.5294 28.7555C45.6323 28.0809 42.9353 24.0993 42.9091 24.06C42.7472 23.8162 42.4657 23.6824 42.1751 23.7118C41.8853 23.7414 41.6354 23.9297 41.5256 24.2013C41.5071 24.2467 39.5953 28.7441 31.6829 28.7441C31.248 28.7441 30.8956 29.0989 30.8956 29.5366V31.1401C30.8956 34.9998 33.1445 38.3404 36.3922 39.9043C34.7171 40.4361 33.1791 41.2813 31.8455 42.371C31.2228 42.016 30.6673 41.3233 30.1906 40.3024C28.3181 36.2921 28.3174 28.3501 29.63 24.9025C30.4807 22.6684 31.964 20.7708 33.9194 19.4152C35.8758 18.0588 38.1649 17.342 40.5394 17.342C42.9139 17.342 45.2031 18.0589 47.1594 19.4152C49.1149 20.7709 50.5982 22.6684 51.4488 24.9025C52.3575 27.2892 52.633 31.9889 52.0894 35.8343C52.0281 36.2677 52.3274 36.669 52.7579 36.7306C53.1872 36.7918 53.5869 36.491 53.6482 36.0576C54.234 31.9134 53.9273 26.9834 52.919 24.3351C51.9539 21.8005 50.271 19.6478 48.0524 18.1096C45.8323 16.5704 43.2344 15.7568 40.5394 15.7568C37.8445 15.7568 35.2465 16.5704 33.0264 18.1096C30.8077 19.6478 29.1249 21.8005 28.1598 24.3351C26.7112 28.1397 26.7062 36.5662 28.7656 40.9768C29.2861 42.0915 29.916 42.9267 30.6463 43.4735C29.263 44.9027 28.1821 46.6291 27.5077 48.5478C26.0653 44.4438 22.762 41.218 18.6232 39.9043C20.2738 39.1094 21.666 37.8556 22.6365 36.3079C23.0386 36.5166 23.4877 36.6292 23.948 36.6292C25.5308 36.6292 26.8186 35.3327 26.8186 33.7392C26.8186 33.1222 26.6248 32.5501 26.2963 32.0802C27.4664 28.6546 28.3358 24.0387 26.3003 20.6513C25.1592 18.7524 23.2632 17.5317 20.9616 17.2142C19.3247 16.9884 17.9859 17.4282 17.2353 17.7733C16.1406 16.4611 14.8945 15.7568 12.3102 15.7568C10.1906 15.7568 6.83133 16.6048 4.34002 18.9945C4.02522 19.2964 4.01326 19.798 4.31315 20.1151C4.61304 20.4319 5.11132 20.4441 5.42623 20.1421C7.58079 18.0753 10.4812 17.342 12.3102 17.342C14.8076 17.342 15.5172 18.0647 16.389 19.2552C16.6377 19.5949 17.1109 19.6762 17.4606 19.4434C17.4744 19.4341 18.8652 18.5255 20.7478 18.7848C22.5694 19.036 24.0628 19.9904 24.9531 21.4719C26.2786 23.6779 26.2843 26.974 24.9802 31.0434C24.7106 30.9383 24.4215 30.873 24.1198 30.855V29.5367C24.1198 29.1508 23.8438 28.821 23.4659 28.7556C19.5688 28.081 16.8718 24.0994 16.8456 24.0601C16.6838 23.8163 16.4022 23.6825 16.1116 23.7119C15.8218 23.7415 15.5719 23.9298 15.462 24.2014C15.4435 24.2469 13.5317 28.7442 5.61947 28.7442C5.18459 28.7442 4.83221 29.099 4.83221 29.5367V30.855C4.50723 30.8744 4.19663 30.9484 3.90934 31.0682C2.65298 27.7241 2.59031 24.8342 3.72701 22.4684C3.91648 22.0743 3.75262 21.6004 3.3613 21.4097C2.96988 21.219 2.49889 21.3841 2.30973 21.778C0.919331 24.6715 1.02703 28.149 2.62768 32.1199C2.31593 32.5822 2.1336 33.1396 2.1336 33.7392C2.1336 35.3327 3.42134 36.6292 5.00415 36.6292C5.46454 36.6292 5.91359 36.5165 6.31562 36.3079C7.28605 37.8556 8.67834 39.1095 10.329 39.9043C4.72914 41.6817 0.657227 46.959 0.657227 53.1763V53.2075C0.657227 53.6453 1.0096 54.0001 1.44448 54.0001H27.5079H53.5713C54.0061 54.0001 54.3585 53.6453 54.3585 53.2075V53.1763C54.3585 49.4063 52.8606 45.9825 50.4336 43.4743ZM40.5395 40.849C41.3289 40.849 42.1009 40.9252 42.8491 41.0695C42.4578 41.9728 41.5617 42.5935 40.5395 42.5935C39.5174 42.5935 38.6212 41.9728 38.2299 41.0695C38.9782 40.9252 39.7502 40.849 40.5395 40.849ZM32.4701 31.14V30.3151C38.4419 30.0998 41.2159 27.4553 42.3359 25.9051C43.4194 27.2012 45.6364 29.4215 48.6088 30.1779V31.14C48.6088 35.6195 44.989 39.2638 40.5395 39.2638C36.09 39.2638 32.4701 35.6195 32.4701 31.14ZM14.4761 40.849C15.2655 40.849 16.0375 40.9252 16.7857 41.0695C16.3944 41.9728 15.4983 42.5935 14.4761 42.5935C13.454 42.5935 12.5578 41.9728 12.1665 41.0695C12.9148 40.9252 13.6868 40.849 14.4761 40.849ZM23.9482 35.044C23.7443 35.044 23.5458 34.9932 23.3667 34.9016C23.6915 34.1264 23.9186 33.3002 24.0335 32.4387C24.7084 32.4832 25.2442 33.0486 25.2442 33.7392C25.2441 34.4587 24.6627 35.044 23.9482 35.044ZM5.00415 35.044C4.28953 35.044 3.70811 34.4587 3.70811 33.7392C3.70811 33.0487 4.24408 32.4832 4.91881 32.4387C5.03375 33.3002 5.2609 34.1264 5.58567 34.9016C5.4066 34.9931 5.2081 35.044 5.00415 35.044ZM6.42657 31.6784C6.42636 31.6753 6.42615 31.6723 6.42594 31.6693C6.41471 31.4941 6.40694 31.318 6.40694 31.14V30.3151C12.3787 30.0998 15.1526 27.4553 16.2727 25.9051C17.3561 27.2012 19.5732 29.4215 22.5455 30.1779V31.14C22.5455 31.318 22.5378 31.4941 22.5265 31.6693C22.5262 31.6724 22.5261 31.6753 22.5258 31.6784C22.2493 35.9076 18.7457 39.2638 14.4761 39.2638C10.2066 39.2638 6.70305 35.9076 6.42657 31.6784ZM2.25484 52.415C2.56565 47.3024 5.98612 43.0227 10.6312 41.4722C11.2095 43.0641 12.7302 44.1788 14.4762 44.1788C16.2222 44.1788 17.7429 43.0641 18.3213 41.4722C22.9662 43.0228 26.3867 47.3025 26.6976 52.415H2.25484ZM28.3181 52.415C28.6289 47.3024 32.0494 43.0227 36.6944 41.4722C37.2728 43.0641 38.7936 44.1788 40.5395 44.1788C42.2855 44.1788 43.8062 43.0641 44.3846 41.4722C49.0295 43.0228 52.45 47.3025 52.7609 52.415H28.3181Z" fill="#557571"/>
<path d="M22.2993 11.8094C22.6166 11.5103 22.6331 11.0087 22.336 10.6891C20.5427 8.76072 19.7622 6.83623 20.0158 4.96933C20.3997 2.14425 22.4151 1.67219 23.2638 1.60033C24.8725 1.46412 26.3739 2.28861 26.7565 3.51806C26.8594 3.84862 27.1637 4.07361 27.5078 4.07361C27.8518 4.07361 28.1561 3.84862 28.259 3.51806C28.6417 2.28861 30.1425 1.4639 31.7517 1.60033C32.6004 1.67219 34.6158 2.14415 34.9997 4.96933C35.6616 9.84064 29.1005 13.7185 27.5067 14.5833C26.9563 14.2861 25.8154 13.6313 24.5816 12.6952C24.2343 12.4317 23.7407 12.5017 23.4791 12.8512C23.2174 13.2008 23.2868 13.6978 23.634 13.9611C25.4721 15.3556 27.0953 16.1558 27.1635 16.1892C27.3789 16.2947 27.6366 16.2947 27.8519 16.1892C27.9487 16.1419 30.2468 15.0073 32.4713 13.0783C35.526 10.4292 36.9397 7.55082 36.5597 4.75449C36.1202 1.51886 33.856 0.187743 31.8836 0.0207725C30.1274 -0.128021 28.4848 0.536373 27.5078 1.689C26.5309 0.536373 24.8888 -0.128444 23.132 0.0207725C21.1596 0.187743 18.8955 1.51886 18.4558 4.75449C18.1346 7.11733 19.0534 9.47859 21.1864 11.7724C21.4834 12.092 21.9814 12.1086 22.2993 11.8094Z" fill="#557571"/>
</svg>
