<svg width="46" height="55" viewBox="0 0 46 55" fill="none" xmlns="http://www.w3.org/2000/svg">
<path d="M19.3633 4.58337H24.8265V6.41663H19.3633V4.58337Z" fill="#557571"/>
<path d="M32.1106 51.3334C33.6584 51.3334 34.8421 50.1417 34.8421 48.5834C34.8421 47.025 33.6584 45.8334 32.1106 45.8334C30.5627 45.8334 29.379 47.025 29.379 48.5834C29.379 50.1417 30.5627 51.3334 32.1106 51.3334ZM32.1106 47.6667C32.6569 47.6667 33.0211 48.0334 33.0211 48.5834C33.0211 49.1334 32.6569 49.5 32.1106 49.5C31.5643 49.5 31.2001 49.1334 31.2001 48.5834C31.2001 48.0334 31.5643 47.6667 32.1106 47.6667Z" fill="#557571"/>
<path d="M38.211 39.1416L39.3947 37.9499L40.5783 39.1416L41.853 37.8583L40.6694 36.6666L41.853 35.475L40.5783 34.1917L39.3947 35.3833L38.211 34.1917L36.9363 35.475L38.1199 36.6666L36.9363 37.8583L38.211 39.1416Z" fill="#557571"/>
<path d="M39.3947 45.8333C39.3947 47.3916 38.211 48.5833 36.6631 48.5833V50.4166C39.2125 50.4166 41.2157 48.4 41.2157 45.8333V41.25H39.3947V45.8333Z" fill="#557571"/>
<path d="M32.1106 39.4166C33.6584 39.4166 34.8421 38.225 34.8421 36.6666C34.8421 35.1083 33.6584 33.9166 32.1106 33.9166C30.5627 33.9166 29.379 35.1083 29.379 36.6666C29.379 38.225 30.5627 39.4166 32.1106 39.4166ZM32.1106 35.75C32.6569 35.75 33.0211 36.1166 33.0211 36.6666C33.0211 37.2166 32.6569 37.5833 32.1106 37.5833C31.5643 37.5833 31.2001 37.2166 31.2001 36.6666C31.2001 36.1166 31.5643 35.75 32.1106 35.75Z" fill="#557571"/>
<path d="M34.0964 44.4218L35.9153 41.6765L37.4302 42.6939L35.6113 45.4391L34.0964 44.4218Z" fill="#557571"/>
<path d="M31.2 41.25H33.0211V44.9166H31.2V41.25Z" fill="#557571"/>
<path d="M38.0289 30.1583L29.47 25.575C31.3821 23.925 32.6569 21.5417 32.93 18.975L34.5689 18.5167C35.7526 18.2417 36.6631 17.1417 36.6631 15.8583V14.025C36.6631 13.5667 36.5721 13.2 36.39 12.7417C35.7526 11.55 34.3868 10.9083 33.1121 11.3667V4.95C33.1121 2.56667 31.2911 0.55 29.0148 0.366667L22.0949 0L15.266 0.641667C12.9897 0.825 11.1687 2.84167 11.1687 5.225V11.6417C9.7119 11.1833 8.16403 12.0083 7.70877 13.3833C7.61772 13.6583 7.61772 13.9333 7.61772 14.2083V16.0417C7.61772 17.325 8.43718 18.425 9.7119 18.7L11.3508 19.1583C11.624 21.725 12.8987 24.1083 14.8108 25.7583L5.61459 30.6167C2.24568 32.2667 0.242554 35.6583 0.242554 39.4167V55H45.7682V30.25L38.0289 30.1583ZM33.6584 13.2917C34.1137 13.1083 34.5689 13.3833 34.751 13.75C34.8421 13.8417 34.8421 14.025 34.8421 14.1167V15.95C34.8421 16.4083 34.5689 16.775 34.1137 16.8667L33.0211 17.1417V13.475L33.6584 13.2917ZM12.9897 5.225C12.9897 3.75833 14.0824 2.56667 15.4481 2.475L22.0949 1.83333L28.7416 2.475C30.1074 2.56667 31.2 3.75833 31.2 5.225V8.25H12.9897V5.225ZM31.109 10.0833C30.7448 11.4583 29.7432 12.5583 28.3774 12.925C24.2801 14.025 20.0007 14.025 15.9034 12.925C14.5376 12.5583 13.5361 11.4583 13.1719 10.0833H31.109ZM9.34769 15.95V14.1167C9.34769 13.9333 9.34769 13.8417 9.43874 13.6583C9.62085 13.2917 10.0761 13.0167 10.5314 13.2L11.1687 13.3833V17.05L10.0761 16.775C9.62085 16.775 9.34769 16.4083 9.34769 15.95ZM12.9897 17.9667V13.3833C13.6271 14.025 14.4466 14.4833 15.3571 14.7583C17.5423 15.4 19.8186 15.675 22.0949 15.675C24.3712 15.675 26.6475 15.4 28.8327 14.7583C29.7432 14.4833 30.5627 14.025 31.2 13.3833V17.9667C31.2 21.175 29.2879 24.1083 26.3743 25.4833L25.4638 25.9417C23.2786 26.95 20.8202 26.95 18.726 25.9417L17.8155 25.4833C14.9018 24.1083 12.9897 21.175 12.9897 17.9667ZM16.996 27.1333L17.9065 27.5917C20.547 28.7833 23.5517 28.7833 26.1922 27.5917L27.1027 27.1333C27.2848 27.0417 27.4669 26.95 27.7401 26.8583L34.2047 30.3417H25.7369V34.8333C25.2817 35.1083 24.8264 35.3833 24.3712 35.6583L22.0949 36.575L19.2723 35.475C16.2676 34.2833 14.1734 31.4417 13.9913 28.1417L16.4497 26.8583C16.6318 26.95 16.8139 27.0417 16.996 27.1333ZM12.1703 29.0583C12.6255 32.2667 14.6287 35.1083 17.5423 36.6667H14.9929C11.5329 36.6667 8.25508 35.1083 6.06984 32.3583C6.16089 32.2667 6.25195 32.2667 6.343 32.175L12.1703 29.0583ZM12.0792 53.1667V44.9167H10.2582V53.1667H2.06358V39.4167C2.06358 37.125 2.9741 34.925 4.70407 33.3667C7.16246 36.6667 10.9866 38.5 14.9929 38.5H17.5423V47.6667H16.6318V49.5H20.2739V47.6667H19.3633V38.5H21.9128L22.0949 38.5917L25.0085 37.3083C25.2817 37.2167 25.4638 37.0333 25.6459 36.9417V53.1667H12.0792ZM43.9472 53.1667H27.558V32.0833H43.9472V53.1667Z" fill="#557571"/>
</svg>
