<svg width="53" height="53" viewBox="0 0 53 53" fill="none" xmlns="http://www.w3.org/2000/svg">
<path d="M39.8297 29.0568L31.1133 42.1112H35.4713L33.2923 52.99L42.0087 39.9356H37.6507L39.8297 29.0568Z" fill="#557571"/>
<path d="M18.0385 29.0568L9.32166 42.1112H13.6801L11.5011 52.99L20.2175 39.9356H15.8591L18.0385 29.0568Z" fill="#557571"/>
<path d="M48.5461 19.2661C48.5461 18.8311 48.5461 18.396 48.5461 18.1785C48.5461 13.3919 44.6238 9.47533 39.8297 9.47533C38.9579 9.47533 37.8686 9.69285 36.9967 9.91076C34.8177 2.94813 27.4085 -0.532987 20.4354 1.64261C14.9876 3.38357 11.5011 8.16981 11.5011 13.8269C5.39939 13.8269 0.82312 18.6136 0.82312 24.7057C0.82312 30.58 5.18153 35.3666 11.065 35.5841L20.2175 22.5297L18.9099 35.5841H32.8566L42.0087 22.5297L40.7012 35.5841H44.1881C48.9819 35.5841 52.9045 31.6679 52.9045 26.8813C52.9045 23.8352 51.1613 20.7892 48.5461 19.2661ZM24.5759 33.4085L26.7549 24.7057H22.3965L31.1133 13.8269L28.9339 22.5297H33.2923L24.5759 33.4085Z" fill="#557571"/>
</svg>
